%TF.GenerationSoftware,KiCad,Pcbnew,(7.0.0)*%
%TF.CreationDate,2023-03-04T19:16:17-06:00*%
%TF.ProjectId,OpenRectangleBreakout,4f70656e-5265-4637-9461-6e676c654272,rev?*%
%TF.SameCoordinates,Original*%
%TF.FileFunction,Legend,Top*%
%TF.FilePolarity,Positive*%
%FSLAX46Y46*%
G04 Gerber Fmt 4.6, Leading zero omitted, Abs format (unit mm)*
G04 Created by KiCad (PCBNEW (7.0.0)) date 2023-03-04 19:16:17*
%MOMM*%
%LPD*%
G01*
G04 APERTURE LIST*
%ADD10C,0.350000*%
%ADD11C,0.300000*%
%ADD12C,0.150000*%
%ADD13C,0.120000*%
%ADD14C,0.200000*%
G04 APERTURE END LIST*
D10*
X25628571Y-54707200D02*
X25480000Y-54632914D01*
X25480000Y-54632914D02*
X25257142Y-54632914D01*
X25257142Y-54632914D02*
X25034285Y-54707200D01*
X25034285Y-54707200D02*
X24885714Y-54855771D01*
X24885714Y-54855771D02*
X24811428Y-55004342D01*
X24811428Y-55004342D02*
X24737142Y-55301485D01*
X24737142Y-55301485D02*
X24737142Y-55524342D01*
X24737142Y-55524342D02*
X24811428Y-55821485D01*
X24811428Y-55821485D02*
X24885714Y-55970057D01*
X24885714Y-55970057D02*
X25034285Y-56118628D01*
X25034285Y-56118628D02*
X25257142Y-56192914D01*
X25257142Y-56192914D02*
X25405714Y-56192914D01*
X25405714Y-56192914D02*
X25628571Y-56118628D01*
X25628571Y-56118628D02*
X25702857Y-56044342D01*
X25702857Y-56044342D02*
X25702857Y-55524342D01*
X25702857Y-55524342D02*
X25405714Y-55524342D01*
X26371428Y-56192914D02*
X26371428Y-54632914D01*
X26371428Y-54632914D02*
X27262857Y-56192914D01*
X27262857Y-56192914D02*
X27262857Y-54632914D01*
X28005714Y-56192914D02*
X28005714Y-54632914D01*
X28005714Y-54632914D02*
X28377143Y-54632914D01*
X28377143Y-54632914D02*
X28600000Y-54707200D01*
X28600000Y-54707200D02*
X28748571Y-54855771D01*
X28748571Y-54855771D02*
X28822857Y-55004342D01*
X28822857Y-55004342D02*
X28897143Y-55301485D01*
X28897143Y-55301485D02*
X28897143Y-55524342D01*
X28897143Y-55524342D02*
X28822857Y-55821485D01*
X28822857Y-55821485D02*
X28748571Y-55970057D01*
X28748571Y-55970057D02*
X28600000Y-56118628D01*
X28600000Y-56118628D02*
X28377143Y-56192914D01*
X28377143Y-56192914D02*
X28005714Y-56192914D01*
X25554285Y-58720114D02*
X24811428Y-58720114D01*
X24811428Y-58720114D02*
X24811428Y-57160114D01*
X25554285Y-61247314D02*
X24811428Y-61247314D01*
X24811428Y-61247314D02*
X24811428Y-59687314D01*
X26074285Y-60430171D02*
X26594285Y-60430171D01*
X26817142Y-61247314D02*
X26074285Y-61247314D01*
X26074285Y-61247314D02*
X26074285Y-59687314D01*
X26074285Y-59687314D02*
X26817142Y-59687314D01*
X28005714Y-60430171D02*
X27485714Y-60430171D01*
X27485714Y-61247314D02*
X27485714Y-59687314D01*
X27485714Y-59687314D02*
X28228571Y-59687314D01*
X28600000Y-59687314D02*
X29491429Y-59687314D01*
X29045714Y-61247314D02*
X29045714Y-59687314D01*
X24811428Y-63774514D02*
X24811428Y-62214514D01*
X24811428Y-62214514D02*
X25182857Y-62214514D01*
X25182857Y-62214514D02*
X25405714Y-62288800D01*
X25405714Y-62288800D02*
X25554285Y-62437371D01*
X25554285Y-62437371D02*
X25628571Y-62585942D01*
X25628571Y-62585942D02*
X25702857Y-62883085D01*
X25702857Y-62883085D02*
X25702857Y-63105942D01*
X25702857Y-63105942D02*
X25628571Y-63403085D01*
X25628571Y-63403085D02*
X25554285Y-63551657D01*
X25554285Y-63551657D02*
X25405714Y-63700228D01*
X25405714Y-63700228D02*
X25182857Y-63774514D01*
X25182857Y-63774514D02*
X24811428Y-63774514D01*
X26668571Y-62214514D02*
X26965714Y-62214514D01*
X26965714Y-62214514D02*
X27114285Y-62288800D01*
X27114285Y-62288800D02*
X27262857Y-62437371D01*
X27262857Y-62437371D02*
X27337142Y-62734514D01*
X27337142Y-62734514D02*
X27337142Y-63254514D01*
X27337142Y-63254514D02*
X27262857Y-63551657D01*
X27262857Y-63551657D02*
X27114285Y-63700228D01*
X27114285Y-63700228D02*
X26965714Y-63774514D01*
X26965714Y-63774514D02*
X26668571Y-63774514D01*
X26668571Y-63774514D02*
X26520000Y-63700228D01*
X26520000Y-63700228D02*
X26371428Y-63551657D01*
X26371428Y-63551657D02*
X26297142Y-63254514D01*
X26297142Y-63254514D02*
X26297142Y-62734514D01*
X26297142Y-62734514D02*
X26371428Y-62437371D01*
X26371428Y-62437371D02*
X26520000Y-62288800D01*
X26520000Y-62288800D02*
X26668571Y-62214514D01*
X27857143Y-62214514D02*
X28228571Y-63774514D01*
X28228571Y-63774514D02*
X28525714Y-62660228D01*
X28525714Y-62660228D02*
X28822857Y-63774514D01*
X28822857Y-63774514D02*
X29194286Y-62214514D01*
X29788571Y-63774514D02*
X29788571Y-62214514D01*
X29788571Y-62214514D02*
X30680000Y-63774514D01*
X30680000Y-63774514D02*
X30680000Y-62214514D01*
X25702857Y-66301714D02*
X25182857Y-65558857D01*
X24811428Y-66301714D02*
X24811428Y-64741714D01*
X24811428Y-64741714D02*
X25405714Y-64741714D01*
X25405714Y-64741714D02*
X25554285Y-64816000D01*
X25554285Y-64816000D02*
X25628571Y-64890285D01*
X25628571Y-64890285D02*
X25702857Y-65038857D01*
X25702857Y-65038857D02*
X25702857Y-65261714D01*
X25702857Y-65261714D02*
X25628571Y-65410285D01*
X25628571Y-65410285D02*
X25554285Y-65484571D01*
X25554285Y-65484571D02*
X25405714Y-65558857D01*
X25405714Y-65558857D02*
X24811428Y-65558857D01*
X26371428Y-66301714D02*
X26371428Y-64741714D01*
X27931428Y-64816000D02*
X27782857Y-64741714D01*
X27782857Y-64741714D02*
X27559999Y-64741714D01*
X27559999Y-64741714D02*
X27337142Y-64816000D01*
X27337142Y-64816000D02*
X27188571Y-64964571D01*
X27188571Y-64964571D02*
X27114285Y-65113142D01*
X27114285Y-65113142D02*
X27039999Y-65410285D01*
X27039999Y-65410285D02*
X27039999Y-65633142D01*
X27039999Y-65633142D02*
X27114285Y-65930285D01*
X27114285Y-65930285D02*
X27188571Y-66078857D01*
X27188571Y-66078857D02*
X27337142Y-66227428D01*
X27337142Y-66227428D02*
X27559999Y-66301714D01*
X27559999Y-66301714D02*
X27708571Y-66301714D01*
X27708571Y-66301714D02*
X27931428Y-66227428D01*
X27931428Y-66227428D02*
X28005714Y-66153142D01*
X28005714Y-66153142D02*
X28005714Y-65633142D01*
X28005714Y-65633142D02*
X27708571Y-65633142D01*
X28674285Y-66301714D02*
X28674285Y-64741714D01*
X28674285Y-65484571D02*
X29565714Y-65484571D01*
X29565714Y-66301714D02*
X29565714Y-64741714D01*
X30085714Y-64741714D02*
X30977143Y-64741714D01*
X30531428Y-66301714D02*
X30531428Y-64741714D01*
X24811428Y-68828914D02*
X24811428Y-67268914D01*
X24811428Y-67268914D02*
X25331428Y-68383200D01*
X25331428Y-68383200D02*
X25851428Y-67268914D01*
X25851428Y-67268914D02*
X25851428Y-68828914D01*
X26445714Y-67268914D02*
X27485714Y-68828914D01*
X27485714Y-67268914D02*
X26445714Y-68828914D01*
X24811428Y-71356114D02*
X24811428Y-69796114D01*
X24811428Y-69796114D02*
X25331428Y-70910400D01*
X25331428Y-70910400D02*
X25851428Y-69796114D01*
X25851428Y-69796114D02*
X25851428Y-71356114D01*
X26891428Y-70613257D02*
X26891428Y-71356114D01*
X26371428Y-69796114D02*
X26891428Y-70613257D01*
X26891428Y-70613257D02*
X27411428Y-69796114D01*
X24737142Y-73809028D02*
X24960000Y-73883314D01*
X24960000Y-73883314D02*
X25331428Y-73883314D01*
X25331428Y-73883314D02*
X25480000Y-73809028D01*
X25480000Y-73809028D02*
X25554285Y-73734742D01*
X25554285Y-73734742D02*
X25628571Y-73586171D01*
X25628571Y-73586171D02*
X25628571Y-73437600D01*
X25628571Y-73437600D02*
X25554285Y-73289028D01*
X25554285Y-73289028D02*
X25480000Y-73214742D01*
X25480000Y-73214742D02*
X25331428Y-73140457D01*
X25331428Y-73140457D02*
X25034285Y-73066171D01*
X25034285Y-73066171D02*
X24885714Y-72991885D01*
X24885714Y-72991885D02*
X24811428Y-72917600D01*
X24811428Y-72917600D02*
X24737142Y-72769028D01*
X24737142Y-72769028D02*
X24737142Y-72620457D01*
X24737142Y-72620457D02*
X24811428Y-72471885D01*
X24811428Y-72471885D02*
X24885714Y-72397600D01*
X24885714Y-72397600D02*
X25034285Y-72323314D01*
X25034285Y-72323314D02*
X25405714Y-72323314D01*
X25405714Y-72323314D02*
X25628571Y-72397600D01*
X26074285Y-72323314D02*
X26965714Y-72323314D01*
X26519999Y-73883314D02*
X26519999Y-72323314D01*
X27411427Y-73437600D02*
X28154285Y-73437600D01*
X27262856Y-73883314D02*
X27782856Y-72323314D01*
X27782856Y-72323314D02*
X28302856Y-73883314D01*
X29714285Y-73883314D02*
X29194285Y-73140457D01*
X28822856Y-73883314D02*
X28822856Y-72323314D01*
X28822856Y-72323314D02*
X29417142Y-72323314D01*
X29417142Y-72323314D02*
X29565713Y-72397600D01*
X29565713Y-72397600D02*
X29639999Y-72471885D01*
X29639999Y-72471885D02*
X29714285Y-72620457D01*
X29714285Y-72620457D02*
X29714285Y-72843314D01*
X29714285Y-72843314D02*
X29639999Y-72991885D01*
X29639999Y-72991885D02*
X29565713Y-73066171D01*
X29565713Y-73066171D02*
X29417142Y-73140457D01*
X29417142Y-73140457D02*
X28822856Y-73140457D01*
X30159999Y-72323314D02*
X31051428Y-72323314D01*
X30605713Y-73883314D02*
X30605713Y-72323314D01*
X25628571Y-74924800D02*
X25480000Y-74850514D01*
X25480000Y-74850514D02*
X25257142Y-74850514D01*
X25257142Y-74850514D02*
X25034285Y-74924800D01*
X25034285Y-74924800D02*
X24885714Y-75073371D01*
X24885714Y-75073371D02*
X24811428Y-75221942D01*
X24811428Y-75221942D02*
X24737142Y-75519085D01*
X24737142Y-75519085D02*
X24737142Y-75741942D01*
X24737142Y-75741942D02*
X24811428Y-76039085D01*
X24811428Y-76039085D02*
X24885714Y-76187657D01*
X24885714Y-76187657D02*
X25034285Y-76336228D01*
X25034285Y-76336228D02*
X25257142Y-76410514D01*
X25257142Y-76410514D02*
X25405714Y-76410514D01*
X25405714Y-76410514D02*
X25628571Y-76336228D01*
X25628571Y-76336228D02*
X25702857Y-76261942D01*
X25702857Y-76261942D02*
X25702857Y-75741942D01*
X25702857Y-75741942D02*
X25405714Y-75741942D01*
X26371428Y-76410514D02*
X26371428Y-74850514D01*
X26371428Y-74850514D02*
X26965714Y-74850514D01*
X26965714Y-74850514D02*
X27114285Y-74924800D01*
X27114285Y-74924800D02*
X27188571Y-74999085D01*
X27188571Y-74999085D02*
X27262857Y-75147657D01*
X27262857Y-75147657D02*
X27262857Y-75370514D01*
X27262857Y-75370514D02*
X27188571Y-75519085D01*
X27188571Y-75519085D02*
X27114285Y-75593371D01*
X27114285Y-75593371D02*
X26965714Y-75667657D01*
X26965714Y-75667657D02*
X26371428Y-75667657D01*
X28154285Y-75519085D02*
X28005714Y-75444800D01*
X28005714Y-75444800D02*
X27931428Y-75370514D01*
X27931428Y-75370514D02*
X27857142Y-75221942D01*
X27857142Y-75221942D02*
X27857142Y-75147657D01*
X27857142Y-75147657D02*
X27931428Y-74999085D01*
X27931428Y-74999085D02*
X28005714Y-74924800D01*
X28005714Y-74924800D02*
X28154285Y-74850514D01*
X28154285Y-74850514D02*
X28451428Y-74850514D01*
X28451428Y-74850514D02*
X28600000Y-74924800D01*
X28600000Y-74924800D02*
X28674285Y-74999085D01*
X28674285Y-74999085D02*
X28748571Y-75147657D01*
X28748571Y-75147657D02*
X28748571Y-75221942D01*
X28748571Y-75221942D02*
X28674285Y-75370514D01*
X28674285Y-75370514D02*
X28600000Y-75444800D01*
X28600000Y-75444800D02*
X28451428Y-75519085D01*
X28451428Y-75519085D02*
X28154285Y-75519085D01*
X28154285Y-75519085D02*
X28005714Y-75593371D01*
X28005714Y-75593371D02*
X27931428Y-75667657D01*
X27931428Y-75667657D02*
X27857142Y-75816228D01*
X27857142Y-75816228D02*
X27857142Y-76113371D01*
X27857142Y-76113371D02*
X27931428Y-76261942D01*
X27931428Y-76261942D02*
X28005714Y-76336228D01*
X28005714Y-76336228D02*
X28154285Y-76410514D01*
X28154285Y-76410514D02*
X28451428Y-76410514D01*
X28451428Y-76410514D02*
X28600000Y-76336228D01*
X28600000Y-76336228D02*
X28674285Y-76261942D01*
X28674285Y-76261942D02*
X28748571Y-76113371D01*
X28748571Y-76113371D02*
X28748571Y-75816228D01*
X28748571Y-75816228D02*
X28674285Y-75667657D01*
X28674285Y-75667657D02*
X28600000Y-75593371D01*
X28600000Y-75593371D02*
X28451428Y-75519085D01*
X33967200Y-83071428D02*
X33892914Y-83220000D01*
X33892914Y-83220000D02*
X33892914Y-83442857D01*
X33892914Y-83442857D02*
X33967200Y-83665714D01*
X33967200Y-83665714D02*
X34115771Y-83814285D01*
X34115771Y-83814285D02*
X34264342Y-83888571D01*
X34264342Y-83888571D02*
X34561485Y-83962857D01*
X34561485Y-83962857D02*
X34784342Y-83962857D01*
X34784342Y-83962857D02*
X35081485Y-83888571D01*
X35081485Y-83888571D02*
X35230057Y-83814285D01*
X35230057Y-83814285D02*
X35378628Y-83665714D01*
X35378628Y-83665714D02*
X35452914Y-83442857D01*
X35452914Y-83442857D02*
X35452914Y-83294285D01*
X35452914Y-83294285D02*
X35378628Y-83071428D01*
X35378628Y-83071428D02*
X35304342Y-82997142D01*
X35304342Y-82997142D02*
X34784342Y-82997142D01*
X34784342Y-82997142D02*
X34784342Y-83294285D01*
X35452914Y-82328571D02*
X33892914Y-82328571D01*
X33892914Y-82328571D02*
X35452914Y-81437142D01*
X35452914Y-81437142D02*
X33892914Y-81437142D01*
X35452914Y-80694285D02*
X33892914Y-80694285D01*
X33892914Y-80694285D02*
X33892914Y-80322856D01*
X33892914Y-80322856D02*
X33967200Y-80099999D01*
X33967200Y-80099999D02*
X34115771Y-79951428D01*
X34115771Y-79951428D02*
X34264342Y-79877142D01*
X34264342Y-79877142D02*
X34561485Y-79802856D01*
X34561485Y-79802856D02*
X34784342Y-79802856D01*
X34784342Y-79802856D02*
X35081485Y-79877142D01*
X35081485Y-79877142D02*
X35230057Y-79951428D01*
X35230057Y-79951428D02*
X35378628Y-80099999D01*
X35378628Y-80099999D02*
X35452914Y-80322856D01*
X35452914Y-80322856D02*
X35452914Y-80694285D01*
X37831542Y-82997142D02*
X37905828Y-83071428D01*
X37905828Y-83071428D02*
X37980114Y-83294285D01*
X37980114Y-83294285D02*
X37980114Y-83442857D01*
X37980114Y-83442857D02*
X37905828Y-83665714D01*
X37905828Y-83665714D02*
X37757257Y-83814285D01*
X37757257Y-83814285D02*
X37608685Y-83888571D01*
X37608685Y-83888571D02*
X37311542Y-83962857D01*
X37311542Y-83962857D02*
X37088685Y-83962857D01*
X37088685Y-83962857D02*
X36791542Y-83888571D01*
X36791542Y-83888571D02*
X36642971Y-83814285D01*
X36642971Y-83814285D02*
X36494400Y-83665714D01*
X36494400Y-83665714D02*
X36420114Y-83442857D01*
X36420114Y-83442857D02*
X36420114Y-83294285D01*
X36420114Y-83294285D02*
X36494400Y-83071428D01*
X36494400Y-83071428D02*
X36568685Y-82997142D01*
X37980114Y-81392571D02*
X36420114Y-81392571D01*
X36420114Y-81392571D02*
X36420114Y-81021142D01*
X36420114Y-81021142D02*
X36494400Y-80798285D01*
X36494400Y-80798285D02*
X36642971Y-80649714D01*
X36642971Y-80649714D02*
X36791542Y-80575428D01*
X36791542Y-80575428D02*
X37088685Y-80501142D01*
X37088685Y-80501142D02*
X37311542Y-80501142D01*
X37311542Y-80501142D02*
X37608685Y-80575428D01*
X37608685Y-80575428D02*
X37757257Y-80649714D01*
X37757257Y-80649714D02*
X37905828Y-80798285D01*
X37905828Y-80798285D02*
X37980114Y-81021142D01*
X37980114Y-81021142D02*
X37980114Y-81392571D01*
X37980114Y-79832571D02*
X36420114Y-79832571D01*
X36420114Y-79832571D02*
X37980114Y-78941142D01*
X37980114Y-78941142D02*
X36420114Y-78941142D01*
X40358742Y-82997142D02*
X40433028Y-83071428D01*
X40433028Y-83071428D02*
X40507314Y-83294285D01*
X40507314Y-83294285D02*
X40507314Y-83442857D01*
X40507314Y-83442857D02*
X40433028Y-83665714D01*
X40433028Y-83665714D02*
X40284457Y-83814285D01*
X40284457Y-83814285D02*
X40135885Y-83888571D01*
X40135885Y-83888571D02*
X39838742Y-83962857D01*
X39838742Y-83962857D02*
X39615885Y-83962857D01*
X39615885Y-83962857D02*
X39318742Y-83888571D01*
X39318742Y-83888571D02*
X39170171Y-83814285D01*
X39170171Y-83814285D02*
X39021600Y-83665714D01*
X39021600Y-83665714D02*
X38947314Y-83442857D01*
X38947314Y-83442857D02*
X38947314Y-83294285D01*
X38947314Y-83294285D02*
X39021600Y-83071428D01*
X39021600Y-83071428D02*
X39095885Y-82997142D01*
X40507314Y-80649714D02*
X40507314Y-81392571D01*
X40507314Y-81392571D02*
X38947314Y-81392571D01*
X38947314Y-80352571D02*
X38947314Y-79461143D01*
X40507314Y-79906857D02*
X38947314Y-79906857D01*
X42588800Y-83962857D02*
X42588800Y-83220000D01*
X43034514Y-84111428D02*
X41474514Y-83591428D01*
X41474514Y-83591428D02*
X43034514Y-83071428D01*
X45413142Y-82997142D02*
X45487428Y-83071428D01*
X45487428Y-83071428D02*
X45561714Y-83294285D01*
X45561714Y-83294285D02*
X45561714Y-83442857D01*
X45561714Y-83442857D02*
X45487428Y-83665714D01*
X45487428Y-83665714D02*
X45338857Y-83814285D01*
X45338857Y-83814285D02*
X45190285Y-83888571D01*
X45190285Y-83888571D02*
X44893142Y-83962857D01*
X44893142Y-83962857D02*
X44670285Y-83962857D01*
X44670285Y-83962857D02*
X44373142Y-83888571D01*
X44373142Y-83888571D02*
X44224571Y-83814285D01*
X44224571Y-83814285D02*
X44076000Y-83665714D01*
X44076000Y-83665714D02*
X44001714Y-83442857D01*
X44001714Y-83442857D02*
X44001714Y-83294285D01*
X44001714Y-83294285D02*
X44076000Y-83071428D01*
X44076000Y-83071428D02*
X44150285Y-82997142D01*
X44001714Y-81392571D02*
X45264571Y-81392571D01*
X45264571Y-81392571D02*
X45413142Y-81318285D01*
X45413142Y-81318285D02*
X45487428Y-81244000D01*
X45487428Y-81244000D02*
X45561714Y-81095428D01*
X45561714Y-81095428D02*
X45561714Y-80798285D01*
X45561714Y-80798285D02*
X45487428Y-80649714D01*
X45487428Y-80649714D02*
X45413142Y-80575428D01*
X45413142Y-80575428D02*
X45264571Y-80501142D01*
X45264571Y-80501142D02*
X44001714Y-80501142D01*
X45561714Y-79758285D02*
X44001714Y-79758285D01*
X44001714Y-79758285D02*
X44001714Y-79163999D01*
X44001714Y-79163999D02*
X44076000Y-79015428D01*
X44076000Y-79015428D02*
X44150285Y-78941142D01*
X44150285Y-78941142D02*
X44298857Y-78866856D01*
X44298857Y-78866856D02*
X44521714Y-78866856D01*
X44521714Y-78866856D02*
X44670285Y-78941142D01*
X44670285Y-78941142D02*
X44744571Y-79015428D01*
X44744571Y-79015428D02*
X44818857Y-79163999D01*
X44818857Y-79163999D02*
X44818857Y-79758285D01*
X47940342Y-82997142D02*
X48014628Y-83071428D01*
X48014628Y-83071428D02*
X48088914Y-83294285D01*
X48088914Y-83294285D02*
X48088914Y-83442857D01*
X48088914Y-83442857D02*
X48014628Y-83665714D01*
X48014628Y-83665714D02*
X47866057Y-83814285D01*
X47866057Y-83814285D02*
X47717485Y-83888571D01*
X47717485Y-83888571D02*
X47420342Y-83962857D01*
X47420342Y-83962857D02*
X47197485Y-83962857D01*
X47197485Y-83962857D02*
X46900342Y-83888571D01*
X46900342Y-83888571D02*
X46751771Y-83814285D01*
X46751771Y-83814285D02*
X46603200Y-83665714D01*
X46603200Y-83665714D02*
X46528914Y-83442857D01*
X46528914Y-83442857D02*
X46528914Y-83294285D01*
X46528914Y-83294285D02*
X46603200Y-83071428D01*
X46603200Y-83071428D02*
X46677485Y-82997142D01*
X48088914Y-80501142D02*
X47346057Y-81021142D01*
X48088914Y-81392571D02*
X46528914Y-81392571D01*
X46528914Y-81392571D02*
X46528914Y-80798285D01*
X46528914Y-80798285D02*
X46603200Y-80649714D01*
X46603200Y-80649714D02*
X46677485Y-80575428D01*
X46677485Y-80575428D02*
X46826057Y-80501142D01*
X46826057Y-80501142D02*
X47048914Y-80501142D01*
X47048914Y-80501142D02*
X47197485Y-80575428D01*
X47197485Y-80575428D02*
X47271771Y-80649714D01*
X47271771Y-80649714D02*
X47346057Y-80798285D01*
X47346057Y-80798285D02*
X47346057Y-81392571D01*
X46528914Y-80055428D02*
X46528914Y-79164000D01*
X48088914Y-79609714D02*
X46528914Y-79609714D01*
X49130400Y-83071428D02*
X49056114Y-83220000D01*
X49056114Y-83220000D02*
X49056114Y-83442857D01*
X49056114Y-83442857D02*
X49130400Y-83665714D01*
X49130400Y-83665714D02*
X49278971Y-83814285D01*
X49278971Y-83814285D02*
X49427542Y-83888571D01*
X49427542Y-83888571D02*
X49724685Y-83962857D01*
X49724685Y-83962857D02*
X49947542Y-83962857D01*
X49947542Y-83962857D02*
X50244685Y-83888571D01*
X50244685Y-83888571D02*
X50393257Y-83814285D01*
X50393257Y-83814285D02*
X50541828Y-83665714D01*
X50541828Y-83665714D02*
X50616114Y-83442857D01*
X50616114Y-83442857D02*
X50616114Y-83294285D01*
X50616114Y-83294285D02*
X50541828Y-83071428D01*
X50541828Y-83071428D02*
X50467542Y-82997142D01*
X50467542Y-82997142D02*
X49947542Y-82997142D01*
X49947542Y-82997142D02*
X49947542Y-83294285D01*
X50616114Y-82328571D02*
X49056114Y-82328571D01*
X49056114Y-82328571D02*
X49056114Y-81734285D01*
X49056114Y-81734285D02*
X49130400Y-81585714D01*
X49130400Y-81585714D02*
X49204685Y-81511428D01*
X49204685Y-81511428D02*
X49353257Y-81437142D01*
X49353257Y-81437142D02*
X49576114Y-81437142D01*
X49576114Y-81437142D02*
X49724685Y-81511428D01*
X49724685Y-81511428D02*
X49798971Y-81585714D01*
X49798971Y-81585714D02*
X49873257Y-81734285D01*
X49873257Y-81734285D02*
X49873257Y-82328571D01*
X50616114Y-80694285D02*
X50616114Y-80397142D01*
X50616114Y-80397142D02*
X50541828Y-80248571D01*
X50541828Y-80248571D02*
X50467542Y-80174285D01*
X50467542Y-80174285D02*
X50244685Y-80025714D01*
X50244685Y-80025714D02*
X49947542Y-79951428D01*
X49947542Y-79951428D02*
X49353257Y-79951428D01*
X49353257Y-79951428D02*
X49204685Y-80025714D01*
X49204685Y-80025714D02*
X49130400Y-80100000D01*
X49130400Y-80100000D02*
X49056114Y-80248571D01*
X49056114Y-80248571D02*
X49056114Y-80545714D01*
X49056114Y-80545714D02*
X49130400Y-80694285D01*
X49130400Y-80694285D02*
X49204685Y-80768571D01*
X49204685Y-80768571D02*
X49353257Y-80842857D01*
X49353257Y-80842857D02*
X49724685Y-80842857D01*
X49724685Y-80842857D02*
X49873257Y-80768571D01*
X49873257Y-80768571D02*
X49947542Y-80694285D01*
X49947542Y-80694285D02*
X50021828Y-80545714D01*
X50021828Y-80545714D02*
X50021828Y-80248571D01*
X50021828Y-80248571D02*
X49947542Y-80100000D01*
X49947542Y-80100000D02*
X49873257Y-80025714D01*
X49873257Y-80025714D02*
X49724685Y-79951428D01*
X53069028Y-83962857D02*
X53143314Y-83740000D01*
X53143314Y-83740000D02*
X53143314Y-83368571D01*
X53143314Y-83368571D02*
X53069028Y-83220000D01*
X53069028Y-83220000D02*
X52994742Y-83145714D01*
X52994742Y-83145714D02*
X52846171Y-83071428D01*
X52846171Y-83071428D02*
X52697600Y-83071428D01*
X52697600Y-83071428D02*
X52549028Y-83145714D01*
X52549028Y-83145714D02*
X52474742Y-83220000D01*
X52474742Y-83220000D02*
X52400457Y-83368571D01*
X52400457Y-83368571D02*
X52326171Y-83665714D01*
X52326171Y-83665714D02*
X52251885Y-83814285D01*
X52251885Y-83814285D02*
X52177600Y-83888571D01*
X52177600Y-83888571D02*
X52029028Y-83962857D01*
X52029028Y-83962857D02*
X51880457Y-83962857D01*
X51880457Y-83962857D02*
X51731885Y-83888571D01*
X51731885Y-83888571D02*
X51657600Y-83814285D01*
X51657600Y-83814285D02*
X51583314Y-83665714D01*
X51583314Y-83665714D02*
X51583314Y-83294285D01*
X51583314Y-83294285D02*
X51657600Y-83071428D01*
X52326171Y-82402857D02*
X52326171Y-81882857D01*
X53143314Y-81660000D02*
X53143314Y-82402857D01*
X53143314Y-82402857D02*
X51583314Y-82402857D01*
X51583314Y-82402857D02*
X51583314Y-81660000D01*
X53143314Y-80248571D02*
X53143314Y-80991428D01*
X53143314Y-80991428D02*
X51583314Y-80991428D01*
X55670514Y-83888571D02*
X54110514Y-83888571D01*
X54853371Y-83888571D02*
X54853371Y-82997142D01*
X55670514Y-82997142D02*
X54110514Y-82997142D01*
X54110514Y-81957142D02*
X54110514Y-81659999D01*
X54110514Y-81659999D02*
X54184800Y-81511428D01*
X54184800Y-81511428D02*
X54333371Y-81362856D01*
X54333371Y-81362856D02*
X54630514Y-81288571D01*
X54630514Y-81288571D02*
X55150514Y-81288571D01*
X55150514Y-81288571D02*
X55447657Y-81362856D01*
X55447657Y-81362856D02*
X55596228Y-81511428D01*
X55596228Y-81511428D02*
X55670514Y-81659999D01*
X55670514Y-81659999D02*
X55670514Y-81957142D01*
X55670514Y-81957142D02*
X55596228Y-82105714D01*
X55596228Y-82105714D02*
X55447657Y-82254285D01*
X55447657Y-82254285D02*
X55150514Y-82328571D01*
X55150514Y-82328571D02*
X54630514Y-82328571D01*
X54630514Y-82328571D02*
X54333371Y-82254285D01*
X54333371Y-82254285D02*
X54184800Y-82105714D01*
X54184800Y-82105714D02*
X54110514Y-81957142D01*
X55670514Y-80619999D02*
X54110514Y-80619999D01*
X54110514Y-80619999D02*
X55224800Y-80099999D01*
X55224800Y-80099999D02*
X54110514Y-79579999D01*
X54110514Y-79579999D02*
X55670514Y-79579999D01*
X54853371Y-78837142D02*
X54853371Y-78317142D01*
X55670514Y-78094285D02*
X55670514Y-78837142D01*
X55670514Y-78837142D02*
X54110514Y-78837142D01*
X54110514Y-78837142D02*
X54110514Y-78094285D01*
D11*
X51195714Y-30528857D02*
X51195714Y-29328857D01*
X51195714Y-29328857D02*
X51481428Y-29328857D01*
X51481428Y-29328857D02*
X51652857Y-29386000D01*
X51652857Y-29386000D02*
X51767142Y-29500285D01*
X51767142Y-29500285D02*
X51824285Y-29614571D01*
X51824285Y-29614571D02*
X51881428Y-29843142D01*
X51881428Y-29843142D02*
X51881428Y-30014571D01*
X51881428Y-30014571D02*
X51824285Y-30243142D01*
X51824285Y-30243142D02*
X51767142Y-30357428D01*
X51767142Y-30357428D02*
X51652857Y-30471714D01*
X51652857Y-30471714D02*
X51481428Y-30528857D01*
X51481428Y-30528857D02*
X51195714Y-30528857D01*
X52281428Y-29328857D02*
X53024285Y-29328857D01*
X53024285Y-29328857D02*
X52624285Y-29786000D01*
X52624285Y-29786000D02*
X52795714Y-29786000D01*
X52795714Y-29786000D02*
X52910000Y-29843142D01*
X52910000Y-29843142D02*
X52967142Y-29900285D01*
X52967142Y-29900285D02*
X53024285Y-30014571D01*
X53024285Y-30014571D02*
X53024285Y-30300285D01*
X53024285Y-30300285D02*
X52967142Y-30414571D01*
X52967142Y-30414571D02*
X52910000Y-30471714D01*
X52910000Y-30471714D02*
X52795714Y-30528857D01*
X52795714Y-30528857D02*
X52452857Y-30528857D01*
X52452857Y-30528857D02*
X52338571Y-30471714D01*
X52338571Y-30471714D02*
X52281428Y-30414571D01*
X53367142Y-29328857D02*
X53767142Y-30528857D01*
X53767142Y-30528857D02*
X54167142Y-29328857D01*
X36384285Y-29386000D02*
X36270000Y-29328857D01*
X36270000Y-29328857D02*
X36098571Y-29328857D01*
X36098571Y-29328857D02*
X35927142Y-29386000D01*
X35927142Y-29386000D02*
X35812857Y-29500285D01*
X35812857Y-29500285D02*
X35755714Y-29614571D01*
X35755714Y-29614571D02*
X35698571Y-29843142D01*
X35698571Y-29843142D02*
X35698571Y-30014571D01*
X35698571Y-30014571D02*
X35755714Y-30243142D01*
X35755714Y-30243142D02*
X35812857Y-30357428D01*
X35812857Y-30357428D02*
X35927142Y-30471714D01*
X35927142Y-30471714D02*
X36098571Y-30528857D01*
X36098571Y-30528857D02*
X36212857Y-30528857D01*
X36212857Y-30528857D02*
X36384285Y-30471714D01*
X36384285Y-30471714D02*
X36441428Y-30414571D01*
X36441428Y-30414571D02*
X36441428Y-30014571D01*
X36441428Y-30014571D02*
X36212857Y-30014571D01*
X36955714Y-30528857D02*
X36955714Y-29328857D01*
X36955714Y-29328857D02*
X37641428Y-30528857D01*
X37641428Y-30528857D02*
X37641428Y-29328857D01*
X38212857Y-30528857D02*
X38212857Y-29328857D01*
X38212857Y-29328857D02*
X38498571Y-29328857D01*
X38498571Y-29328857D02*
X38670000Y-29386000D01*
X38670000Y-29386000D02*
X38784285Y-29500285D01*
X38784285Y-29500285D02*
X38841428Y-29614571D01*
X38841428Y-29614571D02*
X38898571Y-29843142D01*
X38898571Y-29843142D02*
X38898571Y-30014571D01*
X38898571Y-30014571D02*
X38841428Y-30243142D01*
X38841428Y-30243142D02*
X38784285Y-30357428D01*
X38784285Y-30357428D02*
X38670000Y-30471714D01*
X38670000Y-30471714D02*
X38498571Y-30528857D01*
X38498571Y-30528857D02*
X38212857Y-30528857D01*
D10*
X61494285Y-54597200D02*
X61345714Y-54522914D01*
X61345714Y-54522914D02*
X61122856Y-54522914D01*
X61122856Y-54522914D02*
X60899999Y-54597200D01*
X60899999Y-54597200D02*
X60751428Y-54745771D01*
X60751428Y-54745771D02*
X60677142Y-54894342D01*
X60677142Y-54894342D02*
X60602856Y-55191485D01*
X60602856Y-55191485D02*
X60602856Y-55414342D01*
X60602856Y-55414342D02*
X60677142Y-55711485D01*
X60677142Y-55711485D02*
X60751428Y-55860057D01*
X60751428Y-55860057D02*
X60899999Y-56008628D01*
X60899999Y-56008628D02*
X61122856Y-56082914D01*
X61122856Y-56082914D02*
X61271428Y-56082914D01*
X61271428Y-56082914D02*
X61494285Y-56008628D01*
X61494285Y-56008628D02*
X61568571Y-55934342D01*
X61568571Y-55934342D02*
X61568571Y-55414342D01*
X61568571Y-55414342D02*
X61271428Y-55414342D01*
X62237142Y-56082914D02*
X62237142Y-54522914D01*
X62237142Y-54522914D02*
X63128571Y-56082914D01*
X63128571Y-56082914D02*
X63128571Y-54522914D01*
X63871428Y-56082914D02*
X63871428Y-54522914D01*
X63871428Y-54522914D02*
X64242857Y-54522914D01*
X64242857Y-54522914D02*
X64465714Y-54597200D01*
X64465714Y-54597200D02*
X64614285Y-54745771D01*
X64614285Y-54745771D02*
X64688571Y-54894342D01*
X64688571Y-54894342D02*
X64762857Y-55191485D01*
X64762857Y-55191485D02*
X64762857Y-55414342D01*
X64762857Y-55414342D02*
X64688571Y-55711485D01*
X64688571Y-55711485D02*
X64614285Y-55860057D01*
X64614285Y-55860057D02*
X64465714Y-56008628D01*
X64465714Y-56008628D02*
X64242857Y-56082914D01*
X64242857Y-56082914D02*
X63871428Y-56082914D01*
X64762857Y-58610114D02*
X64242857Y-57867257D01*
X63871428Y-58610114D02*
X63871428Y-57050114D01*
X63871428Y-57050114D02*
X64465714Y-57050114D01*
X64465714Y-57050114D02*
X64614285Y-57124400D01*
X64614285Y-57124400D02*
X64688571Y-57198685D01*
X64688571Y-57198685D02*
X64762857Y-57347257D01*
X64762857Y-57347257D02*
X64762857Y-57570114D01*
X64762857Y-57570114D02*
X64688571Y-57718685D01*
X64688571Y-57718685D02*
X64614285Y-57792971D01*
X64614285Y-57792971D02*
X64465714Y-57867257D01*
X64465714Y-57867257D02*
X63871428Y-57867257D01*
X64391428Y-60320171D02*
X64614285Y-60394457D01*
X64614285Y-60394457D02*
X64688571Y-60468742D01*
X64688571Y-60468742D02*
X64762857Y-60617314D01*
X64762857Y-60617314D02*
X64762857Y-60840171D01*
X64762857Y-60840171D02*
X64688571Y-60988742D01*
X64688571Y-60988742D02*
X64614285Y-61063028D01*
X64614285Y-61063028D02*
X64465714Y-61137314D01*
X64465714Y-61137314D02*
X63871428Y-61137314D01*
X63871428Y-61137314D02*
X63871428Y-59577314D01*
X63871428Y-59577314D02*
X64391428Y-59577314D01*
X64391428Y-59577314D02*
X64540000Y-59651600D01*
X64540000Y-59651600D02*
X64614285Y-59725885D01*
X64614285Y-59725885D02*
X64688571Y-59874457D01*
X64688571Y-59874457D02*
X64688571Y-60023028D01*
X64688571Y-60023028D02*
X64614285Y-60171600D01*
X64614285Y-60171600D02*
X64540000Y-60245885D01*
X64540000Y-60245885D02*
X64391428Y-60320171D01*
X64391428Y-60320171D02*
X63871428Y-60320171D01*
X64391428Y-62921657D02*
X64391428Y-63664514D01*
X63871428Y-62104514D02*
X64391428Y-62921657D01*
X64391428Y-62921657D02*
X64911428Y-62104514D01*
X63797143Y-64631714D02*
X64837143Y-66191714D01*
X64837143Y-64631714D02*
X63797143Y-66191714D01*
X63425714Y-68718914D02*
X62682857Y-68718914D01*
X62682857Y-68718914D02*
X62682857Y-67158914D01*
X63871428Y-68644628D02*
X64094286Y-68718914D01*
X64094286Y-68718914D02*
X64465714Y-68718914D01*
X64465714Y-68718914D02*
X64614286Y-68644628D01*
X64614286Y-68644628D02*
X64688571Y-68570342D01*
X64688571Y-68570342D02*
X64762857Y-68421771D01*
X64762857Y-68421771D02*
X64762857Y-68273200D01*
X64762857Y-68273200D02*
X64688571Y-68124628D01*
X64688571Y-68124628D02*
X64614286Y-68050342D01*
X64614286Y-68050342D02*
X64465714Y-67976057D01*
X64465714Y-67976057D02*
X64168571Y-67901771D01*
X64168571Y-67901771D02*
X64020000Y-67827485D01*
X64020000Y-67827485D02*
X63945714Y-67753200D01*
X63945714Y-67753200D02*
X63871428Y-67604628D01*
X63871428Y-67604628D02*
X63871428Y-67456057D01*
X63871428Y-67456057D02*
X63945714Y-67307485D01*
X63945714Y-67307485D02*
X64020000Y-67233200D01*
X64020000Y-67233200D02*
X64168571Y-67158914D01*
X64168571Y-67158914D02*
X64540000Y-67158914D01*
X64540000Y-67158914D02*
X64762857Y-67233200D01*
X63797143Y-69686114D02*
X64837143Y-69686114D01*
X64837143Y-69686114D02*
X63797143Y-71246114D01*
X63797143Y-71246114D02*
X64837143Y-71246114D01*
X62162857Y-73773314D02*
X62162857Y-72213314D01*
X62162857Y-72213314D02*
X62682857Y-73327600D01*
X62682857Y-73327600D02*
X63202857Y-72213314D01*
X63202857Y-72213314D02*
X63202857Y-73773314D01*
X63871428Y-73699028D02*
X64094286Y-73773314D01*
X64094286Y-73773314D02*
X64465714Y-73773314D01*
X64465714Y-73773314D02*
X64614286Y-73699028D01*
X64614286Y-73699028D02*
X64688571Y-73624742D01*
X64688571Y-73624742D02*
X64762857Y-73476171D01*
X64762857Y-73476171D02*
X64762857Y-73327600D01*
X64762857Y-73327600D02*
X64688571Y-73179028D01*
X64688571Y-73179028D02*
X64614286Y-73104742D01*
X64614286Y-73104742D02*
X64465714Y-73030457D01*
X64465714Y-73030457D02*
X64168571Y-72956171D01*
X64168571Y-72956171D02*
X64020000Y-72881885D01*
X64020000Y-72881885D02*
X63945714Y-72807600D01*
X63945714Y-72807600D02*
X63871428Y-72659028D01*
X63871428Y-72659028D02*
X63871428Y-72510457D01*
X63871428Y-72510457D02*
X63945714Y-72361885D01*
X63945714Y-72361885D02*
X64020000Y-72287600D01*
X64020000Y-72287600D02*
X64168571Y-72213314D01*
X64168571Y-72213314D02*
X64540000Y-72213314D01*
X64540000Y-72213314D02*
X64762857Y-72287600D01*
X62237142Y-74740514D02*
X62237142Y-76003371D01*
X62237142Y-76003371D02*
X62311428Y-76151942D01*
X62311428Y-76151942D02*
X62385714Y-76226228D01*
X62385714Y-76226228D02*
X62534285Y-76300514D01*
X62534285Y-76300514D02*
X62831428Y-76300514D01*
X62831428Y-76300514D02*
X62979999Y-76226228D01*
X62979999Y-76226228D02*
X63054285Y-76151942D01*
X63054285Y-76151942D02*
X63128571Y-76003371D01*
X63128571Y-76003371D02*
X63128571Y-74740514D01*
X63871428Y-76300514D02*
X63871428Y-74740514D01*
X63871428Y-74740514D02*
X64465714Y-74740514D01*
X64465714Y-74740514D02*
X64614285Y-74814800D01*
X64614285Y-74814800D02*
X64688571Y-74889085D01*
X64688571Y-74889085D02*
X64762857Y-75037657D01*
X64762857Y-75037657D02*
X64762857Y-75260514D01*
X64762857Y-75260514D02*
X64688571Y-75409085D01*
X64688571Y-75409085D02*
X64614285Y-75483371D01*
X64614285Y-75483371D02*
X64465714Y-75557657D01*
X64465714Y-75557657D02*
X63871428Y-75557657D01*
D12*
%TO.C,R6*%
X57190428Y-56629999D02*
X56904714Y-56829999D01*
X57190428Y-56972856D02*
X56590428Y-56972856D01*
X56590428Y-56972856D02*
X56590428Y-56744285D01*
X56590428Y-56744285D02*
X56619000Y-56687142D01*
X56619000Y-56687142D02*
X56647571Y-56658571D01*
X56647571Y-56658571D02*
X56704714Y-56629999D01*
X56704714Y-56629999D02*
X56790428Y-56629999D01*
X56790428Y-56629999D02*
X56847571Y-56658571D01*
X56847571Y-56658571D02*
X56876142Y-56687142D01*
X56876142Y-56687142D02*
X56904714Y-56744285D01*
X56904714Y-56744285D02*
X56904714Y-56972856D01*
X56590428Y-56115714D02*
X56590428Y-56229999D01*
X56590428Y-56229999D02*
X56619000Y-56287142D01*
X56619000Y-56287142D02*
X56647571Y-56315714D01*
X56647571Y-56315714D02*
X56733285Y-56372856D01*
X56733285Y-56372856D02*
X56847571Y-56401428D01*
X56847571Y-56401428D02*
X57076142Y-56401428D01*
X57076142Y-56401428D02*
X57133285Y-56372856D01*
X57133285Y-56372856D02*
X57161857Y-56344285D01*
X57161857Y-56344285D02*
X57190428Y-56287142D01*
X57190428Y-56287142D02*
X57190428Y-56172856D01*
X57190428Y-56172856D02*
X57161857Y-56115714D01*
X57161857Y-56115714D02*
X57133285Y-56087142D01*
X57133285Y-56087142D02*
X57076142Y-56058571D01*
X57076142Y-56058571D02*
X56933285Y-56058571D01*
X56933285Y-56058571D02*
X56876142Y-56087142D01*
X56876142Y-56087142D02*
X56847571Y-56115714D01*
X56847571Y-56115714D02*
X56819000Y-56172856D01*
X56819000Y-56172856D02*
X56819000Y-56287142D01*
X56819000Y-56287142D02*
X56847571Y-56344285D01*
X56847571Y-56344285D02*
X56876142Y-56372856D01*
X56876142Y-56372856D02*
X56933285Y-56401428D01*
%TO.C,C7*%
X39429753Y-76839806D02*
X39458325Y-76868378D01*
X39458325Y-76868378D02*
X39486896Y-76954092D01*
X39486896Y-76954092D02*
X39486896Y-77011235D01*
X39486896Y-77011235D02*
X39458325Y-77096949D01*
X39458325Y-77096949D02*
X39401182Y-77154092D01*
X39401182Y-77154092D02*
X39344039Y-77182663D01*
X39344039Y-77182663D02*
X39229753Y-77211235D01*
X39229753Y-77211235D02*
X39144039Y-77211235D01*
X39144039Y-77211235D02*
X39029753Y-77182663D01*
X39029753Y-77182663D02*
X38972610Y-77154092D01*
X38972610Y-77154092D02*
X38915468Y-77096949D01*
X38915468Y-77096949D02*
X38886896Y-77011235D01*
X38886896Y-77011235D02*
X38886896Y-76954092D01*
X38886896Y-76954092D02*
X38915468Y-76868378D01*
X38915468Y-76868378D02*
X38944039Y-76839806D01*
X38886896Y-76639806D02*
X38886896Y-76239806D01*
X38886896Y-76239806D02*
X39486896Y-76496949D01*
%TO.C,C9*%
X50586468Y-54078092D02*
X50557896Y-54106664D01*
X50557896Y-54106664D02*
X50472182Y-54135235D01*
X50472182Y-54135235D02*
X50415039Y-54135235D01*
X50415039Y-54135235D02*
X50329325Y-54106664D01*
X50329325Y-54106664D02*
X50272182Y-54049521D01*
X50272182Y-54049521D02*
X50243611Y-53992378D01*
X50243611Y-53992378D02*
X50215039Y-53878092D01*
X50215039Y-53878092D02*
X50215039Y-53792378D01*
X50215039Y-53792378D02*
X50243611Y-53678092D01*
X50243611Y-53678092D02*
X50272182Y-53620949D01*
X50272182Y-53620949D02*
X50329325Y-53563807D01*
X50329325Y-53563807D02*
X50415039Y-53535235D01*
X50415039Y-53535235D02*
X50472182Y-53535235D01*
X50472182Y-53535235D02*
X50557896Y-53563807D01*
X50557896Y-53563807D02*
X50586468Y-53592378D01*
X50872182Y-54135235D02*
X50986468Y-54135235D01*
X50986468Y-54135235D02*
X51043611Y-54106664D01*
X51043611Y-54106664D02*
X51072182Y-54078092D01*
X51072182Y-54078092D02*
X51129325Y-53992378D01*
X51129325Y-53992378D02*
X51157896Y-53878092D01*
X51157896Y-53878092D02*
X51157896Y-53649521D01*
X51157896Y-53649521D02*
X51129325Y-53592378D01*
X51129325Y-53592378D02*
X51100754Y-53563807D01*
X51100754Y-53563807D02*
X51043611Y-53535235D01*
X51043611Y-53535235D02*
X50929325Y-53535235D01*
X50929325Y-53535235D02*
X50872182Y-53563807D01*
X50872182Y-53563807D02*
X50843611Y-53592378D01*
X50843611Y-53592378D02*
X50815039Y-53649521D01*
X50815039Y-53649521D02*
X50815039Y-53792378D01*
X50815039Y-53792378D02*
X50843611Y-53849521D01*
X50843611Y-53849521D02*
X50872182Y-53878092D01*
X50872182Y-53878092D02*
X50929325Y-53906664D01*
X50929325Y-53906664D02*
X51043611Y-53906664D01*
X51043611Y-53906664D02*
X51100754Y-53878092D01*
X51100754Y-53878092D02*
X51129325Y-53849521D01*
X51129325Y-53849521D02*
X51157896Y-53792378D01*
%TO.C,J1*%
X44566634Y-38107187D02*
X44566634Y-38821473D01*
X44566634Y-38821473D02*
X44519015Y-38964330D01*
X44519015Y-38964330D02*
X44423777Y-39059568D01*
X44423777Y-39059568D02*
X44280920Y-39107187D01*
X44280920Y-39107187D02*
X44185682Y-39107187D01*
X45566634Y-39107187D02*
X44995206Y-39107187D01*
X45280920Y-39107187D02*
X45280920Y-38107187D01*
X45280920Y-38107187D02*
X45185682Y-38250045D01*
X45185682Y-38250045D02*
X45090444Y-38345283D01*
X45090444Y-38345283D02*
X44995206Y-38392902D01*
%TO.C,R11*%
X44056896Y-69675521D02*
X43771182Y-69875521D01*
X44056896Y-70018378D02*
X43456896Y-70018378D01*
X43456896Y-70018378D02*
X43456896Y-69789807D01*
X43456896Y-69789807D02*
X43485468Y-69732664D01*
X43485468Y-69732664D02*
X43514039Y-69704093D01*
X43514039Y-69704093D02*
X43571182Y-69675521D01*
X43571182Y-69675521D02*
X43656896Y-69675521D01*
X43656896Y-69675521D02*
X43714039Y-69704093D01*
X43714039Y-69704093D02*
X43742610Y-69732664D01*
X43742610Y-69732664D02*
X43771182Y-69789807D01*
X43771182Y-69789807D02*
X43771182Y-70018378D01*
X44056896Y-69104093D02*
X44056896Y-69446950D01*
X44056896Y-69275521D02*
X43456896Y-69275521D01*
X43456896Y-69275521D02*
X43542610Y-69332664D01*
X43542610Y-69332664D02*
X43599753Y-69389807D01*
X43599753Y-69389807D02*
X43628325Y-69446950D01*
X44056896Y-68532664D02*
X44056896Y-68875521D01*
X44056896Y-68704092D02*
X43456896Y-68704092D01*
X43456896Y-68704092D02*
X43542610Y-68761235D01*
X43542610Y-68761235D02*
X43599753Y-68818378D01*
X43599753Y-68818378D02*
X43628325Y-68875521D01*
%TO.C,C6*%
X47539753Y-69389806D02*
X47568325Y-69418378D01*
X47568325Y-69418378D02*
X47596896Y-69504092D01*
X47596896Y-69504092D02*
X47596896Y-69561235D01*
X47596896Y-69561235D02*
X47568325Y-69646949D01*
X47568325Y-69646949D02*
X47511182Y-69704092D01*
X47511182Y-69704092D02*
X47454039Y-69732663D01*
X47454039Y-69732663D02*
X47339753Y-69761235D01*
X47339753Y-69761235D02*
X47254039Y-69761235D01*
X47254039Y-69761235D02*
X47139753Y-69732663D01*
X47139753Y-69732663D02*
X47082610Y-69704092D01*
X47082610Y-69704092D02*
X47025468Y-69646949D01*
X47025468Y-69646949D02*
X46996896Y-69561235D01*
X46996896Y-69561235D02*
X46996896Y-69504092D01*
X46996896Y-69504092D02*
X47025468Y-69418378D01*
X47025468Y-69418378D02*
X47054039Y-69389806D01*
X46996896Y-68875521D02*
X46996896Y-68989806D01*
X46996896Y-68989806D02*
X47025468Y-69046949D01*
X47025468Y-69046949D02*
X47054039Y-69075521D01*
X47054039Y-69075521D02*
X47139753Y-69132663D01*
X47139753Y-69132663D02*
X47254039Y-69161235D01*
X47254039Y-69161235D02*
X47482610Y-69161235D01*
X47482610Y-69161235D02*
X47539753Y-69132663D01*
X47539753Y-69132663D02*
X47568325Y-69104092D01*
X47568325Y-69104092D02*
X47596896Y-69046949D01*
X47596896Y-69046949D02*
X47596896Y-68932663D01*
X47596896Y-68932663D02*
X47568325Y-68875521D01*
X47568325Y-68875521D02*
X47539753Y-68846949D01*
X47539753Y-68846949D02*
X47482610Y-68818378D01*
X47482610Y-68818378D02*
X47339753Y-68818378D01*
X47339753Y-68818378D02*
X47282610Y-68846949D01*
X47282610Y-68846949D02*
X47254039Y-68875521D01*
X47254039Y-68875521D02*
X47225468Y-68932663D01*
X47225468Y-68932663D02*
X47225468Y-69046949D01*
X47225468Y-69046949D02*
X47254039Y-69104092D01*
X47254039Y-69104092D02*
X47282610Y-69132663D01*
X47282610Y-69132663D02*
X47339753Y-69161235D01*
%TO.C,D2*%
X53910807Y-46406574D02*
X53310807Y-46406574D01*
X53310807Y-46406574D02*
X53310807Y-46263717D01*
X53310807Y-46263717D02*
X53339379Y-46178003D01*
X53339379Y-46178003D02*
X53396521Y-46120860D01*
X53396521Y-46120860D02*
X53453664Y-46092289D01*
X53453664Y-46092289D02*
X53567950Y-46063717D01*
X53567950Y-46063717D02*
X53653664Y-46063717D01*
X53653664Y-46063717D02*
X53767950Y-46092289D01*
X53767950Y-46092289D02*
X53825093Y-46120860D01*
X53825093Y-46120860D02*
X53882236Y-46178003D01*
X53882236Y-46178003D02*
X53910807Y-46263717D01*
X53910807Y-46263717D02*
X53910807Y-46406574D01*
X53367950Y-45835146D02*
X53339379Y-45806574D01*
X53339379Y-45806574D02*
X53310807Y-45749432D01*
X53310807Y-45749432D02*
X53310807Y-45606574D01*
X53310807Y-45606574D02*
X53339379Y-45549432D01*
X53339379Y-45549432D02*
X53367950Y-45520860D01*
X53367950Y-45520860D02*
X53425093Y-45492289D01*
X53425093Y-45492289D02*
X53482236Y-45492289D01*
X53482236Y-45492289D02*
X53567950Y-45520860D01*
X53567950Y-45520860D02*
X53910807Y-45863717D01*
X53910807Y-45863717D02*
X53910807Y-45492289D01*
%TO.C,C16*%
X52950753Y-58573092D02*
X52922181Y-58601664D01*
X52922181Y-58601664D02*
X52836467Y-58630235D01*
X52836467Y-58630235D02*
X52779324Y-58630235D01*
X52779324Y-58630235D02*
X52693610Y-58601664D01*
X52693610Y-58601664D02*
X52636467Y-58544521D01*
X52636467Y-58544521D02*
X52607896Y-58487378D01*
X52607896Y-58487378D02*
X52579324Y-58373092D01*
X52579324Y-58373092D02*
X52579324Y-58287378D01*
X52579324Y-58287378D02*
X52607896Y-58173092D01*
X52607896Y-58173092D02*
X52636467Y-58115949D01*
X52636467Y-58115949D02*
X52693610Y-58058807D01*
X52693610Y-58058807D02*
X52779324Y-58030235D01*
X52779324Y-58030235D02*
X52836467Y-58030235D01*
X52836467Y-58030235D02*
X52922181Y-58058807D01*
X52922181Y-58058807D02*
X52950753Y-58087378D01*
X53522181Y-58630235D02*
X53179324Y-58630235D01*
X53350753Y-58630235D02*
X53350753Y-58030235D01*
X53350753Y-58030235D02*
X53293610Y-58115949D01*
X53293610Y-58115949D02*
X53236467Y-58173092D01*
X53236467Y-58173092D02*
X53179324Y-58201664D01*
X54036468Y-58030235D02*
X53922182Y-58030235D01*
X53922182Y-58030235D02*
X53865039Y-58058807D01*
X53865039Y-58058807D02*
X53836468Y-58087378D01*
X53836468Y-58087378D02*
X53779325Y-58173092D01*
X53779325Y-58173092D02*
X53750753Y-58287378D01*
X53750753Y-58287378D02*
X53750753Y-58515949D01*
X53750753Y-58515949D02*
X53779325Y-58573092D01*
X53779325Y-58573092D02*
X53807896Y-58601664D01*
X53807896Y-58601664D02*
X53865039Y-58630235D01*
X53865039Y-58630235D02*
X53979325Y-58630235D01*
X53979325Y-58630235D02*
X54036468Y-58601664D01*
X54036468Y-58601664D02*
X54065039Y-58573092D01*
X54065039Y-58573092D02*
X54093610Y-58515949D01*
X54093610Y-58515949D02*
X54093610Y-58373092D01*
X54093610Y-58373092D02*
X54065039Y-58315949D01*
X54065039Y-58315949D02*
X54036468Y-58287378D01*
X54036468Y-58287378D02*
X53979325Y-58258807D01*
X53979325Y-58258807D02*
X53865039Y-58258807D01*
X53865039Y-58258807D02*
X53807896Y-58287378D01*
X53807896Y-58287378D02*
X53779325Y-58315949D01*
X53779325Y-58315949D02*
X53750753Y-58373092D01*
%TO.C,C3*%
X36145000Y-44053285D02*
X36116428Y-44081857D01*
X36116428Y-44081857D02*
X36030714Y-44110428D01*
X36030714Y-44110428D02*
X35973571Y-44110428D01*
X35973571Y-44110428D02*
X35887857Y-44081857D01*
X35887857Y-44081857D02*
X35830714Y-44024714D01*
X35830714Y-44024714D02*
X35802143Y-43967571D01*
X35802143Y-43967571D02*
X35773571Y-43853285D01*
X35773571Y-43853285D02*
X35773571Y-43767571D01*
X35773571Y-43767571D02*
X35802143Y-43653285D01*
X35802143Y-43653285D02*
X35830714Y-43596142D01*
X35830714Y-43596142D02*
X35887857Y-43539000D01*
X35887857Y-43539000D02*
X35973571Y-43510428D01*
X35973571Y-43510428D02*
X36030714Y-43510428D01*
X36030714Y-43510428D02*
X36116428Y-43539000D01*
X36116428Y-43539000D02*
X36145000Y-43567571D01*
X36345000Y-43510428D02*
X36716428Y-43510428D01*
X36716428Y-43510428D02*
X36516428Y-43739000D01*
X36516428Y-43739000D02*
X36602143Y-43739000D01*
X36602143Y-43739000D02*
X36659286Y-43767571D01*
X36659286Y-43767571D02*
X36687857Y-43796142D01*
X36687857Y-43796142D02*
X36716428Y-43853285D01*
X36716428Y-43853285D02*
X36716428Y-43996142D01*
X36716428Y-43996142D02*
X36687857Y-44053285D01*
X36687857Y-44053285D02*
X36659286Y-44081857D01*
X36659286Y-44081857D02*
X36602143Y-44110428D01*
X36602143Y-44110428D02*
X36430714Y-44110428D01*
X36430714Y-44110428D02*
X36373571Y-44081857D01*
X36373571Y-44081857D02*
X36345000Y-44053285D01*
%TO.C,R8*%
X44486896Y-51729806D02*
X44201182Y-51929806D01*
X44486896Y-52072663D02*
X43886896Y-52072663D01*
X43886896Y-52072663D02*
X43886896Y-51844092D01*
X43886896Y-51844092D02*
X43915468Y-51786949D01*
X43915468Y-51786949D02*
X43944039Y-51758378D01*
X43944039Y-51758378D02*
X44001182Y-51729806D01*
X44001182Y-51729806D02*
X44086896Y-51729806D01*
X44086896Y-51729806D02*
X44144039Y-51758378D01*
X44144039Y-51758378D02*
X44172610Y-51786949D01*
X44172610Y-51786949D02*
X44201182Y-51844092D01*
X44201182Y-51844092D02*
X44201182Y-52072663D01*
X44144039Y-51386949D02*
X44115468Y-51444092D01*
X44115468Y-51444092D02*
X44086896Y-51472663D01*
X44086896Y-51472663D02*
X44029753Y-51501235D01*
X44029753Y-51501235D02*
X44001182Y-51501235D01*
X44001182Y-51501235D02*
X43944039Y-51472663D01*
X43944039Y-51472663D02*
X43915468Y-51444092D01*
X43915468Y-51444092D02*
X43886896Y-51386949D01*
X43886896Y-51386949D02*
X43886896Y-51272663D01*
X43886896Y-51272663D02*
X43915468Y-51215521D01*
X43915468Y-51215521D02*
X43944039Y-51186949D01*
X43944039Y-51186949D02*
X44001182Y-51158378D01*
X44001182Y-51158378D02*
X44029753Y-51158378D01*
X44029753Y-51158378D02*
X44086896Y-51186949D01*
X44086896Y-51186949D02*
X44115468Y-51215521D01*
X44115468Y-51215521D02*
X44144039Y-51272663D01*
X44144039Y-51272663D02*
X44144039Y-51386949D01*
X44144039Y-51386949D02*
X44172610Y-51444092D01*
X44172610Y-51444092D02*
X44201182Y-51472663D01*
X44201182Y-51472663D02*
X44258325Y-51501235D01*
X44258325Y-51501235D02*
X44372610Y-51501235D01*
X44372610Y-51501235D02*
X44429753Y-51472663D01*
X44429753Y-51472663D02*
X44458325Y-51444092D01*
X44458325Y-51444092D02*
X44486896Y-51386949D01*
X44486896Y-51386949D02*
X44486896Y-51272663D01*
X44486896Y-51272663D02*
X44458325Y-51215521D01*
X44458325Y-51215521D02*
X44429753Y-51186949D01*
X44429753Y-51186949D02*
X44372610Y-51158378D01*
X44372610Y-51158378D02*
X44258325Y-51158378D01*
X44258325Y-51158378D02*
X44201182Y-51186949D01*
X44201182Y-51186949D02*
X44172610Y-51215521D01*
X44172610Y-51215521D02*
X44144039Y-51272663D01*
%TO.C,U1*%
X49419486Y-51067896D02*
X49419486Y-51553610D01*
X49419486Y-51553610D02*
X49448057Y-51610753D01*
X49448057Y-51610753D02*
X49476629Y-51639325D01*
X49476629Y-51639325D02*
X49533771Y-51667896D01*
X49533771Y-51667896D02*
X49648057Y-51667896D01*
X49648057Y-51667896D02*
X49705200Y-51639325D01*
X49705200Y-51639325D02*
X49733771Y-51610753D01*
X49733771Y-51610753D02*
X49762343Y-51553610D01*
X49762343Y-51553610D02*
X49762343Y-51067896D01*
X50362342Y-51667896D02*
X50019485Y-51667896D01*
X50190914Y-51667896D02*
X50190914Y-51067896D01*
X50190914Y-51067896D02*
X50133771Y-51153610D01*
X50133771Y-51153610D02*
X50076628Y-51210753D01*
X50076628Y-51210753D02*
X50019485Y-51239325D01*
%TO.C,Y1*%
X42404753Y-76913771D02*
X42404753Y-77199485D01*
X42204753Y-76599485D02*
X42404753Y-76913771D01*
X42404753Y-76913771D02*
X42604753Y-76599485D01*
X43119039Y-77199485D02*
X42776182Y-77199485D01*
X42947611Y-77199485D02*
X42947611Y-76599485D01*
X42947611Y-76599485D02*
X42890468Y-76685199D01*
X42890468Y-76685199D02*
X42833325Y-76742342D01*
X42833325Y-76742342D02*
X42776182Y-76770914D01*
%TO.C,SW1*%
X27656107Y-36143956D02*
X27694202Y-36029670D01*
X27694202Y-36029670D02*
X27732297Y-35991575D01*
X27732297Y-35991575D02*
X27808488Y-35953479D01*
X27808488Y-35953479D02*
X27922773Y-35953479D01*
X27922773Y-35953479D02*
X27998964Y-35991575D01*
X27998964Y-35991575D02*
X28037059Y-36029670D01*
X28037059Y-36029670D02*
X28075154Y-36105860D01*
X28075154Y-36105860D02*
X28075154Y-36410622D01*
X28075154Y-36410622D02*
X27275154Y-36410622D01*
X27275154Y-36410622D02*
X27275154Y-36143956D01*
X27275154Y-36143956D02*
X27313250Y-36067765D01*
X27313250Y-36067765D02*
X27351345Y-36029670D01*
X27351345Y-36029670D02*
X27427535Y-35991575D01*
X27427535Y-35991575D02*
X27503726Y-35991575D01*
X27503726Y-35991575D02*
X27579916Y-36029670D01*
X27579916Y-36029670D02*
X27618011Y-36067765D01*
X27618011Y-36067765D02*
X27656107Y-36143956D01*
X27656107Y-36143956D02*
X27656107Y-36410622D01*
X28075154Y-35496337D02*
X28037059Y-35572527D01*
X28037059Y-35572527D02*
X27998964Y-35610622D01*
X27998964Y-35610622D02*
X27922773Y-35648718D01*
X27922773Y-35648718D02*
X27694202Y-35648718D01*
X27694202Y-35648718D02*
X27618011Y-35610622D01*
X27618011Y-35610622D02*
X27579916Y-35572527D01*
X27579916Y-35572527D02*
X27541821Y-35496337D01*
X27541821Y-35496337D02*
X27541821Y-35382051D01*
X27541821Y-35382051D02*
X27579916Y-35305860D01*
X27579916Y-35305860D02*
X27618011Y-35267765D01*
X27618011Y-35267765D02*
X27694202Y-35229670D01*
X27694202Y-35229670D02*
X27922773Y-35229670D01*
X27922773Y-35229670D02*
X27998964Y-35267765D01*
X27998964Y-35267765D02*
X28037059Y-35305860D01*
X28037059Y-35305860D02*
X28075154Y-35382051D01*
X28075154Y-35382051D02*
X28075154Y-35496337D01*
X28075154Y-34772527D02*
X28037059Y-34848717D01*
X28037059Y-34848717D02*
X27998964Y-34886812D01*
X27998964Y-34886812D02*
X27922773Y-34924908D01*
X27922773Y-34924908D02*
X27694202Y-34924908D01*
X27694202Y-34924908D02*
X27618011Y-34886812D01*
X27618011Y-34886812D02*
X27579916Y-34848717D01*
X27579916Y-34848717D02*
X27541821Y-34772527D01*
X27541821Y-34772527D02*
X27541821Y-34658241D01*
X27541821Y-34658241D02*
X27579916Y-34582050D01*
X27579916Y-34582050D02*
X27618011Y-34543955D01*
X27618011Y-34543955D02*
X27694202Y-34505860D01*
X27694202Y-34505860D02*
X27922773Y-34505860D01*
X27922773Y-34505860D02*
X27998964Y-34543955D01*
X27998964Y-34543955D02*
X28037059Y-34582050D01*
X28037059Y-34582050D02*
X28075154Y-34658241D01*
X28075154Y-34658241D02*
X28075154Y-34772527D01*
X27541821Y-34277288D02*
X27541821Y-33972526D01*
X27275154Y-34163002D02*
X27960869Y-34163002D01*
X27960869Y-34163002D02*
X28037059Y-34124907D01*
X28037059Y-34124907D02*
X28075154Y-34048717D01*
X28075154Y-34048717D02*
X28075154Y-33972526D01*
%TO.C,C8*%
X46119753Y-76829806D02*
X46148325Y-76858378D01*
X46148325Y-76858378D02*
X46176896Y-76944092D01*
X46176896Y-76944092D02*
X46176896Y-77001235D01*
X46176896Y-77001235D02*
X46148325Y-77086949D01*
X46148325Y-77086949D02*
X46091182Y-77144092D01*
X46091182Y-77144092D02*
X46034039Y-77172663D01*
X46034039Y-77172663D02*
X45919753Y-77201235D01*
X45919753Y-77201235D02*
X45834039Y-77201235D01*
X45834039Y-77201235D02*
X45719753Y-77172663D01*
X45719753Y-77172663D02*
X45662610Y-77144092D01*
X45662610Y-77144092D02*
X45605468Y-77086949D01*
X45605468Y-77086949D02*
X45576896Y-77001235D01*
X45576896Y-77001235D02*
X45576896Y-76944092D01*
X45576896Y-76944092D02*
X45605468Y-76858378D01*
X45605468Y-76858378D02*
X45634039Y-76829806D01*
X45834039Y-76486949D02*
X45805468Y-76544092D01*
X45805468Y-76544092D02*
X45776896Y-76572663D01*
X45776896Y-76572663D02*
X45719753Y-76601235D01*
X45719753Y-76601235D02*
X45691182Y-76601235D01*
X45691182Y-76601235D02*
X45634039Y-76572663D01*
X45634039Y-76572663D02*
X45605468Y-76544092D01*
X45605468Y-76544092D02*
X45576896Y-76486949D01*
X45576896Y-76486949D02*
X45576896Y-76372663D01*
X45576896Y-76372663D02*
X45605468Y-76315521D01*
X45605468Y-76315521D02*
X45634039Y-76286949D01*
X45634039Y-76286949D02*
X45691182Y-76258378D01*
X45691182Y-76258378D02*
X45719753Y-76258378D01*
X45719753Y-76258378D02*
X45776896Y-76286949D01*
X45776896Y-76286949D02*
X45805468Y-76315521D01*
X45805468Y-76315521D02*
X45834039Y-76372663D01*
X45834039Y-76372663D02*
X45834039Y-76486949D01*
X45834039Y-76486949D02*
X45862610Y-76544092D01*
X45862610Y-76544092D02*
X45891182Y-76572663D01*
X45891182Y-76572663D02*
X45948325Y-76601235D01*
X45948325Y-76601235D02*
X46062610Y-76601235D01*
X46062610Y-76601235D02*
X46119753Y-76572663D01*
X46119753Y-76572663D02*
X46148325Y-76544092D01*
X46148325Y-76544092D02*
X46176896Y-76486949D01*
X46176896Y-76486949D02*
X46176896Y-76372663D01*
X46176896Y-76372663D02*
X46148325Y-76315521D01*
X46148325Y-76315521D02*
X46119753Y-76286949D01*
X46119753Y-76286949D02*
X46062610Y-76258378D01*
X46062610Y-76258378D02*
X45948325Y-76258378D01*
X45948325Y-76258378D02*
X45891182Y-76286949D01*
X45891182Y-76286949D02*
X45862610Y-76315521D01*
X45862610Y-76315521D02*
X45834039Y-76372663D01*
%TO.C,C14*%
X46039753Y-69389807D02*
X46068325Y-69418379D01*
X46068325Y-69418379D02*
X46096896Y-69504093D01*
X46096896Y-69504093D02*
X46096896Y-69561236D01*
X46096896Y-69561236D02*
X46068325Y-69646950D01*
X46068325Y-69646950D02*
X46011182Y-69704093D01*
X46011182Y-69704093D02*
X45954039Y-69732664D01*
X45954039Y-69732664D02*
X45839753Y-69761236D01*
X45839753Y-69761236D02*
X45754039Y-69761236D01*
X45754039Y-69761236D02*
X45639753Y-69732664D01*
X45639753Y-69732664D02*
X45582610Y-69704093D01*
X45582610Y-69704093D02*
X45525468Y-69646950D01*
X45525468Y-69646950D02*
X45496896Y-69561236D01*
X45496896Y-69561236D02*
X45496896Y-69504093D01*
X45496896Y-69504093D02*
X45525468Y-69418379D01*
X45525468Y-69418379D02*
X45554039Y-69389807D01*
X46096896Y-68818379D02*
X46096896Y-69161236D01*
X46096896Y-68989807D02*
X45496896Y-68989807D01*
X45496896Y-68989807D02*
X45582610Y-69046950D01*
X45582610Y-69046950D02*
X45639753Y-69104093D01*
X45639753Y-69104093D02*
X45668325Y-69161236D01*
X45696896Y-68304093D02*
X46096896Y-68304093D01*
X45468325Y-68446950D02*
X45896896Y-68589807D01*
X45896896Y-68589807D02*
X45896896Y-68218378D01*
%TO.C,R10*%
X26003180Y-43312418D02*
X25717466Y-43512418D01*
X26003180Y-43655275D02*
X25403180Y-43655275D01*
X25403180Y-43655275D02*
X25403180Y-43426704D01*
X25403180Y-43426704D02*
X25431752Y-43369561D01*
X25431752Y-43369561D02*
X25460323Y-43340990D01*
X25460323Y-43340990D02*
X25517466Y-43312418D01*
X25517466Y-43312418D02*
X25603180Y-43312418D01*
X25603180Y-43312418D02*
X25660323Y-43340990D01*
X25660323Y-43340990D02*
X25688894Y-43369561D01*
X25688894Y-43369561D02*
X25717466Y-43426704D01*
X25717466Y-43426704D02*
X25717466Y-43655275D01*
X26003180Y-42740990D02*
X26003180Y-43083847D01*
X26003180Y-42912418D02*
X25403180Y-42912418D01*
X25403180Y-42912418D02*
X25488894Y-42969561D01*
X25488894Y-42969561D02*
X25546037Y-43026704D01*
X25546037Y-43026704D02*
X25574609Y-43083847D01*
X25403180Y-42369561D02*
X25403180Y-42312418D01*
X25403180Y-42312418D02*
X25431752Y-42255275D01*
X25431752Y-42255275D02*
X25460323Y-42226704D01*
X25460323Y-42226704D02*
X25517466Y-42198132D01*
X25517466Y-42198132D02*
X25631752Y-42169561D01*
X25631752Y-42169561D02*
X25774609Y-42169561D01*
X25774609Y-42169561D02*
X25888894Y-42198132D01*
X25888894Y-42198132D02*
X25946037Y-42226704D01*
X25946037Y-42226704D02*
X25974609Y-42255275D01*
X25974609Y-42255275D02*
X26003180Y-42312418D01*
X26003180Y-42312418D02*
X26003180Y-42369561D01*
X26003180Y-42369561D02*
X25974609Y-42426704D01*
X25974609Y-42426704D02*
X25946037Y-42455275D01*
X25946037Y-42455275D02*
X25888894Y-42483846D01*
X25888894Y-42483846D02*
X25774609Y-42512418D01*
X25774609Y-42512418D02*
X25631752Y-42512418D01*
X25631752Y-42512418D02*
X25517466Y-42483846D01*
X25517466Y-42483846D02*
X25460323Y-42455275D01*
X25460323Y-42455275D02*
X25431752Y-42426704D01*
X25431752Y-42426704D02*
X25403180Y-42369561D01*
%TO.C,U3*%
X44214563Y-57932187D02*
X44214563Y-58741711D01*
X44214563Y-58741711D02*
X44262182Y-58836949D01*
X44262182Y-58836949D02*
X44309801Y-58884568D01*
X44309801Y-58884568D02*
X44405039Y-58932187D01*
X44405039Y-58932187D02*
X44595515Y-58932187D01*
X44595515Y-58932187D02*
X44690753Y-58884568D01*
X44690753Y-58884568D02*
X44738372Y-58836949D01*
X44738372Y-58836949D02*
X44785991Y-58741711D01*
X44785991Y-58741711D02*
X44785991Y-57932187D01*
X45166944Y-57932187D02*
X45785991Y-57932187D01*
X45785991Y-57932187D02*
X45452658Y-58313140D01*
X45452658Y-58313140D02*
X45595515Y-58313140D01*
X45595515Y-58313140D02*
X45690753Y-58360759D01*
X45690753Y-58360759D02*
X45738372Y-58408378D01*
X45738372Y-58408378D02*
X45785991Y-58503616D01*
X45785991Y-58503616D02*
X45785991Y-58741711D01*
X45785991Y-58741711D02*
X45738372Y-58836949D01*
X45738372Y-58836949D02*
X45690753Y-58884568D01*
X45690753Y-58884568D02*
X45595515Y-58932187D01*
X45595515Y-58932187D02*
X45309801Y-58932187D01*
X45309801Y-58932187D02*
X45214563Y-58884568D01*
X45214563Y-58884568D02*
X45166944Y-58836949D01*
%TO.C,D3*%
X56911111Y-63860235D02*
X56911111Y-63260235D01*
X56911111Y-63260235D02*
X57053968Y-63260235D01*
X57053968Y-63260235D02*
X57139682Y-63288807D01*
X57139682Y-63288807D02*
X57196825Y-63345949D01*
X57196825Y-63345949D02*
X57225396Y-63403092D01*
X57225396Y-63403092D02*
X57253968Y-63517378D01*
X57253968Y-63517378D02*
X57253968Y-63603092D01*
X57253968Y-63603092D02*
X57225396Y-63717378D01*
X57225396Y-63717378D02*
X57196825Y-63774521D01*
X57196825Y-63774521D02*
X57139682Y-63831664D01*
X57139682Y-63831664D02*
X57053968Y-63860235D01*
X57053968Y-63860235D02*
X56911111Y-63860235D01*
X57453968Y-63260235D02*
X57825396Y-63260235D01*
X57825396Y-63260235D02*
X57625396Y-63488807D01*
X57625396Y-63488807D02*
X57711111Y-63488807D01*
X57711111Y-63488807D02*
X57768254Y-63517378D01*
X57768254Y-63517378D02*
X57796825Y-63545949D01*
X57796825Y-63545949D02*
X57825396Y-63603092D01*
X57825396Y-63603092D02*
X57825396Y-63745949D01*
X57825396Y-63745949D02*
X57796825Y-63803092D01*
X57796825Y-63803092D02*
X57768254Y-63831664D01*
X57768254Y-63831664D02*
X57711111Y-63860235D01*
X57711111Y-63860235D02*
X57539682Y-63860235D01*
X57539682Y-63860235D02*
X57482539Y-63831664D01*
X57482539Y-63831664D02*
X57453968Y-63803092D01*
X56353968Y-59988807D02*
X56296826Y-59960235D01*
X56296826Y-59960235D02*
X56211111Y-59960235D01*
X56211111Y-59960235D02*
X56125397Y-59988807D01*
X56125397Y-59988807D02*
X56068254Y-60045949D01*
X56068254Y-60045949D02*
X56039683Y-60103092D01*
X56039683Y-60103092D02*
X56011111Y-60217378D01*
X56011111Y-60217378D02*
X56011111Y-60303092D01*
X56011111Y-60303092D02*
X56039683Y-60417378D01*
X56039683Y-60417378D02*
X56068254Y-60474521D01*
X56068254Y-60474521D02*
X56125397Y-60531664D01*
X56125397Y-60531664D02*
X56211111Y-60560235D01*
X56211111Y-60560235D02*
X56268254Y-60560235D01*
X56268254Y-60560235D02*
X56353968Y-60531664D01*
X56353968Y-60531664D02*
X56382540Y-60503092D01*
X56382540Y-60503092D02*
X56382540Y-60303092D01*
X56382540Y-60303092D02*
X56268254Y-60303092D01*
X56982540Y-60560235D02*
X56782540Y-60274521D01*
X56639683Y-60560235D02*
X56639683Y-59960235D01*
X56639683Y-59960235D02*
X56868254Y-59960235D01*
X56868254Y-59960235D02*
X56925397Y-59988807D01*
X56925397Y-59988807D02*
X56953968Y-60017378D01*
X56953968Y-60017378D02*
X56982540Y-60074521D01*
X56982540Y-60074521D02*
X56982540Y-60160235D01*
X56982540Y-60160235D02*
X56953968Y-60217378D01*
X56953968Y-60217378D02*
X56925397Y-60245949D01*
X56925397Y-60245949D02*
X56868254Y-60274521D01*
X56868254Y-60274521D02*
X56639683Y-60274521D01*
X57239683Y-60245949D02*
X57439683Y-60245949D01*
X57525397Y-60560235D02*
X57239683Y-60560235D01*
X57239683Y-60560235D02*
X57239683Y-59960235D01*
X57239683Y-59960235D02*
X57525397Y-59960235D01*
X57782540Y-60245949D02*
X57982540Y-60245949D01*
X58068254Y-60560235D02*
X57782540Y-60560235D01*
X57782540Y-60560235D02*
X57782540Y-59960235D01*
X57782540Y-59960235D02*
X58068254Y-59960235D01*
X58325397Y-60560235D02*
X58325397Y-59960235D01*
X58325397Y-59960235D02*
X58668254Y-60560235D01*
X58668254Y-60560235D02*
X58668254Y-59960235D01*
%TO.C,U2*%
X42446896Y-44806949D02*
X42932610Y-44806949D01*
X42932610Y-44806949D02*
X42989753Y-44778378D01*
X42989753Y-44778378D02*
X43018325Y-44749807D01*
X43018325Y-44749807D02*
X43046896Y-44692664D01*
X43046896Y-44692664D02*
X43046896Y-44578378D01*
X43046896Y-44578378D02*
X43018325Y-44521235D01*
X43018325Y-44521235D02*
X42989753Y-44492664D01*
X42989753Y-44492664D02*
X42932610Y-44464092D01*
X42932610Y-44464092D02*
X42446896Y-44464092D01*
X42504039Y-44206950D02*
X42475468Y-44178378D01*
X42475468Y-44178378D02*
X42446896Y-44121236D01*
X42446896Y-44121236D02*
X42446896Y-43978378D01*
X42446896Y-43978378D02*
X42475468Y-43921236D01*
X42475468Y-43921236D02*
X42504039Y-43892664D01*
X42504039Y-43892664D02*
X42561182Y-43864093D01*
X42561182Y-43864093D02*
X42618325Y-43864093D01*
X42618325Y-43864093D02*
X42704039Y-43892664D01*
X42704039Y-43892664D02*
X43046896Y-44235521D01*
X43046896Y-44235521D02*
X43046896Y-43864093D01*
%TO.C,R7*%
X50796468Y-69710235D02*
X50596468Y-69424521D01*
X50453611Y-69710235D02*
X50453611Y-69110235D01*
X50453611Y-69110235D02*
X50682182Y-69110235D01*
X50682182Y-69110235D02*
X50739325Y-69138807D01*
X50739325Y-69138807D02*
X50767896Y-69167378D01*
X50767896Y-69167378D02*
X50796468Y-69224521D01*
X50796468Y-69224521D02*
X50796468Y-69310235D01*
X50796468Y-69310235D02*
X50767896Y-69367378D01*
X50767896Y-69367378D02*
X50739325Y-69395949D01*
X50739325Y-69395949D02*
X50682182Y-69424521D01*
X50682182Y-69424521D02*
X50453611Y-69424521D01*
X50996468Y-69110235D02*
X51396468Y-69110235D01*
X51396468Y-69110235D02*
X51139325Y-69710235D01*
%TO.C,C4*%
X47909753Y-55569806D02*
X47938325Y-55598378D01*
X47938325Y-55598378D02*
X47966896Y-55684092D01*
X47966896Y-55684092D02*
X47966896Y-55741235D01*
X47966896Y-55741235D02*
X47938325Y-55826949D01*
X47938325Y-55826949D02*
X47881182Y-55884092D01*
X47881182Y-55884092D02*
X47824039Y-55912663D01*
X47824039Y-55912663D02*
X47709753Y-55941235D01*
X47709753Y-55941235D02*
X47624039Y-55941235D01*
X47624039Y-55941235D02*
X47509753Y-55912663D01*
X47509753Y-55912663D02*
X47452610Y-55884092D01*
X47452610Y-55884092D02*
X47395468Y-55826949D01*
X47395468Y-55826949D02*
X47366896Y-55741235D01*
X47366896Y-55741235D02*
X47366896Y-55684092D01*
X47366896Y-55684092D02*
X47395468Y-55598378D01*
X47395468Y-55598378D02*
X47424039Y-55569806D01*
X47566896Y-55055521D02*
X47966896Y-55055521D01*
X47338325Y-55198378D02*
X47766896Y-55341235D01*
X47766896Y-55341235D02*
X47766896Y-54969806D01*
%TO.C,C10*%
X45139753Y-54175521D02*
X45168325Y-54204093D01*
X45168325Y-54204093D02*
X45196896Y-54289807D01*
X45196896Y-54289807D02*
X45196896Y-54346950D01*
X45196896Y-54346950D02*
X45168325Y-54432664D01*
X45168325Y-54432664D02*
X45111182Y-54489807D01*
X45111182Y-54489807D02*
X45054039Y-54518378D01*
X45054039Y-54518378D02*
X44939753Y-54546950D01*
X44939753Y-54546950D02*
X44854039Y-54546950D01*
X44854039Y-54546950D02*
X44739753Y-54518378D01*
X44739753Y-54518378D02*
X44682610Y-54489807D01*
X44682610Y-54489807D02*
X44625468Y-54432664D01*
X44625468Y-54432664D02*
X44596896Y-54346950D01*
X44596896Y-54346950D02*
X44596896Y-54289807D01*
X44596896Y-54289807D02*
X44625468Y-54204093D01*
X44625468Y-54204093D02*
X44654039Y-54175521D01*
X45196896Y-53604093D02*
X45196896Y-53946950D01*
X45196896Y-53775521D02*
X44596896Y-53775521D01*
X44596896Y-53775521D02*
X44682610Y-53832664D01*
X44682610Y-53832664D02*
X44739753Y-53889807D01*
X44739753Y-53889807D02*
X44768325Y-53946950D01*
X44596896Y-53232664D02*
X44596896Y-53175521D01*
X44596896Y-53175521D02*
X44625468Y-53118378D01*
X44625468Y-53118378D02*
X44654039Y-53089807D01*
X44654039Y-53089807D02*
X44711182Y-53061235D01*
X44711182Y-53061235D02*
X44825468Y-53032664D01*
X44825468Y-53032664D02*
X44968325Y-53032664D01*
X44968325Y-53032664D02*
X45082610Y-53061235D01*
X45082610Y-53061235D02*
X45139753Y-53089807D01*
X45139753Y-53089807D02*
X45168325Y-53118378D01*
X45168325Y-53118378D02*
X45196896Y-53175521D01*
X45196896Y-53175521D02*
X45196896Y-53232664D01*
X45196896Y-53232664D02*
X45168325Y-53289807D01*
X45168325Y-53289807D02*
X45139753Y-53318378D01*
X45139753Y-53318378D02*
X45082610Y-53346949D01*
X45082610Y-53346949D02*
X44968325Y-53375521D01*
X44968325Y-53375521D02*
X44825468Y-53375521D01*
X44825468Y-53375521D02*
X44711182Y-53346949D01*
X44711182Y-53346949D02*
X44654039Y-53318378D01*
X44654039Y-53318378D02*
X44625468Y-53289807D01*
X44625468Y-53289807D02*
X44596896Y-53232664D01*
%TO.C,R9*%
X48386896Y-51729806D02*
X48101182Y-51929806D01*
X48386896Y-52072663D02*
X47786896Y-52072663D01*
X47786896Y-52072663D02*
X47786896Y-51844092D01*
X47786896Y-51844092D02*
X47815468Y-51786949D01*
X47815468Y-51786949D02*
X47844039Y-51758378D01*
X47844039Y-51758378D02*
X47901182Y-51729806D01*
X47901182Y-51729806D02*
X47986896Y-51729806D01*
X47986896Y-51729806D02*
X48044039Y-51758378D01*
X48044039Y-51758378D02*
X48072610Y-51786949D01*
X48072610Y-51786949D02*
X48101182Y-51844092D01*
X48101182Y-51844092D02*
X48101182Y-52072663D01*
X48386896Y-51444092D02*
X48386896Y-51329806D01*
X48386896Y-51329806D02*
X48358325Y-51272663D01*
X48358325Y-51272663D02*
X48329753Y-51244092D01*
X48329753Y-51244092D02*
X48244039Y-51186949D01*
X48244039Y-51186949D02*
X48129753Y-51158378D01*
X48129753Y-51158378D02*
X47901182Y-51158378D01*
X47901182Y-51158378D02*
X47844039Y-51186949D01*
X47844039Y-51186949D02*
X47815468Y-51215521D01*
X47815468Y-51215521D02*
X47786896Y-51272663D01*
X47786896Y-51272663D02*
X47786896Y-51386949D01*
X47786896Y-51386949D02*
X47815468Y-51444092D01*
X47815468Y-51444092D02*
X47844039Y-51472663D01*
X47844039Y-51472663D02*
X47901182Y-51501235D01*
X47901182Y-51501235D02*
X48044039Y-51501235D01*
X48044039Y-51501235D02*
X48101182Y-51472663D01*
X48101182Y-51472663D02*
X48129753Y-51444092D01*
X48129753Y-51444092D02*
X48158325Y-51386949D01*
X48158325Y-51386949D02*
X48158325Y-51272663D01*
X48158325Y-51272663D02*
X48129753Y-51215521D01*
X48129753Y-51215521D02*
X48101182Y-51186949D01*
X48101182Y-51186949D02*
X48044039Y-51158378D01*
%TO.C,C17*%
X52950753Y-60083092D02*
X52922181Y-60111664D01*
X52922181Y-60111664D02*
X52836467Y-60140235D01*
X52836467Y-60140235D02*
X52779324Y-60140235D01*
X52779324Y-60140235D02*
X52693610Y-60111664D01*
X52693610Y-60111664D02*
X52636467Y-60054521D01*
X52636467Y-60054521D02*
X52607896Y-59997378D01*
X52607896Y-59997378D02*
X52579324Y-59883092D01*
X52579324Y-59883092D02*
X52579324Y-59797378D01*
X52579324Y-59797378D02*
X52607896Y-59683092D01*
X52607896Y-59683092D02*
X52636467Y-59625949D01*
X52636467Y-59625949D02*
X52693610Y-59568807D01*
X52693610Y-59568807D02*
X52779324Y-59540235D01*
X52779324Y-59540235D02*
X52836467Y-59540235D01*
X52836467Y-59540235D02*
X52922181Y-59568807D01*
X52922181Y-59568807D02*
X52950753Y-59597378D01*
X53522181Y-60140235D02*
X53179324Y-60140235D01*
X53350753Y-60140235D02*
X53350753Y-59540235D01*
X53350753Y-59540235D02*
X53293610Y-59625949D01*
X53293610Y-59625949D02*
X53236467Y-59683092D01*
X53236467Y-59683092D02*
X53179324Y-59711664D01*
X53722182Y-59540235D02*
X54122182Y-59540235D01*
X54122182Y-59540235D02*
X53865039Y-60140235D01*
%TO.C,R2*%
X41200000Y-39030428D02*
X41000000Y-38744714D01*
X40857143Y-39030428D02*
X40857143Y-38430428D01*
X40857143Y-38430428D02*
X41085714Y-38430428D01*
X41085714Y-38430428D02*
X41142857Y-38459000D01*
X41142857Y-38459000D02*
X41171428Y-38487571D01*
X41171428Y-38487571D02*
X41200000Y-38544714D01*
X41200000Y-38544714D02*
X41200000Y-38630428D01*
X41200000Y-38630428D02*
X41171428Y-38687571D01*
X41171428Y-38687571D02*
X41142857Y-38716142D01*
X41142857Y-38716142D02*
X41085714Y-38744714D01*
X41085714Y-38744714D02*
X40857143Y-38744714D01*
X41428571Y-38487571D02*
X41457143Y-38459000D01*
X41457143Y-38459000D02*
X41514286Y-38430428D01*
X41514286Y-38430428D02*
X41657143Y-38430428D01*
X41657143Y-38430428D02*
X41714286Y-38459000D01*
X41714286Y-38459000D02*
X41742857Y-38487571D01*
X41742857Y-38487571D02*
X41771428Y-38544714D01*
X41771428Y-38544714D02*
X41771428Y-38601857D01*
X41771428Y-38601857D02*
X41742857Y-38687571D01*
X41742857Y-38687571D02*
X41400000Y-39030428D01*
X41400000Y-39030428D02*
X41771428Y-39030428D01*
%TO.C,C1*%
X53826468Y-55278092D02*
X53797896Y-55306664D01*
X53797896Y-55306664D02*
X53712182Y-55335235D01*
X53712182Y-55335235D02*
X53655039Y-55335235D01*
X53655039Y-55335235D02*
X53569325Y-55306664D01*
X53569325Y-55306664D02*
X53512182Y-55249521D01*
X53512182Y-55249521D02*
X53483611Y-55192378D01*
X53483611Y-55192378D02*
X53455039Y-55078092D01*
X53455039Y-55078092D02*
X53455039Y-54992378D01*
X53455039Y-54992378D02*
X53483611Y-54878092D01*
X53483611Y-54878092D02*
X53512182Y-54820949D01*
X53512182Y-54820949D02*
X53569325Y-54763807D01*
X53569325Y-54763807D02*
X53655039Y-54735235D01*
X53655039Y-54735235D02*
X53712182Y-54735235D01*
X53712182Y-54735235D02*
X53797896Y-54763807D01*
X53797896Y-54763807D02*
X53826468Y-54792378D01*
X54397896Y-55335235D02*
X54055039Y-55335235D01*
X54226468Y-55335235D02*
X54226468Y-54735235D01*
X54226468Y-54735235D02*
X54169325Y-54820949D01*
X54169325Y-54820949D02*
X54112182Y-54878092D01*
X54112182Y-54878092D02*
X54055039Y-54906664D01*
%TO.C,R5*%
X55650428Y-56619999D02*
X55364714Y-56819999D01*
X55650428Y-56962856D02*
X55050428Y-56962856D01*
X55050428Y-56962856D02*
X55050428Y-56734285D01*
X55050428Y-56734285D02*
X55079000Y-56677142D01*
X55079000Y-56677142D02*
X55107571Y-56648571D01*
X55107571Y-56648571D02*
X55164714Y-56619999D01*
X55164714Y-56619999D02*
X55250428Y-56619999D01*
X55250428Y-56619999D02*
X55307571Y-56648571D01*
X55307571Y-56648571D02*
X55336142Y-56677142D01*
X55336142Y-56677142D02*
X55364714Y-56734285D01*
X55364714Y-56734285D02*
X55364714Y-56962856D01*
X55050428Y-56077142D02*
X55050428Y-56362856D01*
X55050428Y-56362856D02*
X55336142Y-56391428D01*
X55336142Y-56391428D02*
X55307571Y-56362856D01*
X55307571Y-56362856D02*
X55279000Y-56305714D01*
X55279000Y-56305714D02*
X55279000Y-56162856D01*
X55279000Y-56162856D02*
X55307571Y-56105714D01*
X55307571Y-56105714D02*
X55336142Y-56077142D01*
X55336142Y-56077142D02*
X55393285Y-56048571D01*
X55393285Y-56048571D02*
X55536142Y-56048571D01*
X55536142Y-56048571D02*
X55593285Y-56077142D01*
X55593285Y-56077142D02*
X55621857Y-56105714D01*
X55621857Y-56105714D02*
X55650428Y-56162856D01*
X55650428Y-56162856D02*
X55650428Y-56305714D01*
X55650428Y-56305714D02*
X55621857Y-56362856D01*
X55621857Y-56362856D02*
X55593285Y-56391428D01*
%TO.C,U4*%
X30163236Y-42814146D02*
X30163236Y-43299860D01*
X30163236Y-43299860D02*
X30191807Y-43357003D01*
X30191807Y-43357003D02*
X30220379Y-43385575D01*
X30220379Y-43385575D02*
X30277521Y-43414146D01*
X30277521Y-43414146D02*
X30391807Y-43414146D01*
X30391807Y-43414146D02*
X30448950Y-43385575D01*
X30448950Y-43385575D02*
X30477521Y-43357003D01*
X30477521Y-43357003D02*
X30506093Y-43299860D01*
X30506093Y-43299860D02*
X30506093Y-42814146D01*
X31048950Y-43014146D02*
X31048950Y-43414146D01*
X30906092Y-42785575D02*
X30763235Y-43214146D01*
X30763235Y-43214146D02*
X31134664Y-43214146D01*
%TO.C,D1*%
X54859557Y-51342663D02*
X54259557Y-51342663D01*
X54259557Y-51342663D02*
X54259557Y-51199806D01*
X54259557Y-51199806D02*
X54288129Y-51114092D01*
X54288129Y-51114092D02*
X54345271Y-51056949D01*
X54345271Y-51056949D02*
X54402414Y-51028378D01*
X54402414Y-51028378D02*
X54516700Y-50999806D01*
X54516700Y-50999806D02*
X54602414Y-50999806D01*
X54602414Y-50999806D02*
X54716700Y-51028378D01*
X54716700Y-51028378D02*
X54773843Y-51056949D01*
X54773843Y-51056949D02*
X54830986Y-51114092D01*
X54830986Y-51114092D02*
X54859557Y-51199806D01*
X54859557Y-51199806D02*
X54859557Y-51342663D01*
X54859557Y-50428378D02*
X54859557Y-50771235D01*
X54859557Y-50599806D02*
X54259557Y-50599806D01*
X54259557Y-50599806D02*
X54345271Y-50656949D01*
X54345271Y-50656949D02*
X54402414Y-50714092D01*
X54402414Y-50714092D02*
X54430986Y-50771235D01*
%TO.C,C12*%
X48909753Y-55855521D02*
X48938325Y-55884093D01*
X48938325Y-55884093D02*
X48966896Y-55969807D01*
X48966896Y-55969807D02*
X48966896Y-56026950D01*
X48966896Y-56026950D02*
X48938325Y-56112664D01*
X48938325Y-56112664D02*
X48881182Y-56169807D01*
X48881182Y-56169807D02*
X48824039Y-56198378D01*
X48824039Y-56198378D02*
X48709753Y-56226950D01*
X48709753Y-56226950D02*
X48624039Y-56226950D01*
X48624039Y-56226950D02*
X48509753Y-56198378D01*
X48509753Y-56198378D02*
X48452610Y-56169807D01*
X48452610Y-56169807D02*
X48395468Y-56112664D01*
X48395468Y-56112664D02*
X48366896Y-56026950D01*
X48366896Y-56026950D02*
X48366896Y-55969807D01*
X48366896Y-55969807D02*
X48395468Y-55884093D01*
X48395468Y-55884093D02*
X48424039Y-55855521D01*
X48966896Y-55284093D02*
X48966896Y-55626950D01*
X48966896Y-55455521D02*
X48366896Y-55455521D01*
X48366896Y-55455521D02*
X48452610Y-55512664D01*
X48452610Y-55512664D02*
X48509753Y-55569807D01*
X48509753Y-55569807D02*
X48538325Y-55626950D01*
X48424039Y-55055521D02*
X48395468Y-55026949D01*
X48395468Y-55026949D02*
X48366896Y-54969807D01*
X48366896Y-54969807D02*
X48366896Y-54826949D01*
X48366896Y-54826949D02*
X48395468Y-54769807D01*
X48395468Y-54769807D02*
X48424039Y-54741235D01*
X48424039Y-54741235D02*
X48481182Y-54712664D01*
X48481182Y-54712664D02*
X48538325Y-54712664D01*
X48538325Y-54712664D02*
X48624039Y-54741235D01*
X48624039Y-54741235D02*
X48966896Y-55084092D01*
X48966896Y-55084092D02*
X48966896Y-54712664D01*
%TO.C,J5*%
X58576666Y-37265000D02*
X58481428Y-37217380D01*
X58481428Y-37217380D02*
X58338571Y-37217380D01*
X58338571Y-37217380D02*
X58195714Y-37265000D01*
X58195714Y-37265000D02*
X58100476Y-37360238D01*
X58100476Y-37360238D02*
X58052857Y-37455476D01*
X58052857Y-37455476D02*
X58005238Y-37645952D01*
X58005238Y-37645952D02*
X58005238Y-37788809D01*
X58005238Y-37788809D02*
X58052857Y-37979285D01*
X58052857Y-37979285D02*
X58100476Y-38074523D01*
X58100476Y-38074523D02*
X58195714Y-38169761D01*
X58195714Y-38169761D02*
X58338571Y-38217380D01*
X58338571Y-38217380D02*
X58433809Y-38217380D01*
X58433809Y-38217380D02*
X58576666Y-38169761D01*
X58576666Y-38169761D02*
X58624285Y-38122142D01*
X58624285Y-38122142D02*
X58624285Y-37788809D01*
X58624285Y-37788809D02*
X58433809Y-37788809D01*
X59624285Y-38122142D02*
X59576666Y-38169761D01*
X59576666Y-38169761D02*
X59433809Y-38217380D01*
X59433809Y-38217380D02*
X59338571Y-38217380D01*
X59338571Y-38217380D02*
X59195714Y-38169761D01*
X59195714Y-38169761D02*
X59100476Y-38074523D01*
X59100476Y-38074523D02*
X59052857Y-37979285D01*
X59052857Y-37979285D02*
X59005238Y-37788809D01*
X59005238Y-37788809D02*
X59005238Y-37645952D01*
X59005238Y-37645952D02*
X59052857Y-37455476D01*
X59052857Y-37455476D02*
X59100476Y-37360238D01*
X59100476Y-37360238D02*
X59195714Y-37265000D01*
X59195714Y-37265000D02*
X59338571Y-37217380D01*
X59338571Y-37217380D02*
X59433809Y-37217380D01*
X59433809Y-37217380D02*
X59576666Y-37265000D01*
X59576666Y-37265000D02*
X59624285Y-37312619D01*
X60624285Y-38122142D02*
X60576666Y-38169761D01*
X60576666Y-38169761D02*
X60433809Y-38217380D01*
X60433809Y-38217380D02*
X60338571Y-38217380D01*
X60338571Y-38217380D02*
X60195714Y-38169761D01*
X60195714Y-38169761D02*
X60100476Y-38074523D01*
X60100476Y-38074523D02*
X60052857Y-37979285D01*
X60052857Y-37979285D02*
X60005238Y-37788809D01*
X60005238Y-37788809D02*
X60005238Y-37645952D01*
X60005238Y-37645952D02*
X60052857Y-37455476D01*
X60052857Y-37455476D02*
X60100476Y-37360238D01*
X60100476Y-37360238D02*
X60195714Y-37265000D01*
X60195714Y-37265000D02*
X60338571Y-37217380D01*
X60338571Y-37217380D02*
X60433809Y-37217380D01*
X60433809Y-37217380D02*
X60576666Y-37265000D01*
X60576666Y-37265000D02*
X60624285Y-37312619D01*
X62224285Y-38122142D02*
X62176666Y-38169761D01*
X62176666Y-38169761D02*
X62033809Y-38217380D01*
X62033809Y-38217380D02*
X61938571Y-38217380D01*
X61938571Y-38217380D02*
X61795714Y-38169761D01*
X61795714Y-38169761D02*
X61700476Y-38074523D01*
X61700476Y-38074523D02*
X61652857Y-37979285D01*
X61652857Y-37979285D02*
X61605238Y-37788809D01*
X61605238Y-37788809D02*
X61605238Y-37645952D01*
X61605238Y-37645952D02*
X61652857Y-37455476D01*
X61652857Y-37455476D02*
X61700476Y-37360238D01*
X61700476Y-37360238D02*
X61795714Y-37265000D01*
X61795714Y-37265000D02*
X61938571Y-37217380D01*
X61938571Y-37217380D02*
X62033809Y-37217380D01*
X62033809Y-37217380D02*
X62176666Y-37265000D01*
X62176666Y-37265000D02*
X62224285Y-37312619D01*
X63081428Y-38217380D02*
X63081428Y-37693571D01*
X63081428Y-37693571D02*
X63033809Y-37598333D01*
X63033809Y-37598333D02*
X62938571Y-37550714D01*
X62938571Y-37550714D02*
X62748095Y-37550714D01*
X62748095Y-37550714D02*
X62652857Y-37598333D01*
X63081428Y-38169761D02*
X62986190Y-38217380D01*
X62986190Y-38217380D02*
X62748095Y-38217380D01*
X62748095Y-38217380D02*
X62652857Y-38169761D01*
X62652857Y-38169761D02*
X62605238Y-38074523D01*
X62605238Y-38074523D02*
X62605238Y-37979285D01*
X62605238Y-37979285D02*
X62652857Y-37884047D01*
X62652857Y-37884047D02*
X62748095Y-37836428D01*
X62748095Y-37836428D02*
X62986190Y-37836428D01*
X62986190Y-37836428D02*
X63081428Y-37788809D01*
X63557619Y-38217380D02*
X63557619Y-37217380D01*
X63557619Y-37598333D02*
X63652857Y-37550714D01*
X63652857Y-37550714D02*
X63843333Y-37550714D01*
X63843333Y-37550714D02*
X63938571Y-37598333D01*
X63938571Y-37598333D02*
X63986190Y-37645952D01*
X63986190Y-37645952D02*
X64033809Y-37741190D01*
X64033809Y-37741190D02*
X64033809Y-38026904D01*
X64033809Y-38026904D02*
X63986190Y-38122142D01*
X63986190Y-38122142D02*
X63938571Y-38169761D01*
X63938571Y-38169761D02*
X63843333Y-38217380D01*
X63843333Y-38217380D02*
X63652857Y-38217380D01*
X63652857Y-38217380D02*
X63557619Y-38169761D01*
X64605238Y-38217380D02*
X64510000Y-38169761D01*
X64510000Y-38169761D02*
X64462381Y-38074523D01*
X64462381Y-38074523D02*
X64462381Y-37217380D01*
X65367143Y-38169761D02*
X65271905Y-38217380D01*
X65271905Y-38217380D02*
X65081429Y-38217380D01*
X65081429Y-38217380D02*
X64986191Y-38169761D01*
X64986191Y-38169761D02*
X64938572Y-38074523D01*
X64938572Y-38074523D02*
X64938572Y-37693571D01*
X64938572Y-37693571D02*
X64986191Y-37598333D01*
X64986191Y-37598333D02*
X65081429Y-37550714D01*
X65081429Y-37550714D02*
X65271905Y-37550714D01*
X65271905Y-37550714D02*
X65367143Y-37598333D01*
X65367143Y-37598333D02*
X65414762Y-37693571D01*
X65414762Y-37693571D02*
X65414762Y-37788809D01*
X65414762Y-37788809D02*
X64938572Y-37884047D01*
%TO.C,C5*%
X43619753Y-53879806D02*
X43648325Y-53908378D01*
X43648325Y-53908378D02*
X43676896Y-53994092D01*
X43676896Y-53994092D02*
X43676896Y-54051235D01*
X43676896Y-54051235D02*
X43648325Y-54136949D01*
X43648325Y-54136949D02*
X43591182Y-54194092D01*
X43591182Y-54194092D02*
X43534039Y-54222663D01*
X43534039Y-54222663D02*
X43419753Y-54251235D01*
X43419753Y-54251235D02*
X43334039Y-54251235D01*
X43334039Y-54251235D02*
X43219753Y-54222663D01*
X43219753Y-54222663D02*
X43162610Y-54194092D01*
X43162610Y-54194092D02*
X43105468Y-54136949D01*
X43105468Y-54136949D02*
X43076896Y-54051235D01*
X43076896Y-54051235D02*
X43076896Y-53994092D01*
X43076896Y-53994092D02*
X43105468Y-53908378D01*
X43105468Y-53908378D02*
X43134039Y-53879806D01*
X43076896Y-53336949D02*
X43076896Y-53622663D01*
X43076896Y-53622663D02*
X43362610Y-53651235D01*
X43362610Y-53651235D02*
X43334039Y-53622663D01*
X43334039Y-53622663D02*
X43305468Y-53565521D01*
X43305468Y-53565521D02*
X43305468Y-53422663D01*
X43305468Y-53422663D02*
X43334039Y-53365521D01*
X43334039Y-53365521D02*
X43362610Y-53336949D01*
X43362610Y-53336949D02*
X43419753Y-53308378D01*
X43419753Y-53308378D02*
X43562610Y-53308378D01*
X43562610Y-53308378D02*
X43619753Y-53336949D01*
X43619753Y-53336949D02*
X43648325Y-53365521D01*
X43648325Y-53365521D02*
X43676896Y-53422663D01*
X43676896Y-53422663D02*
X43676896Y-53565521D01*
X43676896Y-53565521D02*
X43648325Y-53622663D01*
X43648325Y-53622663D02*
X43619753Y-53651235D01*
%TO.C,C15*%
X38354285Y-65963285D02*
X38325713Y-65991857D01*
X38325713Y-65991857D02*
X38239999Y-66020428D01*
X38239999Y-66020428D02*
X38182856Y-66020428D01*
X38182856Y-66020428D02*
X38097142Y-65991857D01*
X38097142Y-65991857D02*
X38039999Y-65934714D01*
X38039999Y-65934714D02*
X38011428Y-65877571D01*
X38011428Y-65877571D02*
X37982856Y-65763285D01*
X37982856Y-65763285D02*
X37982856Y-65677571D01*
X37982856Y-65677571D02*
X38011428Y-65563285D01*
X38011428Y-65563285D02*
X38039999Y-65506142D01*
X38039999Y-65506142D02*
X38097142Y-65449000D01*
X38097142Y-65449000D02*
X38182856Y-65420428D01*
X38182856Y-65420428D02*
X38239999Y-65420428D01*
X38239999Y-65420428D02*
X38325713Y-65449000D01*
X38325713Y-65449000D02*
X38354285Y-65477571D01*
X38925713Y-66020428D02*
X38582856Y-66020428D01*
X38754285Y-66020428D02*
X38754285Y-65420428D01*
X38754285Y-65420428D02*
X38697142Y-65506142D01*
X38697142Y-65506142D02*
X38639999Y-65563285D01*
X38639999Y-65563285D02*
X38582856Y-65591857D01*
X39468571Y-65420428D02*
X39182857Y-65420428D01*
X39182857Y-65420428D02*
X39154285Y-65706142D01*
X39154285Y-65706142D02*
X39182857Y-65677571D01*
X39182857Y-65677571D02*
X39240000Y-65649000D01*
X39240000Y-65649000D02*
X39382857Y-65649000D01*
X39382857Y-65649000D02*
X39440000Y-65677571D01*
X39440000Y-65677571D02*
X39468571Y-65706142D01*
X39468571Y-65706142D02*
X39497142Y-65763285D01*
X39497142Y-65763285D02*
X39497142Y-65906142D01*
X39497142Y-65906142D02*
X39468571Y-65963285D01*
X39468571Y-65963285D02*
X39440000Y-65991857D01*
X39440000Y-65991857D02*
X39382857Y-66020428D01*
X39382857Y-66020428D02*
X39240000Y-66020428D01*
X39240000Y-66020428D02*
X39182857Y-65991857D01*
X39182857Y-65991857D02*
X39154285Y-65963285D01*
%TO.C,R3*%
X47530428Y-40039999D02*
X47244714Y-40239999D01*
X47530428Y-40382856D02*
X46930428Y-40382856D01*
X46930428Y-40382856D02*
X46930428Y-40154285D01*
X46930428Y-40154285D02*
X46959000Y-40097142D01*
X46959000Y-40097142D02*
X46987571Y-40068571D01*
X46987571Y-40068571D02*
X47044714Y-40039999D01*
X47044714Y-40039999D02*
X47130428Y-40039999D01*
X47130428Y-40039999D02*
X47187571Y-40068571D01*
X47187571Y-40068571D02*
X47216142Y-40097142D01*
X47216142Y-40097142D02*
X47244714Y-40154285D01*
X47244714Y-40154285D02*
X47244714Y-40382856D01*
X46930428Y-39839999D02*
X46930428Y-39468571D01*
X46930428Y-39468571D02*
X47159000Y-39668571D01*
X47159000Y-39668571D02*
X47159000Y-39582856D01*
X47159000Y-39582856D02*
X47187571Y-39525714D01*
X47187571Y-39525714D02*
X47216142Y-39497142D01*
X47216142Y-39497142D02*
X47273285Y-39468571D01*
X47273285Y-39468571D02*
X47416142Y-39468571D01*
X47416142Y-39468571D02*
X47473285Y-39497142D01*
X47473285Y-39497142D02*
X47501857Y-39525714D01*
X47501857Y-39525714D02*
X47530428Y-39582856D01*
X47530428Y-39582856D02*
X47530428Y-39754285D01*
X47530428Y-39754285D02*
X47501857Y-39811428D01*
X47501857Y-39811428D02*
X47473285Y-39839999D01*
%TO.C,J2*%
X49166896Y-74590000D02*
X49595468Y-74590000D01*
X49595468Y-74590000D02*
X49681182Y-74618571D01*
X49681182Y-74618571D02*
X49738325Y-74675714D01*
X49738325Y-74675714D02*
X49766896Y-74761428D01*
X49766896Y-74761428D02*
X49766896Y-74818571D01*
X49224039Y-74332857D02*
X49195468Y-74304285D01*
X49195468Y-74304285D02*
X49166896Y-74247143D01*
X49166896Y-74247143D02*
X49166896Y-74104285D01*
X49166896Y-74104285D02*
X49195468Y-74047143D01*
X49195468Y-74047143D02*
X49224039Y-74018571D01*
X49224039Y-74018571D02*
X49281182Y-73990000D01*
X49281182Y-73990000D02*
X49338325Y-73990000D01*
X49338325Y-73990000D02*
X49424039Y-74018571D01*
X49424039Y-74018571D02*
X49766896Y-74361428D01*
X49766896Y-74361428D02*
X49766896Y-73990000D01*
%TO.C,R1*%
X21760428Y-35849999D02*
X21474714Y-36049999D01*
X21760428Y-36192856D02*
X21160428Y-36192856D01*
X21160428Y-36192856D02*
X21160428Y-35964285D01*
X21160428Y-35964285D02*
X21189000Y-35907142D01*
X21189000Y-35907142D02*
X21217571Y-35878571D01*
X21217571Y-35878571D02*
X21274714Y-35849999D01*
X21274714Y-35849999D02*
X21360428Y-35849999D01*
X21360428Y-35849999D02*
X21417571Y-35878571D01*
X21417571Y-35878571D02*
X21446142Y-35907142D01*
X21446142Y-35907142D02*
X21474714Y-35964285D01*
X21474714Y-35964285D02*
X21474714Y-36192856D01*
X21760428Y-35278571D02*
X21760428Y-35621428D01*
X21760428Y-35449999D02*
X21160428Y-35449999D01*
X21160428Y-35449999D02*
X21246142Y-35507142D01*
X21246142Y-35507142D02*
X21303285Y-35564285D01*
X21303285Y-35564285D02*
X21331857Y-35621428D01*
%TO.C,F1*%
X49906468Y-45365949D02*
X49706468Y-45365949D01*
X49706468Y-45680235D02*
X49706468Y-45080235D01*
X49706468Y-45080235D02*
X49992182Y-45080235D01*
X50535039Y-45680235D02*
X50192182Y-45680235D01*
X50363611Y-45680235D02*
X50363611Y-45080235D01*
X50363611Y-45080235D02*
X50306468Y-45165949D01*
X50306468Y-45165949D02*
X50249325Y-45223092D01*
X50249325Y-45223092D02*
X50192182Y-45251664D01*
%TO.C,R4*%
X54626468Y-63220235D02*
X54426468Y-62934521D01*
X54283611Y-63220235D02*
X54283611Y-62620235D01*
X54283611Y-62620235D02*
X54512182Y-62620235D01*
X54512182Y-62620235D02*
X54569325Y-62648807D01*
X54569325Y-62648807D02*
X54597896Y-62677378D01*
X54597896Y-62677378D02*
X54626468Y-62734521D01*
X54626468Y-62734521D02*
X54626468Y-62820235D01*
X54626468Y-62820235D02*
X54597896Y-62877378D01*
X54597896Y-62877378D02*
X54569325Y-62905949D01*
X54569325Y-62905949D02*
X54512182Y-62934521D01*
X54512182Y-62934521D02*
X54283611Y-62934521D01*
X55140754Y-62820235D02*
X55140754Y-63220235D01*
X54997896Y-62591664D02*
X54855039Y-63020235D01*
X54855039Y-63020235D02*
X55226468Y-63020235D01*
%TO.C,C11*%
X52714510Y-65328174D02*
X52674103Y-65328174D01*
X52674103Y-65328174D02*
X52593291Y-65287768D01*
X52593291Y-65287768D02*
X52552885Y-65247362D01*
X52552885Y-65247362D02*
X52512479Y-65166550D01*
X52512479Y-65166550D02*
X52512479Y-65085738D01*
X52512479Y-65085738D02*
X52532682Y-65025129D01*
X52532682Y-65025129D02*
X52593291Y-64924113D01*
X52593291Y-64924113D02*
X52653900Y-64863504D01*
X52653900Y-64863504D02*
X52754916Y-64802895D01*
X52754916Y-64802895D02*
X52815525Y-64782692D01*
X52815525Y-64782692D02*
X52896337Y-64782692D01*
X52896337Y-64782692D02*
X52977149Y-64823098D01*
X52977149Y-64823098D02*
X53017555Y-64863504D01*
X53017555Y-64863504D02*
X53057961Y-64944316D01*
X53057961Y-64944316D02*
X53057961Y-64984723D01*
X53078164Y-65772642D02*
X52835728Y-65530205D01*
X52956946Y-65651423D02*
X53381210Y-65227159D01*
X53381210Y-65227159D02*
X53280195Y-65247362D01*
X53280195Y-65247362D02*
X53199383Y-65247362D01*
X53199383Y-65247362D02*
X53138774Y-65227159D01*
X53482226Y-66176703D02*
X53239789Y-65934266D01*
X53361008Y-66055485D02*
X53785272Y-65631221D01*
X53785272Y-65631221D02*
X53684256Y-65651424D01*
X53684256Y-65651424D02*
X53603444Y-65651424D01*
X53603444Y-65651424D02*
X53542835Y-65631221D01*
%TO.C,C2*%
X48636468Y-46303092D02*
X48607896Y-46331664D01*
X48607896Y-46331664D02*
X48522182Y-46360235D01*
X48522182Y-46360235D02*
X48465039Y-46360235D01*
X48465039Y-46360235D02*
X48379325Y-46331664D01*
X48379325Y-46331664D02*
X48322182Y-46274521D01*
X48322182Y-46274521D02*
X48293611Y-46217378D01*
X48293611Y-46217378D02*
X48265039Y-46103092D01*
X48265039Y-46103092D02*
X48265039Y-46017378D01*
X48265039Y-46017378D02*
X48293611Y-45903092D01*
X48293611Y-45903092D02*
X48322182Y-45845949D01*
X48322182Y-45845949D02*
X48379325Y-45788807D01*
X48379325Y-45788807D02*
X48465039Y-45760235D01*
X48465039Y-45760235D02*
X48522182Y-45760235D01*
X48522182Y-45760235D02*
X48607896Y-45788807D01*
X48607896Y-45788807D02*
X48636468Y-45817378D01*
X48865039Y-45817378D02*
X48893611Y-45788807D01*
X48893611Y-45788807D02*
X48950754Y-45760235D01*
X48950754Y-45760235D02*
X49093611Y-45760235D01*
X49093611Y-45760235D02*
X49150754Y-45788807D01*
X49150754Y-45788807D02*
X49179325Y-45817378D01*
X49179325Y-45817378D02*
X49207896Y-45874521D01*
X49207896Y-45874521D02*
X49207896Y-45931664D01*
X49207896Y-45931664D02*
X49179325Y-46017378D01*
X49179325Y-46017378D02*
X48836468Y-46360235D01*
X48836468Y-46360235D02*
X49207896Y-46360235D01*
%TO.C,C13*%
X38744503Y-60071539D02*
X38773075Y-60100111D01*
X38773075Y-60100111D02*
X38801646Y-60185825D01*
X38801646Y-60185825D02*
X38801646Y-60242968D01*
X38801646Y-60242968D02*
X38773075Y-60328682D01*
X38773075Y-60328682D02*
X38715932Y-60385825D01*
X38715932Y-60385825D02*
X38658789Y-60414396D01*
X38658789Y-60414396D02*
X38544503Y-60442968D01*
X38544503Y-60442968D02*
X38458789Y-60442968D01*
X38458789Y-60442968D02*
X38344503Y-60414396D01*
X38344503Y-60414396D02*
X38287360Y-60385825D01*
X38287360Y-60385825D02*
X38230218Y-60328682D01*
X38230218Y-60328682D02*
X38201646Y-60242968D01*
X38201646Y-60242968D02*
X38201646Y-60185825D01*
X38201646Y-60185825D02*
X38230218Y-60100111D01*
X38230218Y-60100111D02*
X38258789Y-60071539D01*
X38801646Y-59500111D02*
X38801646Y-59842968D01*
X38801646Y-59671539D02*
X38201646Y-59671539D01*
X38201646Y-59671539D02*
X38287360Y-59728682D01*
X38287360Y-59728682D02*
X38344503Y-59785825D01*
X38344503Y-59785825D02*
X38373075Y-59842968D01*
X38201646Y-59300110D02*
X38201646Y-58928682D01*
X38201646Y-58928682D02*
X38430218Y-59128682D01*
X38430218Y-59128682D02*
X38430218Y-59042967D01*
X38430218Y-59042967D02*
X38458789Y-58985825D01*
X38458789Y-58985825D02*
X38487360Y-58957253D01*
X38487360Y-58957253D02*
X38544503Y-58928682D01*
X38544503Y-58928682D02*
X38687360Y-58928682D01*
X38687360Y-58928682D02*
X38744503Y-58957253D01*
X38744503Y-58957253D02*
X38773075Y-58985825D01*
X38773075Y-58985825D02*
X38801646Y-59042967D01*
X38801646Y-59042967D02*
X38801646Y-59214396D01*
X38801646Y-59214396D02*
X38773075Y-59271539D01*
X38773075Y-59271539D02*
X38744503Y-59300110D01*
D13*
%TO.C,R6*%
X56586468Y-58248448D02*
X56586468Y-57941166D01*
X57346468Y-58248448D02*
X57346468Y-57941166D01*
%TO.C,C7*%
X39621468Y-74690989D02*
X39621468Y-74906661D01*
X38901468Y-74690989D02*
X38901468Y-74906661D01*
%TO.C,C9*%
X52424304Y-54274807D02*
X52208632Y-54274807D01*
X52424304Y-53554807D02*
X52208632Y-53554807D01*
%TO.C,J1*%
X49664968Y-37059807D02*
X49664968Y-31159807D01*
X49664968Y-37059807D02*
X48024968Y-37059807D01*
X41724968Y-37059807D02*
X40284968Y-37059807D01*
X40284968Y-37059807D02*
X40284968Y-31159807D01*
%TO.C,R11*%
X43453468Y-71126698D02*
X43453468Y-70819416D01*
X44213468Y-71126698D02*
X44213468Y-70819416D01*
%TO.C,C6*%
X47749468Y-70865221D02*
X47749468Y-71080893D01*
X47029468Y-70865221D02*
X47029468Y-71080893D01*
%TO.C,D2*%
X54226468Y-48329807D02*
X56226468Y-48329807D01*
X54226468Y-48329807D02*
X54226468Y-44319807D01*
X56226468Y-48329807D02*
X56226468Y-44319807D01*
%TO.C,C16*%
X51345632Y-58040057D02*
X51561304Y-58040057D01*
X51345632Y-58760057D02*
X51561304Y-58760057D01*
%TO.C,C3*%
X36137164Y-44490000D02*
X36352836Y-44490000D01*
X36137164Y-45210000D02*
X36352836Y-45210000D01*
%TO.C,R8*%
X45928968Y-51392549D02*
X45928968Y-51867065D01*
X44883968Y-51392549D02*
X44883968Y-51867065D01*
%TO.C,U1*%
X49748968Y-50869807D02*
X51423968Y-50869807D01*
X49748968Y-50869807D02*
X49098968Y-50869807D01*
X49748968Y-47749807D02*
X50398968Y-47749807D01*
X49748968Y-47749807D02*
X49098968Y-47749807D01*
%TO.C,Y1*%
X44690468Y-76179057D02*
X44690468Y-72879057D01*
X44690468Y-72879057D02*
X40690468Y-72879057D01*
%TO.C,SW1*%
X30470379Y-32538718D02*
X32550379Y-32538718D01*
X34230379Y-33808718D02*
X33740379Y-33318718D01*
X34230379Y-33808718D02*
X34230379Y-36708718D01*
X28790379Y-33808718D02*
X29280379Y-33318718D01*
X28790379Y-33808718D02*
X28790379Y-36708718D01*
X34230379Y-36708718D02*
X33740379Y-37198718D01*
X28790379Y-36708718D02*
X29280379Y-37198718D01*
X30470379Y-37978718D02*
X32550379Y-37978718D01*
%TO.C,C8*%
X45604218Y-74652661D02*
X45604218Y-74436989D01*
X46324218Y-74652661D02*
X46324218Y-74436989D01*
%TO.C,J6*%
X21644968Y-53940000D02*
X22974968Y-53940000D01*
X21644968Y-55270000D02*
X21644968Y-53940000D01*
X21644968Y-56540000D02*
X21644968Y-76920000D01*
X21644968Y-56540000D02*
X24304968Y-56540000D01*
X21644968Y-76920000D02*
X24304968Y-76920000D01*
X24304968Y-56540000D02*
X24304968Y-76920000D01*
%TO.C,C14*%
X46225468Y-70865221D02*
X46225468Y-71080893D01*
X45505468Y-70865221D02*
X45505468Y-71080893D01*
%TO.C,R10*%
X27400379Y-42770077D02*
X27400379Y-43077359D01*
X26640379Y-42770077D02*
X26640379Y-43077359D01*
%TO.C,J3*%
X51264968Y-30978807D02*
X52594968Y-30978807D01*
X51264968Y-32308807D02*
X51264968Y-30978807D01*
X51264968Y-33578807D02*
X51264968Y-41258807D01*
X51264968Y-33578807D02*
X53924968Y-33578807D01*
X51264968Y-41258807D02*
X53924968Y-41258807D01*
X53924968Y-33578807D02*
X53924968Y-41258807D01*
%TO.C,U3*%
X41366468Y-66994807D02*
X41366468Y-66344807D01*
X42016468Y-59774807D02*
X41366468Y-59774807D01*
X42016468Y-66994807D02*
X41366468Y-66994807D01*
X47936468Y-59774807D02*
X48586468Y-59774807D01*
X47936468Y-66994807D02*
X48586468Y-66994807D01*
X48586468Y-59774807D02*
X48586468Y-60424807D01*
X48586468Y-66994807D02*
X48586468Y-66344807D01*
%TO.C,D3*%
X59038968Y-62949807D02*
X59038968Y-61029807D01*
X59038968Y-61029807D02*
X56353968Y-61029807D01*
X56353968Y-62949807D02*
X59038968Y-62949807D01*
%TO.C,U2*%
X46536468Y-45839807D02*
X46536468Y-44039807D01*
X46536468Y-45839807D02*
X46536468Y-46639807D01*
X43416468Y-45839807D02*
X43416468Y-45039807D01*
X43416468Y-45839807D02*
X43416468Y-46639807D01*
%TO.C,R7*%
X51050109Y-70799807D02*
X50742827Y-70799807D01*
X51050109Y-70039807D02*
X50742827Y-70039807D01*
%TO.C,C4*%
X47382218Y-57253661D02*
X47382218Y-57037989D01*
X48102218Y-57253661D02*
X48102218Y-57037989D01*
%TO.C,C10*%
X44616468Y-55459893D02*
X44616468Y-55244221D01*
X45336468Y-55459893D02*
X45336468Y-55244221D01*
%TO.C,R9*%
X47458968Y-51392549D02*
X47458968Y-51867065D01*
X46413968Y-51392549D02*
X46413968Y-51867065D01*
%TO.C,C17*%
X51345632Y-59564057D02*
X51561304Y-59564057D01*
X51345632Y-60284057D02*
X51561304Y-60284057D01*
%TO.C,R2*%
X41146359Y-39600000D02*
X41453641Y-39600000D01*
X41146359Y-40360000D02*
X41453641Y-40360000D01*
%TO.C,C1*%
X52208632Y-54754807D02*
X52424304Y-54754807D01*
X52208632Y-55474807D02*
X52424304Y-55474807D01*
%TO.C,R5*%
X55806468Y-57941166D02*
X55806468Y-58248448D01*
X55046468Y-57941166D02*
X55046468Y-58248448D01*
%TO.C,U4*%
X27895379Y-44028718D02*
X27895379Y-44288718D01*
X27895379Y-44288718D02*
X26220379Y-44288718D01*
X27895379Y-49478718D02*
X27895379Y-49218718D01*
X30620379Y-44028718D02*
X27895379Y-44028718D01*
X30620379Y-44028718D02*
X33345379Y-44028718D01*
X30620379Y-49478718D02*
X27895379Y-49478718D01*
X30620379Y-49478718D02*
X33345379Y-49478718D01*
X33345379Y-44028718D02*
X33345379Y-44288718D01*
X33345379Y-49478718D02*
X33345379Y-49218718D01*
%TO.C,D1*%
X51846468Y-53259807D02*
X53846468Y-53259807D01*
X51846468Y-53259807D02*
X51846468Y-49249807D01*
X53846468Y-53259807D02*
X53846468Y-49249807D01*
%TO.C,J4*%
X36024968Y-30978807D02*
X37354968Y-30978807D01*
X36024968Y-32308807D02*
X36024968Y-30978807D01*
X36024968Y-33578807D02*
X36024968Y-41258807D01*
X36024968Y-33578807D02*
X38684968Y-33578807D01*
X36024968Y-41258807D02*
X38684968Y-41258807D01*
X38684968Y-33578807D02*
X38684968Y-41258807D01*
%TO.C,C12*%
X48398218Y-57253661D02*
X48398218Y-57037989D01*
X49118218Y-57253661D02*
X49118218Y-57037989D01*
%TO.C,J5*%
X67700000Y-39100000D02*
X67700000Y-40160000D01*
X66640000Y-39100000D02*
X67700000Y-39100000D01*
X65640000Y-39100000D02*
X55580000Y-39100000D01*
X65640000Y-39100000D02*
X65640000Y-41220000D01*
X55580000Y-39100000D02*
X55580000Y-41220000D01*
X65640000Y-41220000D02*
X55580000Y-41220000D01*
%TO.C,C5*%
X43092468Y-55459893D02*
X43092468Y-55244221D01*
X43812468Y-55459893D02*
X43812468Y-55244221D01*
%TO.C,C15*%
X38847836Y-65000000D02*
X38632164Y-65000000D01*
X38847836Y-64280000D02*
X38632164Y-64280000D01*
%TO.C,R3*%
X46520000Y-39786359D02*
X46520000Y-40093641D01*
X45760000Y-39786359D02*
X45760000Y-40093641D01*
D14*
%TO.C,J2*%
X52238419Y-70770500D02*
X52254517Y-70770500D01*
X53303671Y-71363123D02*
X53936646Y-72413268D01*
X50556290Y-72413268D02*
X51189265Y-71363123D01*
X54151968Y-73187608D02*
X54151968Y-76709500D01*
X50340968Y-76709500D02*
X50340968Y-73187608D01*
X52851967Y-78009500D02*
X51640969Y-78009500D01*
X53303671Y-71363123D02*
G75*
G03*
X52254517Y-70770500I-1049152J-632373D01*
G01*
X52238419Y-70770501D02*
G75*
G03*
X51189266Y-71363123I0J-1224999D01*
G01*
X54151967Y-73187608D02*
G75*
G03*
X53936645Y-72413268I-1500007J-2D01*
G01*
X50556290Y-72413268D02*
G75*
G03*
X50340968Y-73187608I1284686J-774342D01*
G01*
X52851967Y-78009500D02*
G75*
G03*
X54151968Y-76709501I1J1300000D01*
G01*
X50340968Y-76709500D02*
G75*
G03*
X51640970Y-78009500I1300000J0D01*
G01*
D13*
%TO.C,R1*%
X22447500Y-35987258D02*
X22447500Y-35512742D01*
X23492500Y-35987258D02*
X23492500Y-35512742D01*
%TO.C,J8*%
X65644968Y-53940000D02*
X66974968Y-53940000D01*
X65644968Y-55270000D02*
X65644968Y-53940000D01*
X65644968Y-56540000D02*
X65644968Y-76920000D01*
X65644968Y-56540000D02*
X68304968Y-56540000D01*
X65644968Y-76920000D02*
X68304968Y-76920000D01*
X68304968Y-56540000D02*
X68304968Y-76920000D01*
%TO.C,F1*%
X49504404Y-43039807D02*
X50708532Y-43039807D01*
X49504404Y-44859807D02*
X50708532Y-44859807D01*
%TO.C,R4*%
X54572827Y-61619807D02*
X54880109Y-61619807D01*
X54572827Y-62379807D02*
X54880109Y-62379807D01*
%TO.C,C11*%
X52460775Y-65974890D02*
X52613278Y-66127393D01*
X51951658Y-66484007D02*
X52104161Y-66636510D01*
%TO.C,C2*%
X49404304Y-47429807D02*
X49188632Y-47429807D01*
X49404304Y-46709807D02*
X49188632Y-46709807D01*
%TO.C,J7*%
X33320000Y-87134957D02*
X33320000Y-85804957D01*
X34650000Y-87134957D02*
X33320000Y-87134957D01*
X35920000Y-87134957D02*
X56300000Y-87134957D01*
X35920000Y-87134957D02*
X35920000Y-84474957D01*
X56300000Y-87134957D02*
X56300000Y-84474957D01*
X35920000Y-84474957D02*
X56300000Y-84474957D01*
%TO.C,C13*%
X39381218Y-59793661D02*
X39381218Y-59577989D01*
X40101218Y-59793661D02*
X40101218Y-59577989D01*
%TD*%
M02*
