M48
; DRILL file {KiCad (7.0.0)} date Sat Mar  4 19:16:18 2023
; FORMAT={-:-/ absolute / metric / decimal}
; #@! TF.CreationDate,2023-03-04T19:16:18-06:00
; #@! TF.GenerationSoftware,Kicad,Pcbnew,(7.0.0)
; #@! TF.FileFunction,Plated,1,2,PTH
FMAT,2
METRIC
; #@! TA.AperFunction,Plated,PTH,ViaDrill
T1C0.300
; #@! TA.AperFunction,Plated,PTH,ViaDrill
T2C0.350
; #@! TA.AperFunction,Plated,PTH,ComponentDrill
T3C0.350
; #@! TA.AperFunction,Plated,PTH,ViaDrill
T4C0.400
; #@! TA.AperFunction,Plated,PTH,ComponentDrill
T5C0.400
; #@! TA.AperFunction,Plated,PTH,ComponentDrill
T6C0.500
; #@! TA.AperFunction,Plated,PTH,ComponentDrill
T7C0.800
; #@! TA.AperFunction,Plated,PTH,ComponentDrill
T8C1.000
; #@! TA.AperFunction,Plated,PTH,ComponentDrill
T9C2.200
%
G90
G05
T1
X29.609Y-62.635
X30.298Y-62.235
X30.944Y-61.835
X31.58Y-61.435
X34.785Y-81.402
X35.185Y-82.09
X35.585Y-82.75
X35.765Y-45.88
X37.5Y-64.65
X37.745Y-44.84
X39.058Y-66.864
X39.261Y-73.402
X39.47Y-66.23
X39.473Y-39.973
X39.741Y-58.416
X39.923Y-65.576
X41.81Y-40.73
X42.396Y-45.84
X43.066Y-38.35
X43.12Y-40.58
X44.186Y-54.225
X44.341Y-57.257
X45.202Y-56.765
X45.297Y-53.733
X45.324Y-37.75
X45.329Y-69.592
X45.87Y-72.47
X45.964Y-76.069
X46.15Y-41.634
X46.916Y-38.35
X47.202Y-53.733
X48.25Y-70.481
X48.53Y-71.46
X48.758Y-55.749
X49.128Y-39.712
X49.62Y-63.385
X50.409Y-75.88
X50.44Y-63.385
X50.566Y-47.06
X50.809Y-73.36
X51.046Y-55.125
X51.92Y-60.858
X51.92Y-61.669
X51.92Y-62.468
X51.933Y-57.56
X53.298Y-67.322
X53.656Y-53.965
X54.737Y-74.58
X54.74Y-77.914
X57.436Y-45.32
T2
X45.583Y-65.484
X45.71Y-61.247
T3
X43.701Y-62.11
X43.701Y-63.385
X43.701Y-64.66
X44.976Y-62.11
X44.976Y-63.385
X44.976Y-64.66
X46.251Y-62.11
X46.251Y-63.385
X46.251Y-64.66
T4
X28.99Y-48.65
X47.258Y-42.502
T5
X42.175Y-35.35
X42.575Y-34.65
X43.375Y-34.65
X43.775Y-35.35
X44.175Y-34.65
X44.575Y-35.35
X45.375Y-35.35
X45.775Y-34.65
X46.175Y-35.35
X46.575Y-34.65
X47.375Y-34.65
X47.775Y-35.35
T7
X56.64Y-40.16
X58.64Y-40.16
X60.64Y-40.16
X62.64Y-40.16
X64.64Y-40.16
X66.64Y-40.16
T8
X22.975Y-55.27
X22.975Y-57.81
X22.975Y-60.35
X22.975Y-62.89
X22.975Y-65.43
X22.975Y-67.97
X22.975Y-70.51
X22.975Y-73.05
X22.975Y-75.59
X34.65Y-85.805
X37.19Y-85.805
X37.355Y-32.309
X37.355Y-34.849
X37.355Y-37.389
X37.355Y-39.929
X39.73Y-85.805
X42.27Y-85.805
X44.81Y-85.805
X47.35Y-85.805
X49.89Y-85.805
X52.43Y-85.805
X52.595Y-32.309
X52.595Y-34.849
X52.595Y-37.389
X52.595Y-39.929
X54.97Y-85.805
X66.975Y-55.27
X66.975Y-57.81
X66.975Y-60.35
X66.975Y-62.89
X66.975Y-65.43
X66.975Y-67.97
X66.975Y-70.51
X66.975Y-73.05
X66.975Y-75.59
T9
X22.975Y-31.805
T6
G00X40.485Y-30.66
M15
G01X40.485Y-30.06
M16
G05
G00X40.77Y-35.05
M15
G01X40.77Y-34.45
M16
G05
G00X49.03Y-35.05
M15
G01X49.03Y-34.45
M16
G05
G00X49.465Y-30.66
M15
G01X49.465Y-30.06
M16
G05
T0
M30
