%TF.GenerationSoftware,KiCad,Pcbnew,(7.0.0)*%
%TF.CreationDate,2023-03-04T19:16:17-06:00*%
%TF.ProjectId,OpenRectangleBreakout,4f70656e-5265-4637-9461-6e676c654272,rev?*%
%TF.SameCoordinates,Original*%
%TF.FileFunction,Soldermask,Bot*%
%TF.FilePolarity,Negative*%
%FSLAX46Y46*%
G04 Gerber Fmt 4.6, Leading zero omitted, Abs format (unit mm)*
G04 Created by KiCad (PCBNEW (7.0.0)) date 2023-03-04 19:16:17*
%MOMM*%
%LPD*%
G01*
G04 APERTURE LIST*
%ADD10C,2.100000*%
%ADD11C,0.650000*%
%ADD12O,0.800000X1.400000*%
%ADD13R,1.700000X1.700000*%
%ADD14O,1.700000X1.700000*%
%ADD15C,3.800000*%
%ADD16R,1.350000X1.350000*%
%ADD17O,1.350000X1.350000*%
%ADD18C,0.990600*%
G04 APERTURE END LIST*
D10*
%TO.C,H4*%
X66974968Y-31804957D03*
%TD*%
%TO.C,H2*%
X22974968Y-85804957D03*
%TD*%
D11*
%TO.C,J1*%
X48574968Y-35999807D03*
X41224968Y-35999807D03*
X42174968Y-35349807D03*
X42574968Y-34649807D03*
X43374968Y-34649807D03*
X43774968Y-35349807D03*
X44174968Y-34649807D03*
X44574968Y-35349807D03*
X45374968Y-35349807D03*
X45774968Y-34649807D03*
X46174968Y-35349807D03*
X46574968Y-34649807D03*
X47374968Y-34649807D03*
X47774968Y-35349807D03*
D12*
X49464967Y-30359806D03*
X49029967Y-34749806D03*
X40769967Y-34749806D03*
X40484967Y-30359806D03*
%TD*%
D10*
%TO.C,H3*%
X66974968Y-85804957D03*
%TD*%
D13*
%TO.C,J6*%
X22974967Y-55269999D03*
D14*
X22974967Y-57809999D03*
X22974967Y-60349999D03*
X22974967Y-62889999D03*
X22974967Y-65429999D03*
X22974967Y-67969999D03*
X22974967Y-70509999D03*
X22974967Y-73049999D03*
X22974967Y-75589999D03*
%TD*%
D13*
%TO.C,J3*%
X52594967Y-32308806D03*
D14*
X52594967Y-34848806D03*
X52594967Y-37388806D03*
X52594967Y-39928806D03*
%TD*%
D15*
%TO.C,H1*%
X22974968Y-31804957D03*
%TD*%
D13*
%TO.C,J4*%
X37354967Y-32308806D03*
D14*
X37354967Y-34848806D03*
X37354967Y-37388806D03*
X37354967Y-39928806D03*
%TD*%
D16*
%TO.C,J5*%
X66639999Y-40159999D03*
X64639999Y-40159999D03*
X62639999Y-40159999D03*
D17*
X60639999Y-40159999D03*
X58639999Y-40159999D03*
X56639999Y-40159999D03*
%TD*%
D18*
%TO.C,J2*%
X52246468Y-71850000D03*
X53262468Y-76930000D03*
X51230468Y-76930000D03*
%TD*%
D13*
%TO.C,J8*%
X66974967Y-55269999D03*
D14*
X66974967Y-57809999D03*
X66974967Y-60349999D03*
X66974967Y-62889999D03*
X66974967Y-65429999D03*
X66974967Y-67969999D03*
X66974967Y-70509999D03*
X66974967Y-73049999D03*
X66974967Y-75589999D03*
%TD*%
D13*
%TO.C,J7*%
X34649999Y-85804956D03*
D14*
X37189999Y-85804956D03*
X39729999Y-85804956D03*
X42269999Y-85804956D03*
X44809999Y-85804956D03*
X47349999Y-85804956D03*
X49889999Y-85804956D03*
X52429999Y-85804956D03*
X54969999Y-85804956D03*
%TD*%
M02*
