%TF.GenerationSoftware,KiCad,Pcbnew,(7.0.0)*%
%TF.CreationDate,2023-03-20T16:27:45-06:00*%
%TF.ProjectId,OpenRectangleBreakout,4f70656e-5265-4637-9461-6e676c654272,rev?*%
%TF.SameCoordinates,Original*%
%TF.FileFunction,Drillmap*%
%TF.FilePolarity,Positive*%
%FSLAX45Y45*%
G04 Gerber Fmt 4.5, Leading zero omitted, Abs format (unit mm)*
G04 Created by KiCad (PCBNEW (7.0.0)) date 2023-03-20 16:27:45*
%MOMM*%
%LPD*%
G01*
G04 APERTURE LIST*
%ADD10C,0.100000*%
%ADD11C,0.200000*%
%ADD12C,0.030000*%
%ADD13C,0.035000*%
%ADD14C,0.040000*%
%ADD15C,0.050000*%
%ADD16C,0.080000*%
%ADD17C,0.220000*%
G04 APERTURE END LIST*
D10*
X6997497Y-3039247D02*
X6997497Y-8721747D01*
X1997497Y-3039247D02*
X1997497Y-8721747D01*
X4531163Y-2880497D02*
X6838747Y-2880497D01*
X1997496Y-8721747D02*
G75*
G03*
X2156247Y-8880497I158758J8D01*
G01*
X6838747Y-8880497D02*
G75*
G03*
X6997497Y-8721747I3J158747D01*
G01*
X2156247Y-2880497D02*
G75*
G03*
X1997497Y-3039247I0J-158750D01*
G01*
X2156247Y-2880497D02*
X4531163Y-2880497D01*
X6997503Y-3039247D02*
G75*
G03*
X6838747Y-2880497I-158753J-3D01*
G01*
X6838747Y-8880497D02*
X2156247Y-8880497D01*
D11*
D12*
X2945863Y-6248531D02*
X2975863Y-6278531D01*
X2975863Y-6248531D02*
X2945863Y-6278531D01*
X3014826Y-6208531D02*
X3044826Y-6238531D01*
X3044826Y-6208531D02*
X3014826Y-6238531D01*
X3079414Y-6168531D02*
X3109414Y-6198531D01*
X3109414Y-6168531D02*
X3079414Y-6198531D01*
X3143000Y-6128531D02*
X3173000Y-6158531D01*
X3173000Y-6128531D02*
X3143000Y-6158531D01*
X3463549Y-8125167D02*
X3493549Y-8155167D01*
X3493549Y-8125167D02*
X3463549Y-8155167D01*
X3503549Y-8193998D02*
X3533549Y-8223998D01*
X3533549Y-8193998D02*
X3503549Y-8223998D01*
X3543549Y-8260000D02*
X3573549Y-8290000D01*
X3573549Y-8260000D02*
X3543549Y-8290000D01*
X3561500Y-4573000D02*
X3591500Y-4603000D01*
X3591500Y-4573000D02*
X3561500Y-4603000D01*
X3735000Y-6450000D02*
X3765000Y-6480000D01*
X3765000Y-6450000D02*
X3735000Y-6480000D01*
X3759500Y-4469000D02*
X3789500Y-4499000D01*
X3789500Y-4469000D02*
X3759500Y-4499000D01*
X3890776Y-6671432D02*
X3920776Y-6701432D01*
X3920776Y-6671432D02*
X3890776Y-6701432D01*
X3911147Y-7325182D02*
X3941147Y-7355182D01*
X3941147Y-7325182D02*
X3911147Y-7355182D01*
X3932000Y-6608000D02*
X3962000Y-6638000D01*
X3962000Y-6608000D02*
X3932000Y-6638000D01*
X3932265Y-3982265D02*
X3962265Y-4012265D01*
X3962265Y-3982265D02*
X3932265Y-4012265D01*
X3959122Y-5826582D02*
X3989122Y-5856582D01*
X3989122Y-5826582D02*
X3959122Y-5856582D01*
X3977252Y-6542614D02*
X4007252Y-6572614D01*
X4007252Y-6542614D02*
X3977252Y-6572614D01*
X4166000Y-4058000D02*
X4196000Y-4088000D01*
X4196000Y-4058000D02*
X4166000Y-4088000D01*
X4224647Y-4568981D02*
X4254647Y-4598981D01*
X4254647Y-4568981D02*
X4224647Y-4598981D01*
X4291647Y-3819981D02*
X4321647Y-3849981D01*
X4321647Y-3819981D02*
X4291647Y-3849981D01*
X4297000Y-4043000D02*
X4327000Y-4073000D01*
X4327000Y-4043000D02*
X4297000Y-4073000D01*
X4403622Y-5407483D02*
X4433622Y-5437483D01*
X4433622Y-5407483D02*
X4403622Y-5437483D01*
X4419147Y-5710706D02*
X4449147Y-5740706D01*
X4449147Y-5710706D02*
X4419147Y-5740706D01*
X4505222Y-5661482D02*
X4535222Y-5691482D01*
X4535222Y-5661482D02*
X4505222Y-5691482D01*
X4514747Y-5358270D02*
X4544747Y-5388270D01*
X4544747Y-5358270D02*
X4514747Y-5388270D01*
X4517447Y-3760031D02*
X4547447Y-3790031D01*
X4547447Y-3760031D02*
X4517447Y-3790031D01*
X4517922Y-6944182D02*
X4547922Y-6974182D01*
X4547922Y-6944182D02*
X4517922Y-6974182D01*
X4572000Y-7232000D02*
X4602000Y-7262000D01*
X4602000Y-7232000D02*
X4572000Y-7262000D01*
X4581422Y-7591882D02*
X4611422Y-7621882D01*
X4611422Y-7591882D02*
X4581422Y-7621882D01*
X4600000Y-4148450D02*
X4630000Y-4178450D01*
X4630000Y-4148450D02*
X4600000Y-4178450D01*
X4676647Y-3819981D02*
X4706647Y-3849981D01*
X4706647Y-3819981D02*
X4676647Y-3849981D01*
X4705247Y-5358270D02*
X4735247Y-5388270D01*
X4735247Y-5358270D02*
X4705247Y-5388270D01*
X4810022Y-7033082D02*
X4840022Y-7063082D01*
X4840022Y-7033082D02*
X4810022Y-7063082D01*
X4838000Y-7131000D02*
X4868000Y-7161000D01*
X4868000Y-7131000D02*
X4838000Y-7161000D01*
X4860822Y-5559883D02*
X4890822Y-5589883D01*
X4890822Y-5559883D02*
X4860822Y-5589883D01*
X4897760Y-3956240D02*
X4927760Y-3986240D01*
X4927760Y-3956240D02*
X4897760Y-3986240D01*
X4947038Y-6323531D02*
X4977038Y-6353531D01*
X4977038Y-6323531D02*
X4947038Y-6353531D01*
X5025921Y-7572981D02*
X5055921Y-7602981D01*
X5055921Y-7572981D02*
X5025921Y-7602981D01*
X5029038Y-6323531D02*
X5059038Y-6353531D01*
X5059038Y-6323531D02*
X5029038Y-6353531D01*
X5041647Y-4690981D02*
X5071647Y-4720981D01*
X5071647Y-4690981D02*
X5041647Y-4720981D01*
X5065921Y-7320981D02*
X5095921Y-7350981D01*
X5095921Y-7320981D02*
X5065921Y-7350981D01*
X5089647Y-5497481D02*
X5119647Y-5527481D01*
X5119647Y-5497481D02*
X5089647Y-5527481D01*
X5176958Y-6070781D02*
X5206958Y-6100781D01*
X5206958Y-6070781D02*
X5176958Y-6100781D01*
X5176958Y-6151858D02*
X5206958Y-6181858D01*
X5206958Y-6151858D02*
X5176958Y-6181858D01*
X5176958Y-6231808D02*
X5206958Y-6261808D01*
X5206958Y-6231808D02*
X5176958Y-6261808D01*
X5178322Y-5740981D02*
X5208322Y-5770981D01*
X5208322Y-5740981D02*
X5178322Y-5770981D01*
X5314847Y-6717170D02*
X5344847Y-6747170D01*
X5344847Y-6717170D02*
X5314847Y-6747170D01*
X5350647Y-5381481D02*
X5380647Y-5411481D01*
X5380647Y-5381481D02*
X5350647Y-5411481D01*
X5458697Y-7442981D02*
X5488697Y-7472981D01*
X5488697Y-7442981D02*
X5458697Y-7472981D01*
X5459038Y-7776372D02*
X5489038Y-7806372D01*
X5489038Y-7776372D02*
X5459038Y-7806372D01*
X5728647Y-4517042D02*
X5758647Y-4547042D01*
X5758647Y-4517042D02*
X5728647Y-4547042D01*
D13*
X4575822Y-6548431D02*
G75*
G03*
X4575822Y-6548431I-17500J0D01*
G01*
X4588522Y-6124706D02*
G75*
G03*
X4588522Y-6124706I-17500J0D01*
G01*
X4370147Y-6193481D02*
X4370147Y-6228481D01*
X4352647Y-6210981D02*
X4387647Y-6210981D01*
X4370147Y-6320981D02*
X4370147Y-6355981D01*
X4352647Y-6338481D02*
X4387647Y-6338481D01*
X4370147Y-6448481D02*
X4370147Y-6483481D01*
X4352647Y-6465981D02*
X4387647Y-6465981D01*
X4497647Y-6193481D02*
X4497647Y-6228481D01*
X4480147Y-6210981D02*
X4515147Y-6210981D01*
X4497647Y-6320981D02*
X4497647Y-6355981D01*
X4480147Y-6338481D02*
X4515147Y-6338481D01*
X4497647Y-6448481D02*
X4497647Y-6483481D01*
X4480147Y-6465981D02*
X4515147Y-6465981D01*
X4625147Y-6193481D02*
X4625147Y-6228481D01*
X4607647Y-6210981D02*
X4642647Y-6210981D01*
X4625147Y-6320981D02*
X4625147Y-6355981D01*
X4607647Y-6338481D02*
X4642647Y-6338481D01*
X4625147Y-6448481D02*
X4625147Y-6483481D01*
X4607647Y-6465981D02*
X4642647Y-6465981D01*
D14*
X2913142Y-4879142D02*
X2913142Y-4850858D01*
X2884858Y-4850858D01*
X2884858Y-4879142D01*
X2913142Y-4879142D01*
X4739975Y-4264309D02*
X4739975Y-4236025D01*
X4711691Y-4236025D01*
X4711691Y-4264309D01*
X4739975Y-4264309D01*
X4217497Y-3554981D02*
X4237497Y-3534981D01*
X4217497Y-3514981D01*
X4197497Y-3534981D01*
X4217497Y-3554981D01*
X4257497Y-3484981D02*
X4277497Y-3464981D01*
X4257497Y-3444981D01*
X4237497Y-3464981D01*
X4257497Y-3484981D01*
X4337497Y-3484981D02*
X4357497Y-3464981D01*
X4337497Y-3444981D01*
X4317497Y-3464981D01*
X4337497Y-3484981D01*
X4377497Y-3554981D02*
X4397497Y-3534981D01*
X4377497Y-3514981D01*
X4357497Y-3534981D01*
X4377497Y-3554981D01*
X4417497Y-3484981D02*
X4437497Y-3464981D01*
X4417497Y-3444981D01*
X4397497Y-3464981D01*
X4417497Y-3484981D01*
X4457497Y-3554981D02*
X4477497Y-3534981D01*
X4457497Y-3514981D01*
X4437497Y-3534981D01*
X4457497Y-3554981D01*
X4537497Y-3554981D02*
X4557497Y-3534981D01*
X4537497Y-3514981D01*
X4517497Y-3534981D01*
X4537497Y-3554981D01*
X4577497Y-3484981D02*
X4597497Y-3464981D01*
X4577497Y-3444981D01*
X4557497Y-3464981D01*
X4577497Y-3484981D01*
X4617497Y-3554981D02*
X4637497Y-3534981D01*
X4617497Y-3514981D01*
X4597497Y-3534981D01*
X4617497Y-3554981D01*
X4657497Y-3484981D02*
X4677497Y-3464981D01*
X4657497Y-3444981D01*
X4637497Y-3464981D01*
X4657497Y-3484981D01*
X4737497Y-3484981D02*
X4757497Y-3464981D01*
X4737497Y-3444981D01*
X4717497Y-3464981D01*
X4737497Y-3484981D01*
X4777497Y-3554981D02*
X4797497Y-3534981D01*
X4777497Y-3514981D01*
X4757497Y-3534981D01*
X4777497Y-3554981D01*
D15*
X4023497Y-3010981D02*
X4073497Y-3060981D01*
X4073497Y-3010981D02*
X4023497Y-3060981D01*
X4073497Y-3035981D02*
G75*
G03*
X4073497Y-3035981I-25000J0D01*
G01*
D11*
X4073497Y-3065981D02*
X4073497Y-3005981D01*
X4073497Y-3005981D02*
G75*
G03*
X4023497Y-3005981I-25000J0D01*
G01*
X4023497Y-3005981D02*
X4023497Y-3065981D01*
X4023497Y-3065981D02*
G75*
G03*
X4073497Y-3065981I25000J0D01*
G01*
D15*
X4051997Y-3449981D02*
X4101997Y-3499981D01*
X4101997Y-3449981D02*
X4051997Y-3499981D01*
X4101997Y-3474981D02*
G75*
G03*
X4101997Y-3474981I-25000J0D01*
G01*
D11*
X4101997Y-3504981D02*
X4101997Y-3444981D01*
X4101997Y-3444981D02*
G75*
G03*
X4051997Y-3444981I-25000J0D01*
G01*
X4051997Y-3444981D02*
X4051997Y-3504981D01*
X4051997Y-3504981D02*
G75*
G03*
X4101997Y-3504981I25000J0D01*
G01*
D15*
X4877997Y-3449981D02*
X4927997Y-3499981D01*
X4927997Y-3449981D02*
X4877997Y-3499981D01*
X4927997Y-3474981D02*
G75*
G03*
X4927997Y-3474981I-25000J0D01*
G01*
D11*
X4927997Y-3504981D02*
X4927997Y-3444981D01*
X4927997Y-3444981D02*
G75*
G03*
X4877997Y-3444981I-25000J0D01*
G01*
X4877997Y-3444981D02*
X4877997Y-3504981D01*
X4877997Y-3504981D02*
G75*
G03*
X4927997Y-3504981I25000J0D01*
G01*
D15*
X4921497Y-3010981D02*
X4971497Y-3060981D01*
X4971497Y-3010981D02*
X4921497Y-3060981D01*
X4971497Y-3035981D02*
G75*
G03*
X4971497Y-3035981I-25000J0D01*
G01*
D11*
X4971497Y-3065981D02*
X4971497Y-3005981D01*
X4971497Y-3005981D02*
G75*
G03*
X4921497Y-3005981I-25000J0D01*
G01*
X4921497Y-3005981D02*
X4921497Y-3065981D01*
X4921497Y-3065981D02*
G75*
G03*
X4971497Y-3065981I25000J0D01*
G01*
D16*
X5624000Y-3976000D02*
X5704000Y-4056000D01*
X5704000Y-3976000D02*
X5624000Y-4056000D01*
X5664000Y-3976000D02*
X5664000Y-4056000D01*
X5624000Y-4016000D02*
X5704000Y-4016000D01*
X5824000Y-3976000D02*
X5904000Y-4056000D01*
X5904000Y-3976000D02*
X5824000Y-4056000D01*
X5864000Y-3976000D02*
X5864000Y-4056000D01*
X5824000Y-4016000D02*
X5904000Y-4016000D01*
X6024000Y-3976000D02*
X6104000Y-4056000D01*
X6104000Y-3976000D02*
X6024000Y-4056000D01*
X6064000Y-3976000D02*
X6064000Y-4056000D01*
X6024000Y-4016000D02*
X6104000Y-4016000D01*
X6224000Y-3976000D02*
X6304000Y-4056000D01*
X6304000Y-3976000D02*
X6224000Y-4056000D01*
X6264000Y-3976000D02*
X6264000Y-4056000D01*
X6224000Y-4016000D02*
X6304000Y-4016000D01*
X6424000Y-3976000D02*
X6504000Y-4056000D01*
X6504000Y-3976000D02*
X6424000Y-4056000D01*
X6464000Y-3976000D02*
X6464000Y-4056000D01*
X6424000Y-4016000D02*
X6504000Y-4016000D01*
X6624000Y-3976000D02*
X6704000Y-4056000D01*
X6704000Y-3976000D02*
X6624000Y-4056000D01*
X6664000Y-3976000D02*
X6664000Y-4056000D01*
X6624000Y-4016000D02*
X6704000Y-4016000D01*
D10*
X2247497Y-5477000D02*
X2347497Y-5577000D01*
X2347497Y-5477000D02*
X2247497Y-5577000D01*
X2332853Y-5562356D02*
X2332853Y-5491644D01*
X2262141Y-5491644D01*
X2262141Y-5562356D01*
X2332853Y-5562356D01*
X2247497Y-5731000D02*
X2347497Y-5831000D01*
X2347497Y-5731000D02*
X2247497Y-5831000D01*
X2332853Y-5816356D02*
X2332853Y-5745644D01*
X2262141Y-5745644D01*
X2262141Y-5816356D01*
X2332853Y-5816356D01*
X2247497Y-5985000D02*
X2347497Y-6085000D01*
X2347497Y-5985000D02*
X2247497Y-6085000D01*
X2332853Y-6070356D02*
X2332853Y-5999644D01*
X2262141Y-5999644D01*
X2262141Y-6070356D01*
X2332853Y-6070356D01*
X2247497Y-6239000D02*
X2347497Y-6339000D01*
X2347497Y-6239000D02*
X2247497Y-6339000D01*
X2332853Y-6324356D02*
X2332853Y-6253644D01*
X2262141Y-6253644D01*
X2262141Y-6324356D01*
X2332853Y-6324356D01*
X2247497Y-6493000D02*
X2347497Y-6593000D01*
X2347497Y-6493000D02*
X2247497Y-6593000D01*
X2332853Y-6578356D02*
X2332853Y-6507644D01*
X2262141Y-6507644D01*
X2262141Y-6578356D01*
X2332853Y-6578356D01*
X2247497Y-6747000D02*
X2347497Y-6847000D01*
X2347497Y-6747000D02*
X2247497Y-6847000D01*
X2332853Y-6832356D02*
X2332853Y-6761644D01*
X2262141Y-6761644D01*
X2262141Y-6832356D01*
X2332853Y-6832356D01*
X2247497Y-7001000D02*
X2347497Y-7101000D01*
X2347497Y-7001000D02*
X2247497Y-7101000D01*
X2332853Y-7086356D02*
X2332853Y-7015644D01*
X2262141Y-7015644D01*
X2262141Y-7086356D01*
X2332853Y-7086356D01*
X2247497Y-7255000D02*
X2347497Y-7355000D01*
X2347497Y-7255000D02*
X2247497Y-7355000D01*
X2332853Y-7340356D02*
X2332853Y-7269644D01*
X2262141Y-7269644D01*
X2262141Y-7340356D01*
X2332853Y-7340356D01*
X2247497Y-7509000D02*
X2347497Y-7609000D01*
X2347497Y-7509000D02*
X2247497Y-7609000D01*
X2332853Y-7594356D02*
X2332853Y-7523644D01*
X2262141Y-7523644D01*
X2262141Y-7594356D01*
X2332853Y-7594356D01*
X3415000Y-8530496D02*
X3515000Y-8630496D01*
X3515000Y-8530496D02*
X3415000Y-8630496D01*
X3500356Y-8615851D02*
X3500356Y-8545140D01*
X3429644Y-8545140D01*
X3429644Y-8615851D01*
X3500356Y-8615851D01*
X3669000Y-8530496D02*
X3769000Y-8630496D01*
X3769000Y-8530496D02*
X3669000Y-8630496D01*
X3754356Y-8615851D02*
X3754356Y-8545140D01*
X3683644Y-8545140D01*
X3683644Y-8615851D01*
X3754356Y-8615851D01*
X3685497Y-3180881D02*
X3785497Y-3280881D01*
X3785497Y-3180881D02*
X3685497Y-3280881D01*
X3770852Y-3266236D02*
X3770852Y-3195525D01*
X3700141Y-3195525D01*
X3700141Y-3266236D01*
X3770852Y-3266236D01*
X3685497Y-3434881D02*
X3785497Y-3534881D01*
X3785497Y-3434881D02*
X3685497Y-3534881D01*
X3770852Y-3520236D02*
X3770852Y-3449525D01*
X3700141Y-3449525D01*
X3700141Y-3520236D01*
X3770852Y-3520236D01*
X3685497Y-3688881D02*
X3785497Y-3788881D01*
X3785497Y-3688881D02*
X3685497Y-3788881D01*
X3770852Y-3774236D02*
X3770852Y-3703525D01*
X3700141Y-3703525D01*
X3700141Y-3774236D01*
X3770852Y-3774236D01*
X3685497Y-3942881D02*
X3785497Y-4042881D01*
X3785497Y-3942881D02*
X3685497Y-4042881D01*
X3770852Y-4028236D02*
X3770852Y-3957525D01*
X3700141Y-3957525D01*
X3700141Y-4028236D01*
X3770852Y-4028236D01*
X3923000Y-8530496D02*
X4023000Y-8630496D01*
X4023000Y-8530496D02*
X3923000Y-8630496D01*
X4008356Y-8615851D02*
X4008356Y-8545140D01*
X3937644Y-8545140D01*
X3937644Y-8615851D01*
X4008356Y-8615851D01*
X4177000Y-8530496D02*
X4277000Y-8630496D01*
X4277000Y-8530496D02*
X4177000Y-8630496D01*
X4262356Y-8615851D02*
X4262356Y-8545140D01*
X4191644Y-8545140D01*
X4191644Y-8615851D01*
X4262356Y-8615851D01*
X4431000Y-8530496D02*
X4531000Y-8630496D01*
X4531000Y-8530496D02*
X4431000Y-8630496D01*
X4516356Y-8615851D02*
X4516356Y-8545140D01*
X4445644Y-8545140D01*
X4445644Y-8615851D01*
X4516356Y-8615851D01*
X4685000Y-8530496D02*
X4785000Y-8630496D01*
X4785000Y-8530496D02*
X4685000Y-8630496D01*
X4770356Y-8615851D02*
X4770356Y-8545140D01*
X4699644Y-8545140D01*
X4699644Y-8615851D01*
X4770356Y-8615851D01*
X4939000Y-8530496D02*
X5039000Y-8630496D01*
X5039000Y-8530496D02*
X4939000Y-8630496D01*
X5024356Y-8615851D02*
X5024356Y-8545140D01*
X4953644Y-8545140D01*
X4953644Y-8615851D01*
X5024356Y-8615851D01*
X5193000Y-8530496D02*
X5293000Y-8630496D01*
X5293000Y-8530496D02*
X5193000Y-8630496D01*
X5278356Y-8615851D02*
X5278356Y-8545140D01*
X5207644Y-8545140D01*
X5207644Y-8615851D01*
X5278356Y-8615851D01*
X5209497Y-3180881D02*
X5309497Y-3280881D01*
X5309497Y-3180881D02*
X5209497Y-3280881D01*
X5294853Y-3266236D02*
X5294853Y-3195525D01*
X5224141Y-3195525D01*
X5224141Y-3266236D01*
X5294853Y-3266236D01*
X5209497Y-3434881D02*
X5309497Y-3534881D01*
X5309497Y-3434881D02*
X5209497Y-3534881D01*
X5294853Y-3520236D02*
X5294853Y-3449525D01*
X5224141Y-3449525D01*
X5224141Y-3520236D01*
X5294853Y-3520236D01*
X5209497Y-3688881D02*
X5309497Y-3788881D01*
X5309497Y-3688881D02*
X5209497Y-3788881D01*
X5294853Y-3774236D02*
X5294853Y-3703525D01*
X5224141Y-3703525D01*
X5224141Y-3774236D01*
X5294853Y-3774236D01*
X5209497Y-3942881D02*
X5309497Y-4042881D01*
X5309497Y-3942881D02*
X5209497Y-4042881D01*
X5294853Y-4028236D02*
X5294853Y-3957525D01*
X5224141Y-3957525D01*
X5224141Y-4028236D01*
X5294853Y-4028236D01*
X5447000Y-8530496D02*
X5547000Y-8630496D01*
X5547000Y-8530496D02*
X5447000Y-8630496D01*
X5532356Y-8615851D02*
X5532356Y-8545140D01*
X5461644Y-8545140D01*
X5461644Y-8615851D01*
X5532356Y-8615851D01*
X6647497Y-5477000D02*
X6747497Y-5577000D01*
X6747497Y-5477000D02*
X6647497Y-5577000D01*
X6732852Y-5562356D02*
X6732852Y-5491644D01*
X6662141Y-5491644D01*
X6662141Y-5562356D01*
X6732852Y-5562356D01*
X6647497Y-5731000D02*
X6747497Y-5831000D01*
X6747497Y-5731000D02*
X6647497Y-5831000D01*
X6732852Y-5816356D02*
X6732852Y-5745644D01*
X6662141Y-5745644D01*
X6662141Y-5816356D01*
X6732852Y-5816356D01*
X6647497Y-5985000D02*
X6747497Y-6085000D01*
X6747497Y-5985000D02*
X6647497Y-6085000D01*
X6732852Y-6070356D02*
X6732852Y-5999644D01*
X6662141Y-5999644D01*
X6662141Y-6070356D01*
X6732852Y-6070356D01*
X6647497Y-6239000D02*
X6747497Y-6339000D01*
X6747497Y-6239000D02*
X6647497Y-6339000D01*
X6732852Y-6324356D02*
X6732852Y-6253644D01*
X6662141Y-6253644D01*
X6662141Y-6324356D01*
X6732852Y-6324356D01*
X6647497Y-6493000D02*
X6747497Y-6593000D01*
X6747497Y-6493000D02*
X6647497Y-6593000D01*
X6732852Y-6578356D02*
X6732852Y-6507644D01*
X6662141Y-6507644D01*
X6662141Y-6578356D01*
X6732852Y-6578356D01*
X6647497Y-6747000D02*
X6747497Y-6847000D01*
X6747497Y-6747000D02*
X6647497Y-6847000D01*
X6732852Y-6832356D02*
X6732852Y-6761644D01*
X6662141Y-6761644D01*
X6662141Y-6832356D01*
X6732852Y-6832356D01*
X6647497Y-7001000D02*
X6747497Y-7101000D01*
X6747497Y-7001000D02*
X6647497Y-7101000D01*
X6732852Y-7086356D02*
X6732852Y-7015644D01*
X6662141Y-7015644D01*
X6662141Y-7086356D01*
X6732852Y-7086356D01*
X6647497Y-7255000D02*
X6747497Y-7355000D01*
X6747497Y-7255000D02*
X6647497Y-7355000D01*
X6732852Y-7340356D02*
X6732852Y-7269644D01*
X6662141Y-7269644D01*
X6662141Y-7340356D01*
X6732852Y-7340356D01*
X6647497Y-7509000D02*
X6747497Y-7609000D01*
X6747497Y-7509000D02*
X6647497Y-7609000D01*
X6732852Y-7594356D02*
X6732852Y-7523644D01*
X6662141Y-7523644D01*
X6662141Y-7594356D01*
X6732852Y-7594356D01*
D17*
X2187497Y-3070496D02*
X2407497Y-3290496D01*
X2407497Y-3070496D02*
X2187497Y-3290496D01*
X2297497Y-3290496D02*
X2407497Y-3180496D01*
X2297497Y-3070496D01*
X2187497Y-3180496D01*
X2297497Y-3290496D01*
D11*
X2240116Y-9178973D02*
X2240116Y-8978973D01*
X2240116Y-8978973D02*
X2287735Y-8978973D01*
X2287735Y-8978973D02*
X2316306Y-8988497D01*
X2316306Y-8988497D02*
X2335354Y-9007544D01*
X2335354Y-9007544D02*
X2344878Y-9026592D01*
X2344878Y-9026592D02*
X2354402Y-9064687D01*
X2354402Y-9064687D02*
X2354402Y-9093259D01*
X2354402Y-9093259D02*
X2344878Y-9131354D01*
X2344878Y-9131354D02*
X2335354Y-9150402D01*
X2335354Y-9150402D02*
X2316306Y-9169449D01*
X2316306Y-9169449D02*
X2287735Y-9178973D01*
X2287735Y-9178973D02*
X2240116Y-9178973D01*
X2440116Y-9178973D02*
X2440116Y-9045640D01*
X2440116Y-9083735D02*
X2449640Y-9064687D01*
X2449640Y-9064687D02*
X2459163Y-9055163D01*
X2459163Y-9055163D02*
X2478211Y-9045640D01*
X2478211Y-9045640D02*
X2497259Y-9045640D01*
X2563925Y-9178973D02*
X2563925Y-9045640D01*
X2563925Y-8978973D02*
X2554402Y-8988497D01*
X2554402Y-8988497D02*
X2563925Y-8998021D01*
X2563925Y-8998021D02*
X2573449Y-8988497D01*
X2573449Y-8988497D02*
X2563925Y-8978973D01*
X2563925Y-8978973D02*
X2563925Y-8998021D01*
X2687735Y-9178973D02*
X2668687Y-9169449D01*
X2668687Y-9169449D02*
X2659163Y-9150402D01*
X2659163Y-9150402D02*
X2659163Y-8978973D01*
X2792497Y-9178973D02*
X2773449Y-9169449D01*
X2773449Y-9169449D02*
X2763925Y-9150402D01*
X2763925Y-9150402D02*
X2763925Y-8978973D01*
X2988687Y-9178973D02*
X2988687Y-8978973D01*
X2988687Y-8978973D02*
X3055354Y-9121830D01*
X3055354Y-9121830D02*
X3122020Y-8978973D01*
X3122020Y-8978973D02*
X3122020Y-9178973D01*
X3302973Y-9178973D02*
X3302973Y-9074211D01*
X3302973Y-9074211D02*
X3293449Y-9055163D01*
X3293449Y-9055163D02*
X3274401Y-9045640D01*
X3274401Y-9045640D02*
X3236306Y-9045640D01*
X3236306Y-9045640D02*
X3217259Y-9055163D01*
X3302973Y-9169449D02*
X3283925Y-9178973D01*
X3283925Y-9178973D02*
X3236306Y-9178973D01*
X3236306Y-9178973D02*
X3217259Y-9169449D01*
X3217259Y-9169449D02*
X3207735Y-9150402D01*
X3207735Y-9150402D02*
X3207735Y-9131354D01*
X3207735Y-9131354D02*
X3217259Y-9112306D01*
X3217259Y-9112306D02*
X3236306Y-9102783D01*
X3236306Y-9102783D02*
X3283925Y-9102783D01*
X3283925Y-9102783D02*
X3302973Y-9093259D01*
X3398211Y-9045640D02*
X3398211Y-9245640D01*
X3398211Y-9055163D02*
X3417259Y-9045640D01*
X3417259Y-9045640D02*
X3455354Y-9045640D01*
X3455354Y-9045640D02*
X3474401Y-9055163D01*
X3474401Y-9055163D02*
X3483925Y-9064687D01*
X3483925Y-9064687D02*
X3493449Y-9083735D01*
X3493449Y-9083735D02*
X3493449Y-9140878D01*
X3493449Y-9140878D02*
X3483925Y-9159925D01*
X3483925Y-9159925D02*
X3474401Y-9169449D01*
X3474401Y-9169449D02*
X3455354Y-9178973D01*
X3455354Y-9178973D02*
X3417259Y-9178973D01*
X3417259Y-9178973D02*
X3398211Y-9169449D01*
X3579163Y-9159925D02*
X3588687Y-9169449D01*
X3588687Y-9169449D02*
X3579163Y-9178973D01*
X3579163Y-9178973D02*
X3569640Y-9169449D01*
X3569640Y-9169449D02*
X3579163Y-9159925D01*
X3579163Y-9159925D02*
X3579163Y-9178973D01*
X3579163Y-9055163D02*
X3588687Y-9064687D01*
X3588687Y-9064687D02*
X3579163Y-9074211D01*
X3579163Y-9074211D02*
X3569640Y-9064687D01*
X3569640Y-9064687D02*
X3579163Y-9055163D01*
X3579163Y-9055163D02*
X3579163Y-9074211D01*
D12*
X1962497Y-9510497D02*
X1992497Y-9540497D01*
X1992497Y-9510497D02*
X1962497Y-9540497D01*
D11*
X2278211Y-9398973D02*
X2297259Y-9398973D01*
X2297259Y-9398973D02*
X2316306Y-9408497D01*
X2316306Y-9408497D02*
X2325830Y-9418021D01*
X2325830Y-9418021D02*
X2335354Y-9437068D01*
X2335354Y-9437068D02*
X2344878Y-9475163D01*
X2344878Y-9475163D02*
X2344878Y-9522783D01*
X2344878Y-9522783D02*
X2335354Y-9560878D01*
X2335354Y-9560878D02*
X2325830Y-9579925D01*
X2325830Y-9579925D02*
X2316306Y-9589449D01*
X2316306Y-9589449D02*
X2297259Y-9598973D01*
X2297259Y-9598973D02*
X2278211Y-9598973D01*
X2278211Y-9598973D02*
X2259163Y-9589449D01*
X2259163Y-9589449D02*
X2249640Y-9579925D01*
X2249640Y-9579925D02*
X2240116Y-9560878D01*
X2240116Y-9560878D02*
X2230592Y-9522783D01*
X2230592Y-9522783D02*
X2230592Y-9475163D01*
X2230592Y-9475163D02*
X2240116Y-9437068D01*
X2240116Y-9437068D02*
X2249640Y-9418021D01*
X2249640Y-9418021D02*
X2259163Y-9408497D01*
X2259163Y-9408497D02*
X2278211Y-9398973D01*
X2430592Y-9579925D02*
X2440116Y-9589449D01*
X2440116Y-9589449D02*
X2430592Y-9598973D01*
X2430592Y-9598973D02*
X2421068Y-9589449D01*
X2421068Y-9589449D02*
X2430592Y-9579925D01*
X2430592Y-9579925D02*
X2430592Y-9598973D01*
X2506783Y-9398973D02*
X2630592Y-9398973D01*
X2630592Y-9398973D02*
X2563925Y-9475163D01*
X2563925Y-9475163D02*
X2592497Y-9475163D01*
X2592497Y-9475163D02*
X2611544Y-9484687D01*
X2611544Y-9484687D02*
X2621068Y-9494211D01*
X2621068Y-9494211D02*
X2630592Y-9513259D01*
X2630592Y-9513259D02*
X2630592Y-9560878D01*
X2630592Y-9560878D02*
X2621068Y-9579925D01*
X2621068Y-9579925D02*
X2611544Y-9589449D01*
X2611544Y-9589449D02*
X2592497Y-9598973D01*
X2592497Y-9598973D02*
X2535354Y-9598973D01*
X2535354Y-9598973D02*
X2516306Y-9589449D01*
X2516306Y-9589449D02*
X2506783Y-9579925D01*
X2754402Y-9398973D02*
X2773449Y-9398973D01*
X2773449Y-9398973D02*
X2792497Y-9408497D01*
X2792497Y-9408497D02*
X2802021Y-9418021D01*
X2802021Y-9418021D02*
X2811544Y-9437068D01*
X2811544Y-9437068D02*
X2821068Y-9475163D01*
X2821068Y-9475163D02*
X2821068Y-9522783D01*
X2821068Y-9522783D02*
X2811544Y-9560878D01*
X2811544Y-9560878D02*
X2802021Y-9579925D01*
X2802021Y-9579925D02*
X2792497Y-9589449D01*
X2792497Y-9589449D02*
X2773449Y-9598973D01*
X2773449Y-9598973D02*
X2754402Y-9598973D01*
X2754402Y-9598973D02*
X2735354Y-9589449D01*
X2735354Y-9589449D02*
X2725830Y-9579925D01*
X2725830Y-9579925D02*
X2716306Y-9560878D01*
X2716306Y-9560878D02*
X2706783Y-9522783D01*
X2706783Y-9522783D02*
X2706783Y-9475163D01*
X2706783Y-9475163D02*
X2716306Y-9437068D01*
X2716306Y-9437068D02*
X2725830Y-9418021D01*
X2725830Y-9418021D02*
X2735354Y-9408497D01*
X2735354Y-9408497D02*
X2754402Y-9398973D01*
X2944878Y-9398973D02*
X2963925Y-9398973D01*
X2963925Y-9398973D02*
X2982973Y-9408497D01*
X2982973Y-9408497D02*
X2992497Y-9418021D01*
X2992497Y-9418021D02*
X3002021Y-9437068D01*
X3002021Y-9437068D02*
X3011544Y-9475163D01*
X3011544Y-9475163D02*
X3011544Y-9522783D01*
X3011544Y-9522783D02*
X3002021Y-9560878D01*
X3002021Y-9560878D02*
X2992497Y-9579925D01*
X2992497Y-9579925D02*
X2982973Y-9589449D01*
X2982973Y-9589449D02*
X2963925Y-9598973D01*
X2963925Y-9598973D02*
X2944878Y-9598973D01*
X2944878Y-9598973D02*
X2925830Y-9589449D01*
X2925830Y-9589449D02*
X2916306Y-9579925D01*
X2916306Y-9579925D02*
X2906782Y-9560878D01*
X2906782Y-9560878D02*
X2897259Y-9522783D01*
X2897259Y-9522783D02*
X2897259Y-9475163D01*
X2897259Y-9475163D02*
X2906782Y-9437068D01*
X2906782Y-9437068D02*
X2916306Y-9418021D01*
X2916306Y-9418021D02*
X2925830Y-9408497D01*
X2925830Y-9408497D02*
X2944878Y-9398973D01*
X3097259Y-9598973D02*
X3097259Y-9465640D01*
X3097259Y-9484687D02*
X3106782Y-9475163D01*
X3106782Y-9475163D02*
X3125830Y-9465640D01*
X3125830Y-9465640D02*
X3154402Y-9465640D01*
X3154402Y-9465640D02*
X3173449Y-9475163D01*
X3173449Y-9475163D02*
X3182973Y-9494211D01*
X3182973Y-9494211D02*
X3182973Y-9598973D01*
X3182973Y-9494211D02*
X3192497Y-9475163D01*
X3192497Y-9475163D02*
X3211544Y-9465640D01*
X3211544Y-9465640D02*
X3240116Y-9465640D01*
X3240116Y-9465640D02*
X3259163Y-9475163D01*
X3259163Y-9475163D02*
X3268687Y-9494211D01*
X3268687Y-9494211D02*
X3268687Y-9598973D01*
X3363925Y-9598973D02*
X3363925Y-9465640D01*
X3363925Y-9484687D02*
X3373449Y-9475163D01*
X3373449Y-9475163D02*
X3392497Y-9465640D01*
X3392497Y-9465640D02*
X3421068Y-9465640D01*
X3421068Y-9465640D02*
X3440116Y-9475163D01*
X3440116Y-9475163D02*
X3449640Y-9494211D01*
X3449640Y-9494211D02*
X3449640Y-9598973D01*
X3449640Y-9494211D02*
X3459163Y-9475163D01*
X3459163Y-9475163D02*
X3478211Y-9465640D01*
X3478211Y-9465640D02*
X3506782Y-9465640D01*
X3506782Y-9465640D02*
X3525830Y-9475163D01*
X3525830Y-9475163D02*
X3535354Y-9494211D01*
X3535354Y-9494211D02*
X3535354Y-9598973D01*
X3893449Y-9389449D02*
X3722021Y-9646592D01*
X4118211Y-9398973D02*
X4137259Y-9398973D01*
X4137259Y-9398973D02*
X4156306Y-9408497D01*
X4156306Y-9408497D02*
X4165830Y-9418021D01*
X4165830Y-9418021D02*
X4175354Y-9437068D01*
X4175354Y-9437068D02*
X4184878Y-9475163D01*
X4184878Y-9475163D02*
X4184878Y-9522783D01*
X4184878Y-9522783D02*
X4175354Y-9560878D01*
X4175354Y-9560878D02*
X4165830Y-9579925D01*
X4165830Y-9579925D02*
X4156306Y-9589449D01*
X4156306Y-9589449D02*
X4137259Y-9598973D01*
X4137259Y-9598973D02*
X4118211Y-9598973D01*
X4118211Y-9598973D02*
X4099163Y-9589449D01*
X4099163Y-9589449D02*
X4089640Y-9579925D01*
X4089640Y-9579925D02*
X4080116Y-9560878D01*
X4080116Y-9560878D02*
X4070592Y-9522783D01*
X4070592Y-9522783D02*
X4070592Y-9475163D01*
X4070592Y-9475163D02*
X4080116Y-9437068D01*
X4080116Y-9437068D02*
X4089640Y-9418021D01*
X4089640Y-9418021D02*
X4099163Y-9408497D01*
X4099163Y-9408497D02*
X4118211Y-9398973D01*
X4270592Y-9579925D02*
X4280116Y-9589449D01*
X4280116Y-9589449D02*
X4270592Y-9598973D01*
X4270592Y-9598973D02*
X4261068Y-9589449D01*
X4261068Y-9589449D02*
X4270592Y-9579925D01*
X4270592Y-9579925D02*
X4270592Y-9598973D01*
X4403925Y-9398973D02*
X4422973Y-9398973D01*
X4422973Y-9398973D02*
X4442021Y-9408497D01*
X4442021Y-9408497D02*
X4451545Y-9418021D01*
X4451545Y-9418021D02*
X4461068Y-9437068D01*
X4461068Y-9437068D02*
X4470592Y-9475163D01*
X4470592Y-9475163D02*
X4470592Y-9522783D01*
X4470592Y-9522783D02*
X4461068Y-9560878D01*
X4461068Y-9560878D02*
X4451545Y-9579925D01*
X4451545Y-9579925D02*
X4442021Y-9589449D01*
X4442021Y-9589449D02*
X4422973Y-9598973D01*
X4422973Y-9598973D02*
X4403925Y-9598973D01*
X4403925Y-9598973D02*
X4384878Y-9589449D01*
X4384878Y-9589449D02*
X4375354Y-9579925D01*
X4375354Y-9579925D02*
X4365830Y-9560878D01*
X4365830Y-9560878D02*
X4356306Y-9522783D01*
X4356306Y-9522783D02*
X4356306Y-9475163D01*
X4356306Y-9475163D02*
X4365830Y-9437068D01*
X4365830Y-9437068D02*
X4375354Y-9418021D01*
X4375354Y-9418021D02*
X4384878Y-9408497D01*
X4384878Y-9408497D02*
X4403925Y-9398973D01*
X4661068Y-9598973D02*
X4546783Y-9598973D01*
X4603925Y-9598973D02*
X4603925Y-9398973D01*
X4603925Y-9398973D02*
X4584878Y-9427544D01*
X4584878Y-9427544D02*
X4565830Y-9446592D01*
X4565830Y-9446592D02*
X4546783Y-9456116D01*
X4851545Y-9598973D02*
X4737259Y-9598973D01*
X4794402Y-9598973D02*
X4794402Y-9398973D01*
X4794402Y-9398973D02*
X4775354Y-9427544D01*
X4775354Y-9427544D02*
X4756306Y-9446592D01*
X4756306Y-9446592D02*
X4737259Y-9456116D01*
X4965830Y-9484687D02*
X4946783Y-9475163D01*
X4946783Y-9475163D02*
X4937259Y-9465640D01*
X4937259Y-9465640D02*
X4927735Y-9446592D01*
X4927735Y-9446592D02*
X4927735Y-9437068D01*
X4927735Y-9437068D02*
X4937259Y-9418021D01*
X4937259Y-9418021D02*
X4946783Y-9408497D01*
X4946783Y-9408497D02*
X4965830Y-9398973D01*
X4965830Y-9398973D02*
X5003926Y-9398973D01*
X5003926Y-9398973D02*
X5022973Y-9408497D01*
X5022973Y-9408497D02*
X5032497Y-9418021D01*
X5032497Y-9418021D02*
X5042021Y-9437068D01*
X5042021Y-9437068D02*
X5042021Y-9446592D01*
X5042021Y-9446592D02*
X5032497Y-9465640D01*
X5032497Y-9465640D02*
X5022973Y-9475163D01*
X5022973Y-9475163D02*
X5003926Y-9484687D01*
X5003926Y-9484687D02*
X4965830Y-9484687D01*
X4965830Y-9484687D02*
X4946783Y-9494211D01*
X4946783Y-9494211D02*
X4937259Y-9503735D01*
X4937259Y-9503735D02*
X4927735Y-9522783D01*
X4927735Y-9522783D02*
X4927735Y-9560878D01*
X4927735Y-9560878D02*
X4937259Y-9579925D01*
X4937259Y-9579925D02*
X4946783Y-9589449D01*
X4946783Y-9589449D02*
X4965830Y-9598973D01*
X4965830Y-9598973D02*
X5003926Y-9598973D01*
X5003926Y-9598973D02*
X5022973Y-9589449D01*
X5022973Y-9589449D02*
X5032497Y-9579925D01*
X5032497Y-9579925D02*
X5042021Y-9560878D01*
X5042021Y-9560878D02*
X5042021Y-9522783D01*
X5042021Y-9522783D02*
X5032497Y-9503735D01*
X5032497Y-9503735D02*
X5022973Y-9494211D01*
X5022973Y-9494211D02*
X5003926Y-9484687D01*
X5118211Y-9398973D02*
X5118211Y-9437068D01*
X5194402Y-9398973D02*
X5194402Y-9437068D01*
X5457259Y-9675163D02*
X5447735Y-9665640D01*
X5447735Y-9665640D02*
X5428687Y-9637068D01*
X5428687Y-9637068D02*
X5419164Y-9618021D01*
X5419164Y-9618021D02*
X5409640Y-9589449D01*
X5409640Y-9589449D02*
X5400116Y-9541830D01*
X5400116Y-9541830D02*
X5400116Y-9503735D01*
X5400116Y-9503735D02*
X5409640Y-9456116D01*
X5409640Y-9456116D02*
X5419164Y-9427544D01*
X5419164Y-9427544D02*
X5428687Y-9408497D01*
X5428687Y-9408497D02*
X5447735Y-9379925D01*
X5447735Y-9379925D02*
X5457259Y-9370402D01*
X5628687Y-9398973D02*
X5533449Y-9398973D01*
X5533449Y-9398973D02*
X5523926Y-9494211D01*
X5523926Y-9494211D02*
X5533449Y-9484687D01*
X5533449Y-9484687D02*
X5552497Y-9475163D01*
X5552497Y-9475163D02*
X5600116Y-9475163D01*
X5600116Y-9475163D02*
X5619164Y-9484687D01*
X5619164Y-9484687D02*
X5628687Y-9494211D01*
X5628687Y-9494211D02*
X5638211Y-9513259D01*
X5638211Y-9513259D02*
X5638211Y-9560878D01*
X5638211Y-9560878D02*
X5628687Y-9579925D01*
X5628687Y-9579925D02*
X5619164Y-9589449D01*
X5619164Y-9589449D02*
X5600116Y-9598973D01*
X5600116Y-9598973D02*
X5552497Y-9598973D01*
X5552497Y-9598973D02*
X5533449Y-9589449D01*
X5533449Y-9589449D02*
X5523926Y-9579925D01*
X5762021Y-9398973D02*
X5781068Y-9398973D01*
X5781068Y-9398973D02*
X5800116Y-9408497D01*
X5800116Y-9408497D02*
X5809640Y-9418021D01*
X5809640Y-9418021D02*
X5819164Y-9437068D01*
X5819164Y-9437068D02*
X5828687Y-9475163D01*
X5828687Y-9475163D02*
X5828687Y-9522783D01*
X5828687Y-9522783D02*
X5819164Y-9560878D01*
X5819164Y-9560878D02*
X5809640Y-9579925D01*
X5809640Y-9579925D02*
X5800116Y-9589449D01*
X5800116Y-9589449D02*
X5781068Y-9598973D01*
X5781068Y-9598973D02*
X5762021Y-9598973D01*
X5762021Y-9598973D02*
X5742973Y-9589449D01*
X5742973Y-9589449D02*
X5733449Y-9579925D01*
X5733449Y-9579925D02*
X5723925Y-9560878D01*
X5723925Y-9560878D02*
X5714402Y-9522783D01*
X5714402Y-9522783D02*
X5714402Y-9475163D01*
X5714402Y-9475163D02*
X5723925Y-9437068D01*
X5723925Y-9437068D02*
X5733449Y-9418021D01*
X5733449Y-9418021D02*
X5742973Y-9408497D01*
X5742973Y-9408497D02*
X5762021Y-9398973D01*
X6034402Y-9598973D02*
X6034402Y-9398973D01*
X6120116Y-9598973D02*
X6120116Y-9494211D01*
X6120116Y-9494211D02*
X6110592Y-9475163D01*
X6110592Y-9475163D02*
X6091545Y-9465640D01*
X6091545Y-9465640D02*
X6062973Y-9465640D01*
X6062973Y-9465640D02*
X6043925Y-9475163D01*
X6043925Y-9475163D02*
X6034402Y-9484687D01*
X6243925Y-9598973D02*
X6224878Y-9589449D01*
X6224878Y-9589449D02*
X6215354Y-9579925D01*
X6215354Y-9579925D02*
X6205830Y-9560878D01*
X6205830Y-9560878D02*
X6205830Y-9503735D01*
X6205830Y-9503735D02*
X6215354Y-9484687D01*
X6215354Y-9484687D02*
X6224878Y-9475163D01*
X6224878Y-9475163D02*
X6243925Y-9465640D01*
X6243925Y-9465640D02*
X6272497Y-9465640D01*
X6272497Y-9465640D02*
X6291545Y-9475163D01*
X6291545Y-9475163D02*
X6301068Y-9484687D01*
X6301068Y-9484687D02*
X6310592Y-9503735D01*
X6310592Y-9503735D02*
X6310592Y-9560878D01*
X6310592Y-9560878D02*
X6301068Y-9579925D01*
X6301068Y-9579925D02*
X6291545Y-9589449D01*
X6291545Y-9589449D02*
X6272497Y-9598973D01*
X6272497Y-9598973D02*
X6243925Y-9598973D01*
X6424878Y-9598973D02*
X6405830Y-9589449D01*
X6405830Y-9589449D02*
X6396306Y-9570402D01*
X6396306Y-9570402D02*
X6396306Y-9398973D01*
X6577259Y-9589449D02*
X6558211Y-9598973D01*
X6558211Y-9598973D02*
X6520116Y-9598973D01*
X6520116Y-9598973D02*
X6501068Y-9589449D01*
X6501068Y-9589449D02*
X6491545Y-9570402D01*
X6491545Y-9570402D02*
X6491545Y-9494211D01*
X6491545Y-9494211D02*
X6501068Y-9475163D01*
X6501068Y-9475163D02*
X6520116Y-9465640D01*
X6520116Y-9465640D02*
X6558211Y-9465640D01*
X6558211Y-9465640D02*
X6577259Y-9475163D01*
X6577259Y-9475163D02*
X6586783Y-9494211D01*
X6586783Y-9494211D02*
X6586783Y-9513259D01*
X6586783Y-9513259D02*
X6491545Y-9532306D01*
X6662973Y-9589449D02*
X6682021Y-9598973D01*
X6682021Y-9598973D02*
X6720116Y-9598973D01*
X6720116Y-9598973D02*
X6739164Y-9589449D01*
X6739164Y-9589449D02*
X6748687Y-9570402D01*
X6748687Y-9570402D02*
X6748687Y-9560878D01*
X6748687Y-9560878D02*
X6739164Y-9541830D01*
X6739164Y-9541830D02*
X6720116Y-9532306D01*
X6720116Y-9532306D02*
X6691545Y-9532306D01*
X6691545Y-9532306D02*
X6672497Y-9522783D01*
X6672497Y-9522783D02*
X6662973Y-9503735D01*
X6662973Y-9503735D02*
X6662973Y-9494211D01*
X6662973Y-9494211D02*
X6672497Y-9475163D01*
X6672497Y-9475163D02*
X6691545Y-9465640D01*
X6691545Y-9465640D02*
X6720116Y-9465640D01*
X6720116Y-9465640D02*
X6739164Y-9475163D01*
X6815354Y-9675163D02*
X6824878Y-9665640D01*
X6824878Y-9665640D02*
X6843926Y-9637068D01*
X6843926Y-9637068D02*
X6853449Y-9618021D01*
X6853449Y-9618021D02*
X6862973Y-9589449D01*
X6862973Y-9589449D02*
X6872497Y-9541830D01*
X6872497Y-9541830D02*
X6872497Y-9503735D01*
X6872497Y-9503735D02*
X6862973Y-9456116D01*
X6862973Y-9456116D02*
X6853449Y-9427544D01*
X6853449Y-9427544D02*
X6843926Y-9408497D01*
X6843926Y-9408497D02*
X6824878Y-9379925D01*
X6824878Y-9379925D02*
X6815354Y-9370402D01*
D13*
X1992497Y-9789497D02*
G75*
G03*
X1992497Y-9789497I-17500J0D01*
G01*
D11*
X2278211Y-9662973D02*
X2297259Y-9662973D01*
X2297259Y-9662973D02*
X2316306Y-9672497D01*
X2316306Y-9672497D02*
X2325830Y-9682021D01*
X2325830Y-9682021D02*
X2335354Y-9701068D01*
X2335354Y-9701068D02*
X2344878Y-9739163D01*
X2344878Y-9739163D02*
X2344878Y-9786783D01*
X2344878Y-9786783D02*
X2335354Y-9824878D01*
X2335354Y-9824878D02*
X2325830Y-9843925D01*
X2325830Y-9843925D02*
X2316306Y-9853449D01*
X2316306Y-9853449D02*
X2297259Y-9862973D01*
X2297259Y-9862973D02*
X2278211Y-9862973D01*
X2278211Y-9862973D02*
X2259163Y-9853449D01*
X2259163Y-9853449D02*
X2249640Y-9843925D01*
X2249640Y-9843925D02*
X2240116Y-9824878D01*
X2240116Y-9824878D02*
X2230592Y-9786783D01*
X2230592Y-9786783D02*
X2230592Y-9739163D01*
X2230592Y-9739163D02*
X2240116Y-9701068D01*
X2240116Y-9701068D02*
X2249640Y-9682021D01*
X2249640Y-9682021D02*
X2259163Y-9672497D01*
X2259163Y-9672497D02*
X2278211Y-9662973D01*
X2430592Y-9843925D02*
X2440116Y-9853449D01*
X2440116Y-9853449D02*
X2430592Y-9862973D01*
X2430592Y-9862973D02*
X2421068Y-9853449D01*
X2421068Y-9853449D02*
X2430592Y-9843925D01*
X2430592Y-9843925D02*
X2430592Y-9862973D01*
X2506783Y-9662973D02*
X2630592Y-9662973D01*
X2630592Y-9662973D02*
X2563925Y-9739163D01*
X2563925Y-9739163D02*
X2592497Y-9739163D01*
X2592497Y-9739163D02*
X2611544Y-9748687D01*
X2611544Y-9748687D02*
X2621068Y-9758211D01*
X2621068Y-9758211D02*
X2630592Y-9777259D01*
X2630592Y-9777259D02*
X2630592Y-9824878D01*
X2630592Y-9824878D02*
X2621068Y-9843925D01*
X2621068Y-9843925D02*
X2611544Y-9853449D01*
X2611544Y-9853449D02*
X2592497Y-9862973D01*
X2592497Y-9862973D02*
X2535354Y-9862973D01*
X2535354Y-9862973D02*
X2516306Y-9853449D01*
X2516306Y-9853449D02*
X2506783Y-9843925D01*
X2811544Y-9662973D02*
X2716306Y-9662973D01*
X2716306Y-9662973D02*
X2706783Y-9758211D01*
X2706783Y-9758211D02*
X2716306Y-9748687D01*
X2716306Y-9748687D02*
X2735354Y-9739163D01*
X2735354Y-9739163D02*
X2782973Y-9739163D01*
X2782973Y-9739163D02*
X2802021Y-9748687D01*
X2802021Y-9748687D02*
X2811544Y-9758211D01*
X2811544Y-9758211D02*
X2821068Y-9777259D01*
X2821068Y-9777259D02*
X2821068Y-9824878D01*
X2821068Y-9824878D02*
X2811544Y-9843925D01*
X2811544Y-9843925D02*
X2802021Y-9853449D01*
X2802021Y-9853449D02*
X2782973Y-9862973D01*
X2782973Y-9862973D02*
X2735354Y-9862973D01*
X2735354Y-9862973D02*
X2716306Y-9853449D01*
X2716306Y-9853449D02*
X2706783Y-9843925D01*
X2944878Y-9662973D02*
X2963925Y-9662973D01*
X2963925Y-9662973D02*
X2982973Y-9672497D01*
X2982973Y-9672497D02*
X2992497Y-9682021D01*
X2992497Y-9682021D02*
X3002021Y-9701068D01*
X3002021Y-9701068D02*
X3011544Y-9739163D01*
X3011544Y-9739163D02*
X3011544Y-9786783D01*
X3011544Y-9786783D02*
X3002021Y-9824878D01*
X3002021Y-9824878D02*
X2992497Y-9843925D01*
X2992497Y-9843925D02*
X2982973Y-9853449D01*
X2982973Y-9853449D02*
X2963925Y-9862973D01*
X2963925Y-9862973D02*
X2944878Y-9862973D01*
X2944878Y-9862973D02*
X2925830Y-9853449D01*
X2925830Y-9853449D02*
X2916306Y-9843925D01*
X2916306Y-9843925D02*
X2906782Y-9824878D01*
X2906782Y-9824878D02*
X2897259Y-9786783D01*
X2897259Y-9786783D02*
X2897259Y-9739163D01*
X2897259Y-9739163D02*
X2906782Y-9701068D01*
X2906782Y-9701068D02*
X2916306Y-9682021D01*
X2916306Y-9682021D02*
X2925830Y-9672497D01*
X2925830Y-9672497D02*
X2944878Y-9662973D01*
X3097259Y-9862973D02*
X3097259Y-9729640D01*
X3097259Y-9748687D02*
X3106782Y-9739163D01*
X3106782Y-9739163D02*
X3125830Y-9729640D01*
X3125830Y-9729640D02*
X3154402Y-9729640D01*
X3154402Y-9729640D02*
X3173449Y-9739163D01*
X3173449Y-9739163D02*
X3182973Y-9758211D01*
X3182973Y-9758211D02*
X3182973Y-9862973D01*
X3182973Y-9758211D02*
X3192497Y-9739163D01*
X3192497Y-9739163D02*
X3211544Y-9729640D01*
X3211544Y-9729640D02*
X3240116Y-9729640D01*
X3240116Y-9729640D02*
X3259163Y-9739163D01*
X3259163Y-9739163D02*
X3268687Y-9758211D01*
X3268687Y-9758211D02*
X3268687Y-9862973D01*
X3363925Y-9862973D02*
X3363925Y-9729640D01*
X3363925Y-9748687D02*
X3373449Y-9739163D01*
X3373449Y-9739163D02*
X3392497Y-9729640D01*
X3392497Y-9729640D02*
X3421068Y-9729640D01*
X3421068Y-9729640D02*
X3440116Y-9739163D01*
X3440116Y-9739163D02*
X3449640Y-9758211D01*
X3449640Y-9758211D02*
X3449640Y-9862973D01*
X3449640Y-9758211D02*
X3459163Y-9739163D01*
X3459163Y-9739163D02*
X3478211Y-9729640D01*
X3478211Y-9729640D02*
X3506782Y-9729640D01*
X3506782Y-9729640D02*
X3525830Y-9739163D01*
X3525830Y-9739163D02*
X3535354Y-9758211D01*
X3535354Y-9758211D02*
X3535354Y-9862973D01*
X3893449Y-9653449D02*
X3722021Y-9910592D01*
X4118211Y-9662973D02*
X4137259Y-9662973D01*
X4137259Y-9662973D02*
X4156306Y-9672497D01*
X4156306Y-9672497D02*
X4165830Y-9682021D01*
X4165830Y-9682021D02*
X4175354Y-9701068D01*
X4175354Y-9701068D02*
X4184878Y-9739163D01*
X4184878Y-9739163D02*
X4184878Y-9786783D01*
X4184878Y-9786783D02*
X4175354Y-9824878D01*
X4175354Y-9824878D02*
X4165830Y-9843925D01*
X4165830Y-9843925D02*
X4156306Y-9853449D01*
X4156306Y-9853449D02*
X4137259Y-9862973D01*
X4137259Y-9862973D02*
X4118211Y-9862973D01*
X4118211Y-9862973D02*
X4099163Y-9853449D01*
X4099163Y-9853449D02*
X4089640Y-9843925D01*
X4089640Y-9843925D02*
X4080116Y-9824878D01*
X4080116Y-9824878D02*
X4070592Y-9786783D01*
X4070592Y-9786783D02*
X4070592Y-9739163D01*
X4070592Y-9739163D02*
X4080116Y-9701068D01*
X4080116Y-9701068D02*
X4089640Y-9682021D01*
X4089640Y-9682021D02*
X4099163Y-9672497D01*
X4099163Y-9672497D02*
X4118211Y-9662973D01*
X4270592Y-9843925D02*
X4280116Y-9853449D01*
X4280116Y-9853449D02*
X4270592Y-9862973D01*
X4270592Y-9862973D02*
X4261068Y-9853449D01*
X4261068Y-9853449D02*
X4270592Y-9843925D01*
X4270592Y-9843925D02*
X4270592Y-9862973D01*
X4403925Y-9662973D02*
X4422973Y-9662973D01*
X4422973Y-9662973D02*
X4442021Y-9672497D01*
X4442021Y-9672497D02*
X4451545Y-9682021D01*
X4451545Y-9682021D02*
X4461068Y-9701068D01*
X4461068Y-9701068D02*
X4470592Y-9739163D01*
X4470592Y-9739163D02*
X4470592Y-9786783D01*
X4470592Y-9786783D02*
X4461068Y-9824878D01*
X4461068Y-9824878D02*
X4451545Y-9843925D01*
X4451545Y-9843925D02*
X4442021Y-9853449D01*
X4442021Y-9853449D02*
X4422973Y-9862973D01*
X4422973Y-9862973D02*
X4403925Y-9862973D01*
X4403925Y-9862973D02*
X4384878Y-9853449D01*
X4384878Y-9853449D02*
X4375354Y-9843925D01*
X4375354Y-9843925D02*
X4365830Y-9824878D01*
X4365830Y-9824878D02*
X4356306Y-9786783D01*
X4356306Y-9786783D02*
X4356306Y-9739163D01*
X4356306Y-9739163D02*
X4365830Y-9701068D01*
X4365830Y-9701068D02*
X4375354Y-9682021D01*
X4375354Y-9682021D02*
X4384878Y-9672497D01*
X4384878Y-9672497D02*
X4403925Y-9662973D01*
X4661068Y-9862973D02*
X4546783Y-9862973D01*
X4603925Y-9862973D02*
X4603925Y-9662973D01*
X4603925Y-9662973D02*
X4584878Y-9691544D01*
X4584878Y-9691544D02*
X4565830Y-9710592D01*
X4565830Y-9710592D02*
X4546783Y-9720116D01*
X4727735Y-9662973D02*
X4851545Y-9662973D01*
X4851545Y-9662973D02*
X4784878Y-9739163D01*
X4784878Y-9739163D02*
X4813449Y-9739163D01*
X4813449Y-9739163D02*
X4832497Y-9748687D01*
X4832497Y-9748687D02*
X4842021Y-9758211D01*
X4842021Y-9758211D02*
X4851545Y-9777259D01*
X4851545Y-9777259D02*
X4851545Y-9824878D01*
X4851545Y-9824878D02*
X4842021Y-9843925D01*
X4842021Y-9843925D02*
X4832497Y-9853449D01*
X4832497Y-9853449D02*
X4813449Y-9862973D01*
X4813449Y-9862973D02*
X4756306Y-9862973D01*
X4756306Y-9862973D02*
X4737259Y-9853449D01*
X4737259Y-9853449D02*
X4727735Y-9843925D01*
X4965830Y-9748687D02*
X4946783Y-9739163D01*
X4946783Y-9739163D02*
X4937259Y-9729640D01*
X4937259Y-9729640D02*
X4927735Y-9710592D01*
X4927735Y-9710592D02*
X4927735Y-9701068D01*
X4927735Y-9701068D02*
X4937259Y-9682021D01*
X4937259Y-9682021D02*
X4946783Y-9672497D01*
X4946783Y-9672497D02*
X4965830Y-9662973D01*
X4965830Y-9662973D02*
X5003926Y-9662973D01*
X5003926Y-9662973D02*
X5022973Y-9672497D01*
X5022973Y-9672497D02*
X5032497Y-9682021D01*
X5032497Y-9682021D02*
X5042021Y-9701068D01*
X5042021Y-9701068D02*
X5042021Y-9710592D01*
X5042021Y-9710592D02*
X5032497Y-9729640D01*
X5032497Y-9729640D02*
X5022973Y-9739163D01*
X5022973Y-9739163D02*
X5003926Y-9748687D01*
X5003926Y-9748687D02*
X4965830Y-9748687D01*
X4965830Y-9748687D02*
X4946783Y-9758211D01*
X4946783Y-9758211D02*
X4937259Y-9767735D01*
X4937259Y-9767735D02*
X4927735Y-9786783D01*
X4927735Y-9786783D02*
X4927735Y-9824878D01*
X4927735Y-9824878D02*
X4937259Y-9843925D01*
X4937259Y-9843925D02*
X4946783Y-9853449D01*
X4946783Y-9853449D02*
X4965830Y-9862973D01*
X4965830Y-9862973D02*
X5003926Y-9862973D01*
X5003926Y-9862973D02*
X5022973Y-9853449D01*
X5022973Y-9853449D02*
X5032497Y-9843925D01*
X5032497Y-9843925D02*
X5042021Y-9824878D01*
X5042021Y-9824878D02*
X5042021Y-9786783D01*
X5042021Y-9786783D02*
X5032497Y-9767735D01*
X5032497Y-9767735D02*
X5022973Y-9758211D01*
X5022973Y-9758211D02*
X5003926Y-9748687D01*
X5118211Y-9662973D02*
X5118211Y-9701068D01*
X5194402Y-9662973D02*
X5194402Y-9701068D01*
X5457259Y-9939163D02*
X5447735Y-9929640D01*
X5447735Y-9929640D02*
X5428687Y-9901068D01*
X5428687Y-9901068D02*
X5419164Y-9882021D01*
X5419164Y-9882021D02*
X5409640Y-9853449D01*
X5409640Y-9853449D02*
X5400116Y-9805830D01*
X5400116Y-9805830D02*
X5400116Y-9767735D01*
X5400116Y-9767735D02*
X5409640Y-9720116D01*
X5409640Y-9720116D02*
X5419164Y-9691544D01*
X5419164Y-9691544D02*
X5428687Y-9672497D01*
X5428687Y-9672497D02*
X5447735Y-9643925D01*
X5447735Y-9643925D02*
X5457259Y-9634402D01*
X5523926Y-9682021D02*
X5533449Y-9672497D01*
X5533449Y-9672497D02*
X5552497Y-9662973D01*
X5552497Y-9662973D02*
X5600116Y-9662973D01*
X5600116Y-9662973D02*
X5619164Y-9672497D01*
X5619164Y-9672497D02*
X5628687Y-9682021D01*
X5628687Y-9682021D02*
X5638211Y-9701068D01*
X5638211Y-9701068D02*
X5638211Y-9720116D01*
X5638211Y-9720116D02*
X5628687Y-9748687D01*
X5628687Y-9748687D02*
X5514402Y-9862973D01*
X5514402Y-9862973D02*
X5638211Y-9862973D01*
X5843925Y-9862973D02*
X5843925Y-9662973D01*
X5929640Y-9862973D02*
X5929640Y-9758211D01*
X5929640Y-9758211D02*
X5920116Y-9739163D01*
X5920116Y-9739163D02*
X5901068Y-9729640D01*
X5901068Y-9729640D02*
X5872497Y-9729640D01*
X5872497Y-9729640D02*
X5853449Y-9739163D01*
X5853449Y-9739163D02*
X5843925Y-9748687D01*
X6053449Y-9862973D02*
X6034402Y-9853449D01*
X6034402Y-9853449D02*
X6024878Y-9843925D01*
X6024878Y-9843925D02*
X6015354Y-9824878D01*
X6015354Y-9824878D02*
X6015354Y-9767735D01*
X6015354Y-9767735D02*
X6024878Y-9748687D01*
X6024878Y-9748687D02*
X6034402Y-9739163D01*
X6034402Y-9739163D02*
X6053449Y-9729640D01*
X6053449Y-9729640D02*
X6082021Y-9729640D01*
X6082021Y-9729640D02*
X6101068Y-9739163D01*
X6101068Y-9739163D02*
X6110592Y-9748687D01*
X6110592Y-9748687D02*
X6120116Y-9767735D01*
X6120116Y-9767735D02*
X6120116Y-9824878D01*
X6120116Y-9824878D02*
X6110592Y-9843925D01*
X6110592Y-9843925D02*
X6101068Y-9853449D01*
X6101068Y-9853449D02*
X6082021Y-9862973D01*
X6082021Y-9862973D02*
X6053449Y-9862973D01*
X6234402Y-9862973D02*
X6215354Y-9853449D01*
X6215354Y-9853449D02*
X6205830Y-9834402D01*
X6205830Y-9834402D02*
X6205830Y-9662973D01*
X6386783Y-9853449D02*
X6367735Y-9862973D01*
X6367735Y-9862973D02*
X6329640Y-9862973D01*
X6329640Y-9862973D02*
X6310592Y-9853449D01*
X6310592Y-9853449D02*
X6301068Y-9834402D01*
X6301068Y-9834402D02*
X6301068Y-9758211D01*
X6301068Y-9758211D02*
X6310592Y-9739163D01*
X6310592Y-9739163D02*
X6329640Y-9729640D01*
X6329640Y-9729640D02*
X6367735Y-9729640D01*
X6367735Y-9729640D02*
X6386783Y-9739163D01*
X6386783Y-9739163D02*
X6396306Y-9758211D01*
X6396306Y-9758211D02*
X6396306Y-9777259D01*
X6396306Y-9777259D02*
X6301068Y-9796306D01*
X6472497Y-9853449D02*
X6491545Y-9862973D01*
X6491545Y-9862973D02*
X6529640Y-9862973D01*
X6529640Y-9862973D02*
X6548687Y-9853449D01*
X6548687Y-9853449D02*
X6558211Y-9834402D01*
X6558211Y-9834402D02*
X6558211Y-9824878D01*
X6558211Y-9824878D02*
X6548687Y-9805830D01*
X6548687Y-9805830D02*
X6529640Y-9796306D01*
X6529640Y-9796306D02*
X6501068Y-9796306D01*
X6501068Y-9796306D02*
X6482021Y-9786783D01*
X6482021Y-9786783D02*
X6472497Y-9767735D01*
X6472497Y-9767735D02*
X6472497Y-9758211D01*
X6472497Y-9758211D02*
X6482021Y-9739163D01*
X6482021Y-9739163D02*
X6501068Y-9729640D01*
X6501068Y-9729640D02*
X6529640Y-9729640D01*
X6529640Y-9729640D02*
X6548687Y-9739163D01*
X6624878Y-9939163D02*
X6634402Y-9929640D01*
X6634402Y-9929640D02*
X6653449Y-9901068D01*
X6653449Y-9901068D02*
X6662973Y-9882021D01*
X6662973Y-9882021D02*
X6672497Y-9853449D01*
X6672497Y-9853449D02*
X6682021Y-9805830D01*
X6682021Y-9805830D02*
X6682021Y-9767735D01*
X6682021Y-9767735D02*
X6672497Y-9720116D01*
X6672497Y-9720116D02*
X6662973Y-9691544D01*
X6662973Y-9691544D02*
X6653449Y-9672497D01*
X6653449Y-9672497D02*
X6634402Y-9643925D01*
X6634402Y-9643925D02*
X6624878Y-9634402D01*
D13*
X1974997Y-10035997D02*
X1974997Y-10070997D01*
X1957497Y-10053497D02*
X1992497Y-10053497D01*
D11*
X2278211Y-9926973D02*
X2297259Y-9926973D01*
X2297259Y-9926973D02*
X2316306Y-9936497D01*
X2316306Y-9936497D02*
X2325830Y-9946021D01*
X2325830Y-9946021D02*
X2335354Y-9965068D01*
X2335354Y-9965068D02*
X2344878Y-10003163D01*
X2344878Y-10003163D02*
X2344878Y-10050783D01*
X2344878Y-10050783D02*
X2335354Y-10088878D01*
X2335354Y-10088878D02*
X2325830Y-10107925D01*
X2325830Y-10107925D02*
X2316306Y-10117449D01*
X2316306Y-10117449D02*
X2297259Y-10126973D01*
X2297259Y-10126973D02*
X2278211Y-10126973D01*
X2278211Y-10126973D02*
X2259163Y-10117449D01*
X2259163Y-10117449D02*
X2249640Y-10107925D01*
X2249640Y-10107925D02*
X2240116Y-10088878D01*
X2240116Y-10088878D02*
X2230592Y-10050783D01*
X2230592Y-10050783D02*
X2230592Y-10003163D01*
X2230592Y-10003163D02*
X2240116Y-9965068D01*
X2240116Y-9965068D02*
X2249640Y-9946021D01*
X2249640Y-9946021D02*
X2259163Y-9936497D01*
X2259163Y-9936497D02*
X2278211Y-9926973D01*
X2430592Y-10107925D02*
X2440116Y-10117449D01*
X2440116Y-10117449D02*
X2430592Y-10126973D01*
X2430592Y-10126973D02*
X2421068Y-10117449D01*
X2421068Y-10117449D02*
X2430592Y-10107925D01*
X2430592Y-10107925D02*
X2430592Y-10126973D01*
X2506783Y-9926973D02*
X2630592Y-9926973D01*
X2630592Y-9926973D02*
X2563925Y-10003163D01*
X2563925Y-10003163D02*
X2592497Y-10003163D01*
X2592497Y-10003163D02*
X2611544Y-10012687D01*
X2611544Y-10012687D02*
X2621068Y-10022211D01*
X2621068Y-10022211D02*
X2630592Y-10041259D01*
X2630592Y-10041259D02*
X2630592Y-10088878D01*
X2630592Y-10088878D02*
X2621068Y-10107925D01*
X2621068Y-10107925D02*
X2611544Y-10117449D01*
X2611544Y-10117449D02*
X2592497Y-10126973D01*
X2592497Y-10126973D02*
X2535354Y-10126973D01*
X2535354Y-10126973D02*
X2516306Y-10117449D01*
X2516306Y-10117449D02*
X2506783Y-10107925D01*
X2811544Y-9926973D02*
X2716306Y-9926973D01*
X2716306Y-9926973D02*
X2706783Y-10022211D01*
X2706783Y-10022211D02*
X2716306Y-10012687D01*
X2716306Y-10012687D02*
X2735354Y-10003163D01*
X2735354Y-10003163D02*
X2782973Y-10003163D01*
X2782973Y-10003163D02*
X2802021Y-10012687D01*
X2802021Y-10012687D02*
X2811544Y-10022211D01*
X2811544Y-10022211D02*
X2821068Y-10041259D01*
X2821068Y-10041259D02*
X2821068Y-10088878D01*
X2821068Y-10088878D02*
X2811544Y-10107925D01*
X2811544Y-10107925D02*
X2802021Y-10117449D01*
X2802021Y-10117449D02*
X2782973Y-10126973D01*
X2782973Y-10126973D02*
X2735354Y-10126973D01*
X2735354Y-10126973D02*
X2716306Y-10117449D01*
X2716306Y-10117449D02*
X2706783Y-10107925D01*
X2944878Y-9926973D02*
X2963925Y-9926973D01*
X2963925Y-9926973D02*
X2982973Y-9936497D01*
X2982973Y-9936497D02*
X2992497Y-9946021D01*
X2992497Y-9946021D02*
X3002021Y-9965068D01*
X3002021Y-9965068D02*
X3011544Y-10003163D01*
X3011544Y-10003163D02*
X3011544Y-10050783D01*
X3011544Y-10050783D02*
X3002021Y-10088878D01*
X3002021Y-10088878D02*
X2992497Y-10107925D01*
X2992497Y-10107925D02*
X2982973Y-10117449D01*
X2982973Y-10117449D02*
X2963925Y-10126973D01*
X2963925Y-10126973D02*
X2944878Y-10126973D01*
X2944878Y-10126973D02*
X2925830Y-10117449D01*
X2925830Y-10117449D02*
X2916306Y-10107925D01*
X2916306Y-10107925D02*
X2906782Y-10088878D01*
X2906782Y-10088878D02*
X2897259Y-10050783D01*
X2897259Y-10050783D02*
X2897259Y-10003163D01*
X2897259Y-10003163D02*
X2906782Y-9965068D01*
X2906782Y-9965068D02*
X2916306Y-9946021D01*
X2916306Y-9946021D02*
X2925830Y-9936497D01*
X2925830Y-9936497D02*
X2944878Y-9926973D01*
X3097259Y-10126973D02*
X3097259Y-9993640D01*
X3097259Y-10012687D02*
X3106782Y-10003163D01*
X3106782Y-10003163D02*
X3125830Y-9993640D01*
X3125830Y-9993640D02*
X3154402Y-9993640D01*
X3154402Y-9993640D02*
X3173449Y-10003163D01*
X3173449Y-10003163D02*
X3182973Y-10022211D01*
X3182973Y-10022211D02*
X3182973Y-10126973D01*
X3182973Y-10022211D02*
X3192497Y-10003163D01*
X3192497Y-10003163D02*
X3211544Y-9993640D01*
X3211544Y-9993640D02*
X3240116Y-9993640D01*
X3240116Y-9993640D02*
X3259163Y-10003163D01*
X3259163Y-10003163D02*
X3268687Y-10022211D01*
X3268687Y-10022211D02*
X3268687Y-10126973D01*
X3363925Y-10126973D02*
X3363925Y-9993640D01*
X3363925Y-10012687D02*
X3373449Y-10003163D01*
X3373449Y-10003163D02*
X3392497Y-9993640D01*
X3392497Y-9993640D02*
X3421068Y-9993640D01*
X3421068Y-9993640D02*
X3440116Y-10003163D01*
X3440116Y-10003163D02*
X3449640Y-10022211D01*
X3449640Y-10022211D02*
X3449640Y-10126973D01*
X3449640Y-10022211D02*
X3459163Y-10003163D01*
X3459163Y-10003163D02*
X3478211Y-9993640D01*
X3478211Y-9993640D02*
X3506782Y-9993640D01*
X3506782Y-9993640D02*
X3525830Y-10003163D01*
X3525830Y-10003163D02*
X3535354Y-10022211D01*
X3535354Y-10022211D02*
X3535354Y-10126973D01*
X3893449Y-9917449D02*
X3722021Y-10174592D01*
X4118211Y-9926973D02*
X4137259Y-9926973D01*
X4137259Y-9926973D02*
X4156306Y-9936497D01*
X4156306Y-9936497D02*
X4165830Y-9946021D01*
X4165830Y-9946021D02*
X4175354Y-9965068D01*
X4175354Y-9965068D02*
X4184878Y-10003163D01*
X4184878Y-10003163D02*
X4184878Y-10050783D01*
X4184878Y-10050783D02*
X4175354Y-10088878D01*
X4175354Y-10088878D02*
X4165830Y-10107925D01*
X4165830Y-10107925D02*
X4156306Y-10117449D01*
X4156306Y-10117449D02*
X4137259Y-10126973D01*
X4137259Y-10126973D02*
X4118211Y-10126973D01*
X4118211Y-10126973D02*
X4099163Y-10117449D01*
X4099163Y-10117449D02*
X4089640Y-10107925D01*
X4089640Y-10107925D02*
X4080116Y-10088878D01*
X4080116Y-10088878D02*
X4070592Y-10050783D01*
X4070592Y-10050783D02*
X4070592Y-10003163D01*
X4070592Y-10003163D02*
X4080116Y-9965068D01*
X4080116Y-9965068D02*
X4089640Y-9946021D01*
X4089640Y-9946021D02*
X4099163Y-9936497D01*
X4099163Y-9936497D02*
X4118211Y-9926973D01*
X4270592Y-10107925D02*
X4280116Y-10117449D01*
X4280116Y-10117449D02*
X4270592Y-10126973D01*
X4270592Y-10126973D02*
X4261068Y-10117449D01*
X4261068Y-10117449D02*
X4270592Y-10107925D01*
X4270592Y-10107925D02*
X4270592Y-10126973D01*
X4403925Y-9926973D02*
X4422973Y-9926973D01*
X4422973Y-9926973D02*
X4442021Y-9936497D01*
X4442021Y-9936497D02*
X4451545Y-9946021D01*
X4451545Y-9946021D02*
X4461068Y-9965068D01*
X4461068Y-9965068D02*
X4470592Y-10003163D01*
X4470592Y-10003163D02*
X4470592Y-10050783D01*
X4470592Y-10050783D02*
X4461068Y-10088878D01*
X4461068Y-10088878D02*
X4451545Y-10107925D01*
X4451545Y-10107925D02*
X4442021Y-10117449D01*
X4442021Y-10117449D02*
X4422973Y-10126973D01*
X4422973Y-10126973D02*
X4403925Y-10126973D01*
X4403925Y-10126973D02*
X4384878Y-10117449D01*
X4384878Y-10117449D02*
X4375354Y-10107925D01*
X4375354Y-10107925D02*
X4365830Y-10088878D01*
X4365830Y-10088878D02*
X4356306Y-10050783D01*
X4356306Y-10050783D02*
X4356306Y-10003163D01*
X4356306Y-10003163D02*
X4365830Y-9965068D01*
X4365830Y-9965068D02*
X4375354Y-9946021D01*
X4375354Y-9946021D02*
X4384878Y-9936497D01*
X4384878Y-9936497D02*
X4403925Y-9926973D01*
X4661068Y-10126973D02*
X4546783Y-10126973D01*
X4603925Y-10126973D02*
X4603925Y-9926973D01*
X4603925Y-9926973D02*
X4584878Y-9955544D01*
X4584878Y-9955544D02*
X4565830Y-9974592D01*
X4565830Y-9974592D02*
X4546783Y-9984116D01*
X4727735Y-9926973D02*
X4851545Y-9926973D01*
X4851545Y-9926973D02*
X4784878Y-10003163D01*
X4784878Y-10003163D02*
X4813449Y-10003163D01*
X4813449Y-10003163D02*
X4832497Y-10012687D01*
X4832497Y-10012687D02*
X4842021Y-10022211D01*
X4842021Y-10022211D02*
X4851545Y-10041259D01*
X4851545Y-10041259D02*
X4851545Y-10088878D01*
X4851545Y-10088878D02*
X4842021Y-10107925D01*
X4842021Y-10107925D02*
X4832497Y-10117449D01*
X4832497Y-10117449D02*
X4813449Y-10126973D01*
X4813449Y-10126973D02*
X4756306Y-10126973D01*
X4756306Y-10126973D02*
X4737259Y-10117449D01*
X4737259Y-10117449D02*
X4727735Y-10107925D01*
X4965830Y-10012687D02*
X4946783Y-10003163D01*
X4946783Y-10003163D02*
X4937259Y-9993640D01*
X4937259Y-9993640D02*
X4927735Y-9974592D01*
X4927735Y-9974592D02*
X4927735Y-9965068D01*
X4927735Y-9965068D02*
X4937259Y-9946021D01*
X4937259Y-9946021D02*
X4946783Y-9936497D01*
X4946783Y-9936497D02*
X4965830Y-9926973D01*
X4965830Y-9926973D02*
X5003926Y-9926973D01*
X5003926Y-9926973D02*
X5022973Y-9936497D01*
X5022973Y-9936497D02*
X5032497Y-9946021D01*
X5032497Y-9946021D02*
X5042021Y-9965068D01*
X5042021Y-9965068D02*
X5042021Y-9974592D01*
X5042021Y-9974592D02*
X5032497Y-9993640D01*
X5032497Y-9993640D02*
X5022973Y-10003163D01*
X5022973Y-10003163D02*
X5003926Y-10012687D01*
X5003926Y-10012687D02*
X4965830Y-10012687D01*
X4965830Y-10012687D02*
X4946783Y-10022211D01*
X4946783Y-10022211D02*
X4937259Y-10031735D01*
X4937259Y-10031735D02*
X4927735Y-10050783D01*
X4927735Y-10050783D02*
X4927735Y-10088878D01*
X4927735Y-10088878D02*
X4937259Y-10107925D01*
X4937259Y-10107925D02*
X4946783Y-10117449D01*
X4946783Y-10117449D02*
X4965830Y-10126973D01*
X4965830Y-10126973D02*
X5003926Y-10126973D01*
X5003926Y-10126973D02*
X5022973Y-10117449D01*
X5022973Y-10117449D02*
X5032497Y-10107925D01*
X5032497Y-10107925D02*
X5042021Y-10088878D01*
X5042021Y-10088878D02*
X5042021Y-10050783D01*
X5042021Y-10050783D02*
X5032497Y-10031735D01*
X5032497Y-10031735D02*
X5022973Y-10022211D01*
X5022973Y-10022211D02*
X5003926Y-10012687D01*
X5118211Y-9926973D02*
X5118211Y-9965068D01*
X5194402Y-9926973D02*
X5194402Y-9965068D01*
X5457259Y-10203163D02*
X5447735Y-10193640D01*
X5447735Y-10193640D02*
X5428687Y-10165068D01*
X5428687Y-10165068D02*
X5419164Y-10146021D01*
X5419164Y-10146021D02*
X5409640Y-10117449D01*
X5409640Y-10117449D02*
X5400116Y-10069830D01*
X5400116Y-10069830D02*
X5400116Y-10031735D01*
X5400116Y-10031735D02*
X5409640Y-9984116D01*
X5409640Y-9984116D02*
X5419164Y-9955544D01*
X5419164Y-9955544D02*
X5428687Y-9936497D01*
X5428687Y-9936497D02*
X5447735Y-9907925D01*
X5447735Y-9907925D02*
X5457259Y-9898402D01*
X5542973Y-10126973D02*
X5581068Y-10126973D01*
X5581068Y-10126973D02*
X5600116Y-10117449D01*
X5600116Y-10117449D02*
X5609640Y-10107925D01*
X5609640Y-10107925D02*
X5628687Y-10079354D01*
X5628687Y-10079354D02*
X5638211Y-10041259D01*
X5638211Y-10041259D02*
X5638211Y-9965068D01*
X5638211Y-9965068D02*
X5628687Y-9946021D01*
X5628687Y-9946021D02*
X5619164Y-9936497D01*
X5619164Y-9936497D02*
X5600116Y-9926973D01*
X5600116Y-9926973D02*
X5562021Y-9926973D01*
X5562021Y-9926973D02*
X5542973Y-9936497D01*
X5542973Y-9936497D02*
X5533449Y-9946021D01*
X5533449Y-9946021D02*
X5523926Y-9965068D01*
X5523926Y-9965068D02*
X5523926Y-10012687D01*
X5523926Y-10012687D02*
X5533449Y-10031735D01*
X5533449Y-10031735D02*
X5542973Y-10041259D01*
X5542973Y-10041259D02*
X5562021Y-10050783D01*
X5562021Y-10050783D02*
X5600116Y-10050783D01*
X5600116Y-10050783D02*
X5619164Y-10041259D01*
X5619164Y-10041259D02*
X5628687Y-10031735D01*
X5628687Y-10031735D02*
X5638211Y-10012687D01*
X5843925Y-10126973D02*
X5843925Y-9926973D01*
X5929640Y-10126973D02*
X5929640Y-10022211D01*
X5929640Y-10022211D02*
X5920116Y-10003163D01*
X5920116Y-10003163D02*
X5901068Y-9993640D01*
X5901068Y-9993640D02*
X5872497Y-9993640D01*
X5872497Y-9993640D02*
X5853449Y-10003163D01*
X5853449Y-10003163D02*
X5843925Y-10012687D01*
X6053449Y-10126973D02*
X6034402Y-10117449D01*
X6034402Y-10117449D02*
X6024878Y-10107925D01*
X6024878Y-10107925D02*
X6015354Y-10088878D01*
X6015354Y-10088878D02*
X6015354Y-10031735D01*
X6015354Y-10031735D02*
X6024878Y-10012687D01*
X6024878Y-10012687D02*
X6034402Y-10003163D01*
X6034402Y-10003163D02*
X6053449Y-9993640D01*
X6053449Y-9993640D02*
X6082021Y-9993640D01*
X6082021Y-9993640D02*
X6101068Y-10003163D01*
X6101068Y-10003163D02*
X6110592Y-10012687D01*
X6110592Y-10012687D02*
X6120116Y-10031735D01*
X6120116Y-10031735D02*
X6120116Y-10088878D01*
X6120116Y-10088878D02*
X6110592Y-10107925D01*
X6110592Y-10107925D02*
X6101068Y-10117449D01*
X6101068Y-10117449D02*
X6082021Y-10126973D01*
X6082021Y-10126973D02*
X6053449Y-10126973D01*
X6234402Y-10126973D02*
X6215354Y-10117449D01*
X6215354Y-10117449D02*
X6205830Y-10098402D01*
X6205830Y-10098402D02*
X6205830Y-9926973D01*
X6386783Y-10117449D02*
X6367735Y-10126973D01*
X6367735Y-10126973D02*
X6329640Y-10126973D01*
X6329640Y-10126973D02*
X6310592Y-10117449D01*
X6310592Y-10117449D02*
X6301068Y-10098402D01*
X6301068Y-10098402D02*
X6301068Y-10022211D01*
X6301068Y-10022211D02*
X6310592Y-10003163D01*
X6310592Y-10003163D02*
X6329640Y-9993640D01*
X6329640Y-9993640D02*
X6367735Y-9993640D01*
X6367735Y-9993640D02*
X6386783Y-10003163D01*
X6386783Y-10003163D02*
X6396306Y-10022211D01*
X6396306Y-10022211D02*
X6396306Y-10041259D01*
X6396306Y-10041259D02*
X6301068Y-10060306D01*
X6472497Y-10117449D02*
X6491545Y-10126973D01*
X6491545Y-10126973D02*
X6529640Y-10126973D01*
X6529640Y-10126973D02*
X6548687Y-10117449D01*
X6548687Y-10117449D02*
X6558211Y-10098402D01*
X6558211Y-10098402D02*
X6558211Y-10088878D01*
X6558211Y-10088878D02*
X6548687Y-10069830D01*
X6548687Y-10069830D02*
X6529640Y-10060306D01*
X6529640Y-10060306D02*
X6501068Y-10060306D01*
X6501068Y-10060306D02*
X6482021Y-10050783D01*
X6482021Y-10050783D02*
X6472497Y-10031735D01*
X6472497Y-10031735D02*
X6472497Y-10022211D01*
X6472497Y-10022211D02*
X6482021Y-10003163D01*
X6482021Y-10003163D02*
X6501068Y-9993640D01*
X6501068Y-9993640D02*
X6529640Y-9993640D01*
X6529640Y-9993640D02*
X6548687Y-10003163D01*
X6624878Y-10203163D02*
X6634402Y-10193640D01*
X6634402Y-10193640D02*
X6653449Y-10165068D01*
X6653449Y-10165068D02*
X6662973Y-10146021D01*
X6662973Y-10146021D02*
X6672497Y-10117449D01*
X6672497Y-10117449D02*
X6682021Y-10069830D01*
X6682021Y-10069830D02*
X6682021Y-10031735D01*
X6682021Y-10031735D02*
X6672497Y-9984116D01*
X6672497Y-9984116D02*
X6662973Y-9955544D01*
X6662973Y-9955544D02*
X6653449Y-9936497D01*
X6653449Y-9936497D02*
X6634402Y-9907925D01*
X6634402Y-9907925D02*
X6624878Y-9898402D01*
D14*
X1986639Y-10331639D02*
X1986639Y-10303355D01*
X1958354Y-10303355D01*
X1958354Y-10331639D01*
X1986639Y-10331639D01*
D11*
X2278211Y-10190973D02*
X2297259Y-10190973D01*
X2297259Y-10190973D02*
X2316306Y-10200497D01*
X2316306Y-10200497D02*
X2325830Y-10210021D01*
X2325830Y-10210021D02*
X2335354Y-10229068D01*
X2335354Y-10229068D02*
X2344878Y-10267163D01*
X2344878Y-10267163D02*
X2344878Y-10314783D01*
X2344878Y-10314783D02*
X2335354Y-10352878D01*
X2335354Y-10352878D02*
X2325830Y-10371925D01*
X2325830Y-10371925D02*
X2316306Y-10381449D01*
X2316306Y-10381449D02*
X2297259Y-10390973D01*
X2297259Y-10390973D02*
X2278211Y-10390973D01*
X2278211Y-10390973D02*
X2259163Y-10381449D01*
X2259163Y-10381449D02*
X2249640Y-10371925D01*
X2249640Y-10371925D02*
X2240116Y-10352878D01*
X2240116Y-10352878D02*
X2230592Y-10314783D01*
X2230592Y-10314783D02*
X2230592Y-10267163D01*
X2230592Y-10267163D02*
X2240116Y-10229068D01*
X2240116Y-10229068D02*
X2249640Y-10210021D01*
X2249640Y-10210021D02*
X2259163Y-10200497D01*
X2259163Y-10200497D02*
X2278211Y-10190973D01*
X2430592Y-10371925D02*
X2440116Y-10381449D01*
X2440116Y-10381449D02*
X2430592Y-10390973D01*
X2430592Y-10390973D02*
X2421068Y-10381449D01*
X2421068Y-10381449D02*
X2430592Y-10371925D01*
X2430592Y-10371925D02*
X2430592Y-10390973D01*
X2611544Y-10257640D02*
X2611544Y-10390973D01*
X2563925Y-10181449D02*
X2516306Y-10324306D01*
X2516306Y-10324306D02*
X2640116Y-10324306D01*
X2754402Y-10190973D02*
X2773449Y-10190973D01*
X2773449Y-10190973D02*
X2792497Y-10200497D01*
X2792497Y-10200497D02*
X2802021Y-10210021D01*
X2802021Y-10210021D02*
X2811544Y-10229068D01*
X2811544Y-10229068D02*
X2821068Y-10267163D01*
X2821068Y-10267163D02*
X2821068Y-10314783D01*
X2821068Y-10314783D02*
X2811544Y-10352878D01*
X2811544Y-10352878D02*
X2802021Y-10371925D01*
X2802021Y-10371925D02*
X2792497Y-10381449D01*
X2792497Y-10381449D02*
X2773449Y-10390973D01*
X2773449Y-10390973D02*
X2754402Y-10390973D01*
X2754402Y-10390973D02*
X2735354Y-10381449D01*
X2735354Y-10381449D02*
X2725830Y-10371925D01*
X2725830Y-10371925D02*
X2716306Y-10352878D01*
X2716306Y-10352878D02*
X2706783Y-10314783D01*
X2706783Y-10314783D02*
X2706783Y-10267163D01*
X2706783Y-10267163D02*
X2716306Y-10229068D01*
X2716306Y-10229068D02*
X2725830Y-10210021D01*
X2725830Y-10210021D02*
X2735354Y-10200497D01*
X2735354Y-10200497D02*
X2754402Y-10190973D01*
X2944878Y-10190973D02*
X2963925Y-10190973D01*
X2963925Y-10190973D02*
X2982973Y-10200497D01*
X2982973Y-10200497D02*
X2992497Y-10210021D01*
X2992497Y-10210021D02*
X3002021Y-10229068D01*
X3002021Y-10229068D02*
X3011544Y-10267163D01*
X3011544Y-10267163D02*
X3011544Y-10314783D01*
X3011544Y-10314783D02*
X3002021Y-10352878D01*
X3002021Y-10352878D02*
X2992497Y-10371925D01*
X2992497Y-10371925D02*
X2982973Y-10381449D01*
X2982973Y-10381449D02*
X2963925Y-10390973D01*
X2963925Y-10390973D02*
X2944878Y-10390973D01*
X2944878Y-10390973D02*
X2925830Y-10381449D01*
X2925830Y-10381449D02*
X2916306Y-10371925D01*
X2916306Y-10371925D02*
X2906782Y-10352878D01*
X2906782Y-10352878D02*
X2897259Y-10314783D01*
X2897259Y-10314783D02*
X2897259Y-10267163D01*
X2897259Y-10267163D02*
X2906782Y-10229068D01*
X2906782Y-10229068D02*
X2916306Y-10210021D01*
X2916306Y-10210021D02*
X2925830Y-10200497D01*
X2925830Y-10200497D02*
X2944878Y-10190973D01*
X3097259Y-10390973D02*
X3097259Y-10257640D01*
X3097259Y-10276687D02*
X3106782Y-10267163D01*
X3106782Y-10267163D02*
X3125830Y-10257640D01*
X3125830Y-10257640D02*
X3154402Y-10257640D01*
X3154402Y-10257640D02*
X3173449Y-10267163D01*
X3173449Y-10267163D02*
X3182973Y-10286211D01*
X3182973Y-10286211D02*
X3182973Y-10390973D01*
X3182973Y-10286211D02*
X3192497Y-10267163D01*
X3192497Y-10267163D02*
X3211544Y-10257640D01*
X3211544Y-10257640D02*
X3240116Y-10257640D01*
X3240116Y-10257640D02*
X3259163Y-10267163D01*
X3259163Y-10267163D02*
X3268687Y-10286211D01*
X3268687Y-10286211D02*
X3268687Y-10390973D01*
X3363925Y-10390973D02*
X3363925Y-10257640D01*
X3363925Y-10276687D02*
X3373449Y-10267163D01*
X3373449Y-10267163D02*
X3392497Y-10257640D01*
X3392497Y-10257640D02*
X3421068Y-10257640D01*
X3421068Y-10257640D02*
X3440116Y-10267163D01*
X3440116Y-10267163D02*
X3449640Y-10286211D01*
X3449640Y-10286211D02*
X3449640Y-10390973D01*
X3449640Y-10286211D02*
X3459163Y-10267163D01*
X3459163Y-10267163D02*
X3478211Y-10257640D01*
X3478211Y-10257640D02*
X3506782Y-10257640D01*
X3506782Y-10257640D02*
X3525830Y-10267163D01*
X3525830Y-10267163D02*
X3535354Y-10286211D01*
X3535354Y-10286211D02*
X3535354Y-10390973D01*
X3893449Y-10181449D02*
X3722021Y-10438592D01*
X4118211Y-10190973D02*
X4137259Y-10190973D01*
X4137259Y-10190973D02*
X4156306Y-10200497D01*
X4156306Y-10200497D02*
X4165830Y-10210021D01*
X4165830Y-10210021D02*
X4175354Y-10229068D01*
X4175354Y-10229068D02*
X4184878Y-10267163D01*
X4184878Y-10267163D02*
X4184878Y-10314783D01*
X4184878Y-10314783D02*
X4175354Y-10352878D01*
X4175354Y-10352878D02*
X4165830Y-10371925D01*
X4165830Y-10371925D02*
X4156306Y-10381449D01*
X4156306Y-10381449D02*
X4137259Y-10390973D01*
X4137259Y-10390973D02*
X4118211Y-10390973D01*
X4118211Y-10390973D02*
X4099163Y-10381449D01*
X4099163Y-10381449D02*
X4089640Y-10371925D01*
X4089640Y-10371925D02*
X4080116Y-10352878D01*
X4080116Y-10352878D02*
X4070592Y-10314783D01*
X4070592Y-10314783D02*
X4070592Y-10267163D01*
X4070592Y-10267163D02*
X4080116Y-10229068D01*
X4080116Y-10229068D02*
X4089640Y-10210021D01*
X4089640Y-10210021D02*
X4099163Y-10200497D01*
X4099163Y-10200497D02*
X4118211Y-10190973D01*
X4270592Y-10371925D02*
X4280116Y-10381449D01*
X4280116Y-10381449D02*
X4270592Y-10390973D01*
X4270592Y-10390973D02*
X4261068Y-10381449D01*
X4261068Y-10381449D02*
X4270592Y-10371925D01*
X4270592Y-10371925D02*
X4270592Y-10390973D01*
X4403925Y-10190973D02*
X4422973Y-10190973D01*
X4422973Y-10190973D02*
X4442021Y-10200497D01*
X4442021Y-10200497D02*
X4451545Y-10210021D01*
X4451545Y-10210021D02*
X4461068Y-10229068D01*
X4461068Y-10229068D02*
X4470592Y-10267163D01*
X4470592Y-10267163D02*
X4470592Y-10314783D01*
X4470592Y-10314783D02*
X4461068Y-10352878D01*
X4461068Y-10352878D02*
X4451545Y-10371925D01*
X4451545Y-10371925D02*
X4442021Y-10381449D01*
X4442021Y-10381449D02*
X4422973Y-10390973D01*
X4422973Y-10390973D02*
X4403925Y-10390973D01*
X4403925Y-10390973D02*
X4384878Y-10381449D01*
X4384878Y-10381449D02*
X4375354Y-10371925D01*
X4375354Y-10371925D02*
X4365830Y-10352878D01*
X4365830Y-10352878D02*
X4356306Y-10314783D01*
X4356306Y-10314783D02*
X4356306Y-10267163D01*
X4356306Y-10267163D02*
X4365830Y-10229068D01*
X4365830Y-10229068D02*
X4375354Y-10210021D01*
X4375354Y-10210021D02*
X4384878Y-10200497D01*
X4384878Y-10200497D02*
X4403925Y-10190973D01*
X4661068Y-10390973D02*
X4546783Y-10390973D01*
X4603925Y-10390973D02*
X4603925Y-10190973D01*
X4603925Y-10190973D02*
X4584878Y-10219544D01*
X4584878Y-10219544D02*
X4565830Y-10238592D01*
X4565830Y-10238592D02*
X4546783Y-10248116D01*
X4842021Y-10190973D02*
X4746783Y-10190973D01*
X4746783Y-10190973D02*
X4737259Y-10286211D01*
X4737259Y-10286211D02*
X4746783Y-10276687D01*
X4746783Y-10276687D02*
X4765830Y-10267163D01*
X4765830Y-10267163D02*
X4813449Y-10267163D01*
X4813449Y-10267163D02*
X4832497Y-10276687D01*
X4832497Y-10276687D02*
X4842021Y-10286211D01*
X4842021Y-10286211D02*
X4851545Y-10305259D01*
X4851545Y-10305259D02*
X4851545Y-10352878D01*
X4851545Y-10352878D02*
X4842021Y-10371925D01*
X4842021Y-10371925D02*
X4832497Y-10381449D01*
X4832497Y-10381449D02*
X4813449Y-10390973D01*
X4813449Y-10390973D02*
X4765830Y-10390973D01*
X4765830Y-10390973D02*
X4746783Y-10381449D01*
X4746783Y-10381449D02*
X4737259Y-10371925D01*
X4918211Y-10190973D02*
X5051545Y-10190973D01*
X5051545Y-10190973D02*
X4965830Y-10390973D01*
X5118211Y-10190973D02*
X5118211Y-10229068D01*
X5194402Y-10190973D02*
X5194402Y-10229068D01*
X5457259Y-10467163D02*
X5447735Y-10457640D01*
X5447735Y-10457640D02*
X5428687Y-10429068D01*
X5428687Y-10429068D02*
X5419164Y-10410021D01*
X5419164Y-10410021D02*
X5409640Y-10381449D01*
X5409640Y-10381449D02*
X5400116Y-10333830D01*
X5400116Y-10333830D02*
X5400116Y-10295735D01*
X5400116Y-10295735D02*
X5409640Y-10248116D01*
X5409640Y-10248116D02*
X5419164Y-10219544D01*
X5419164Y-10219544D02*
X5428687Y-10200497D01*
X5428687Y-10200497D02*
X5447735Y-10171925D01*
X5447735Y-10171925D02*
X5457259Y-10162402D01*
X5523926Y-10210021D02*
X5533449Y-10200497D01*
X5533449Y-10200497D02*
X5552497Y-10190973D01*
X5552497Y-10190973D02*
X5600116Y-10190973D01*
X5600116Y-10190973D02*
X5619164Y-10200497D01*
X5619164Y-10200497D02*
X5628687Y-10210021D01*
X5628687Y-10210021D02*
X5638211Y-10229068D01*
X5638211Y-10229068D02*
X5638211Y-10248116D01*
X5638211Y-10248116D02*
X5628687Y-10276687D01*
X5628687Y-10276687D02*
X5514402Y-10390973D01*
X5514402Y-10390973D02*
X5638211Y-10390973D01*
X5843925Y-10390973D02*
X5843925Y-10190973D01*
X5929640Y-10390973D02*
X5929640Y-10286211D01*
X5929640Y-10286211D02*
X5920116Y-10267163D01*
X5920116Y-10267163D02*
X5901068Y-10257640D01*
X5901068Y-10257640D02*
X5872497Y-10257640D01*
X5872497Y-10257640D02*
X5853449Y-10267163D01*
X5853449Y-10267163D02*
X5843925Y-10276687D01*
X6053449Y-10390973D02*
X6034402Y-10381449D01*
X6034402Y-10381449D02*
X6024878Y-10371925D01*
X6024878Y-10371925D02*
X6015354Y-10352878D01*
X6015354Y-10352878D02*
X6015354Y-10295735D01*
X6015354Y-10295735D02*
X6024878Y-10276687D01*
X6024878Y-10276687D02*
X6034402Y-10267163D01*
X6034402Y-10267163D02*
X6053449Y-10257640D01*
X6053449Y-10257640D02*
X6082021Y-10257640D01*
X6082021Y-10257640D02*
X6101068Y-10267163D01*
X6101068Y-10267163D02*
X6110592Y-10276687D01*
X6110592Y-10276687D02*
X6120116Y-10295735D01*
X6120116Y-10295735D02*
X6120116Y-10352878D01*
X6120116Y-10352878D02*
X6110592Y-10371925D01*
X6110592Y-10371925D02*
X6101068Y-10381449D01*
X6101068Y-10381449D02*
X6082021Y-10390973D01*
X6082021Y-10390973D02*
X6053449Y-10390973D01*
X6234402Y-10390973D02*
X6215354Y-10381449D01*
X6215354Y-10381449D02*
X6205830Y-10362402D01*
X6205830Y-10362402D02*
X6205830Y-10190973D01*
X6386783Y-10381449D02*
X6367735Y-10390973D01*
X6367735Y-10390973D02*
X6329640Y-10390973D01*
X6329640Y-10390973D02*
X6310592Y-10381449D01*
X6310592Y-10381449D02*
X6301068Y-10362402D01*
X6301068Y-10362402D02*
X6301068Y-10286211D01*
X6301068Y-10286211D02*
X6310592Y-10267163D01*
X6310592Y-10267163D02*
X6329640Y-10257640D01*
X6329640Y-10257640D02*
X6367735Y-10257640D01*
X6367735Y-10257640D02*
X6386783Y-10267163D01*
X6386783Y-10267163D02*
X6396306Y-10286211D01*
X6396306Y-10286211D02*
X6396306Y-10305259D01*
X6396306Y-10305259D02*
X6301068Y-10324306D01*
X6472497Y-10381449D02*
X6491545Y-10390973D01*
X6491545Y-10390973D02*
X6529640Y-10390973D01*
X6529640Y-10390973D02*
X6548687Y-10381449D01*
X6548687Y-10381449D02*
X6558211Y-10362402D01*
X6558211Y-10362402D02*
X6558211Y-10352878D01*
X6558211Y-10352878D02*
X6548687Y-10333830D01*
X6548687Y-10333830D02*
X6529640Y-10324306D01*
X6529640Y-10324306D02*
X6501068Y-10324306D01*
X6501068Y-10324306D02*
X6482021Y-10314783D01*
X6482021Y-10314783D02*
X6472497Y-10295735D01*
X6472497Y-10295735D02*
X6472497Y-10286211D01*
X6472497Y-10286211D02*
X6482021Y-10267163D01*
X6482021Y-10267163D02*
X6501068Y-10257640D01*
X6501068Y-10257640D02*
X6529640Y-10257640D01*
X6529640Y-10257640D02*
X6548687Y-10267163D01*
X6624878Y-10467163D02*
X6634402Y-10457640D01*
X6634402Y-10457640D02*
X6653449Y-10429068D01*
X6653449Y-10429068D02*
X6662973Y-10410021D01*
X6662973Y-10410021D02*
X6672497Y-10381449D01*
X6672497Y-10381449D02*
X6682021Y-10333830D01*
X6682021Y-10333830D02*
X6682021Y-10295735D01*
X6682021Y-10295735D02*
X6672497Y-10248116D01*
X6672497Y-10248116D02*
X6662973Y-10219544D01*
X6662973Y-10219544D02*
X6653449Y-10200497D01*
X6653449Y-10200497D02*
X6634402Y-10171925D01*
X6634402Y-10171925D02*
X6624878Y-10162402D01*
D14*
X1972497Y-10601497D02*
X1992497Y-10581497D01*
X1972497Y-10561497D01*
X1952497Y-10581497D01*
X1972497Y-10601497D01*
D11*
X2278211Y-10454973D02*
X2297259Y-10454973D01*
X2297259Y-10454973D02*
X2316306Y-10464497D01*
X2316306Y-10464497D02*
X2325830Y-10474021D01*
X2325830Y-10474021D02*
X2335354Y-10493068D01*
X2335354Y-10493068D02*
X2344878Y-10531163D01*
X2344878Y-10531163D02*
X2344878Y-10578783D01*
X2344878Y-10578783D02*
X2335354Y-10616878D01*
X2335354Y-10616878D02*
X2325830Y-10635925D01*
X2325830Y-10635925D02*
X2316306Y-10645449D01*
X2316306Y-10645449D02*
X2297259Y-10654973D01*
X2297259Y-10654973D02*
X2278211Y-10654973D01*
X2278211Y-10654973D02*
X2259163Y-10645449D01*
X2259163Y-10645449D02*
X2249640Y-10635925D01*
X2249640Y-10635925D02*
X2240116Y-10616878D01*
X2240116Y-10616878D02*
X2230592Y-10578783D01*
X2230592Y-10578783D02*
X2230592Y-10531163D01*
X2230592Y-10531163D02*
X2240116Y-10493068D01*
X2240116Y-10493068D02*
X2249640Y-10474021D01*
X2249640Y-10474021D02*
X2259163Y-10464497D01*
X2259163Y-10464497D02*
X2278211Y-10454973D01*
X2430592Y-10635925D02*
X2440116Y-10645449D01*
X2440116Y-10645449D02*
X2430592Y-10654973D01*
X2430592Y-10654973D02*
X2421068Y-10645449D01*
X2421068Y-10645449D02*
X2430592Y-10635925D01*
X2430592Y-10635925D02*
X2430592Y-10654973D01*
X2611544Y-10521640D02*
X2611544Y-10654973D01*
X2563925Y-10445449D02*
X2516306Y-10588306D01*
X2516306Y-10588306D02*
X2640116Y-10588306D01*
X2754402Y-10454973D02*
X2773449Y-10454973D01*
X2773449Y-10454973D02*
X2792497Y-10464497D01*
X2792497Y-10464497D02*
X2802021Y-10474021D01*
X2802021Y-10474021D02*
X2811544Y-10493068D01*
X2811544Y-10493068D02*
X2821068Y-10531163D01*
X2821068Y-10531163D02*
X2821068Y-10578783D01*
X2821068Y-10578783D02*
X2811544Y-10616878D01*
X2811544Y-10616878D02*
X2802021Y-10635925D01*
X2802021Y-10635925D02*
X2792497Y-10645449D01*
X2792497Y-10645449D02*
X2773449Y-10654973D01*
X2773449Y-10654973D02*
X2754402Y-10654973D01*
X2754402Y-10654973D02*
X2735354Y-10645449D01*
X2735354Y-10645449D02*
X2725830Y-10635925D01*
X2725830Y-10635925D02*
X2716306Y-10616878D01*
X2716306Y-10616878D02*
X2706783Y-10578783D01*
X2706783Y-10578783D02*
X2706783Y-10531163D01*
X2706783Y-10531163D02*
X2716306Y-10493068D01*
X2716306Y-10493068D02*
X2725830Y-10474021D01*
X2725830Y-10474021D02*
X2735354Y-10464497D01*
X2735354Y-10464497D02*
X2754402Y-10454973D01*
X2944878Y-10454973D02*
X2963925Y-10454973D01*
X2963925Y-10454973D02*
X2982973Y-10464497D01*
X2982973Y-10464497D02*
X2992497Y-10474021D01*
X2992497Y-10474021D02*
X3002021Y-10493068D01*
X3002021Y-10493068D02*
X3011544Y-10531163D01*
X3011544Y-10531163D02*
X3011544Y-10578783D01*
X3011544Y-10578783D02*
X3002021Y-10616878D01*
X3002021Y-10616878D02*
X2992497Y-10635925D01*
X2992497Y-10635925D02*
X2982973Y-10645449D01*
X2982973Y-10645449D02*
X2963925Y-10654973D01*
X2963925Y-10654973D02*
X2944878Y-10654973D01*
X2944878Y-10654973D02*
X2925830Y-10645449D01*
X2925830Y-10645449D02*
X2916306Y-10635925D01*
X2916306Y-10635925D02*
X2906782Y-10616878D01*
X2906782Y-10616878D02*
X2897259Y-10578783D01*
X2897259Y-10578783D02*
X2897259Y-10531163D01*
X2897259Y-10531163D02*
X2906782Y-10493068D01*
X2906782Y-10493068D02*
X2916306Y-10474021D01*
X2916306Y-10474021D02*
X2925830Y-10464497D01*
X2925830Y-10464497D02*
X2944878Y-10454973D01*
X3097259Y-10654973D02*
X3097259Y-10521640D01*
X3097259Y-10540687D02*
X3106782Y-10531163D01*
X3106782Y-10531163D02*
X3125830Y-10521640D01*
X3125830Y-10521640D02*
X3154402Y-10521640D01*
X3154402Y-10521640D02*
X3173449Y-10531163D01*
X3173449Y-10531163D02*
X3182973Y-10550211D01*
X3182973Y-10550211D02*
X3182973Y-10654973D01*
X3182973Y-10550211D02*
X3192497Y-10531163D01*
X3192497Y-10531163D02*
X3211544Y-10521640D01*
X3211544Y-10521640D02*
X3240116Y-10521640D01*
X3240116Y-10521640D02*
X3259163Y-10531163D01*
X3259163Y-10531163D02*
X3268687Y-10550211D01*
X3268687Y-10550211D02*
X3268687Y-10654973D01*
X3363925Y-10654973D02*
X3363925Y-10521640D01*
X3363925Y-10540687D02*
X3373449Y-10531163D01*
X3373449Y-10531163D02*
X3392497Y-10521640D01*
X3392497Y-10521640D02*
X3421068Y-10521640D01*
X3421068Y-10521640D02*
X3440116Y-10531163D01*
X3440116Y-10531163D02*
X3449640Y-10550211D01*
X3449640Y-10550211D02*
X3449640Y-10654973D01*
X3449640Y-10550211D02*
X3459163Y-10531163D01*
X3459163Y-10531163D02*
X3478211Y-10521640D01*
X3478211Y-10521640D02*
X3506782Y-10521640D01*
X3506782Y-10521640D02*
X3525830Y-10531163D01*
X3525830Y-10531163D02*
X3535354Y-10550211D01*
X3535354Y-10550211D02*
X3535354Y-10654973D01*
X3893449Y-10445449D02*
X3722021Y-10702592D01*
X4118211Y-10454973D02*
X4137259Y-10454973D01*
X4137259Y-10454973D02*
X4156306Y-10464497D01*
X4156306Y-10464497D02*
X4165830Y-10474021D01*
X4165830Y-10474021D02*
X4175354Y-10493068D01*
X4175354Y-10493068D02*
X4184878Y-10531163D01*
X4184878Y-10531163D02*
X4184878Y-10578783D01*
X4184878Y-10578783D02*
X4175354Y-10616878D01*
X4175354Y-10616878D02*
X4165830Y-10635925D01*
X4165830Y-10635925D02*
X4156306Y-10645449D01*
X4156306Y-10645449D02*
X4137259Y-10654973D01*
X4137259Y-10654973D02*
X4118211Y-10654973D01*
X4118211Y-10654973D02*
X4099163Y-10645449D01*
X4099163Y-10645449D02*
X4089640Y-10635925D01*
X4089640Y-10635925D02*
X4080116Y-10616878D01*
X4080116Y-10616878D02*
X4070592Y-10578783D01*
X4070592Y-10578783D02*
X4070592Y-10531163D01*
X4070592Y-10531163D02*
X4080116Y-10493068D01*
X4080116Y-10493068D02*
X4089640Y-10474021D01*
X4089640Y-10474021D02*
X4099163Y-10464497D01*
X4099163Y-10464497D02*
X4118211Y-10454973D01*
X4270592Y-10635925D02*
X4280116Y-10645449D01*
X4280116Y-10645449D02*
X4270592Y-10654973D01*
X4270592Y-10654973D02*
X4261068Y-10645449D01*
X4261068Y-10645449D02*
X4270592Y-10635925D01*
X4270592Y-10635925D02*
X4270592Y-10654973D01*
X4403925Y-10454973D02*
X4422973Y-10454973D01*
X4422973Y-10454973D02*
X4442021Y-10464497D01*
X4442021Y-10464497D02*
X4451545Y-10474021D01*
X4451545Y-10474021D02*
X4461068Y-10493068D01*
X4461068Y-10493068D02*
X4470592Y-10531163D01*
X4470592Y-10531163D02*
X4470592Y-10578783D01*
X4470592Y-10578783D02*
X4461068Y-10616878D01*
X4461068Y-10616878D02*
X4451545Y-10635925D01*
X4451545Y-10635925D02*
X4442021Y-10645449D01*
X4442021Y-10645449D02*
X4422973Y-10654973D01*
X4422973Y-10654973D02*
X4403925Y-10654973D01*
X4403925Y-10654973D02*
X4384878Y-10645449D01*
X4384878Y-10645449D02*
X4375354Y-10635925D01*
X4375354Y-10635925D02*
X4365830Y-10616878D01*
X4365830Y-10616878D02*
X4356306Y-10578783D01*
X4356306Y-10578783D02*
X4356306Y-10531163D01*
X4356306Y-10531163D02*
X4365830Y-10493068D01*
X4365830Y-10493068D02*
X4375354Y-10474021D01*
X4375354Y-10474021D02*
X4384878Y-10464497D01*
X4384878Y-10464497D02*
X4403925Y-10454973D01*
X4661068Y-10654973D02*
X4546783Y-10654973D01*
X4603925Y-10654973D02*
X4603925Y-10454973D01*
X4603925Y-10454973D02*
X4584878Y-10483544D01*
X4584878Y-10483544D02*
X4565830Y-10502592D01*
X4565830Y-10502592D02*
X4546783Y-10512116D01*
X4842021Y-10454973D02*
X4746783Y-10454973D01*
X4746783Y-10454973D02*
X4737259Y-10550211D01*
X4737259Y-10550211D02*
X4746783Y-10540687D01*
X4746783Y-10540687D02*
X4765830Y-10531163D01*
X4765830Y-10531163D02*
X4813449Y-10531163D01*
X4813449Y-10531163D02*
X4832497Y-10540687D01*
X4832497Y-10540687D02*
X4842021Y-10550211D01*
X4842021Y-10550211D02*
X4851545Y-10569259D01*
X4851545Y-10569259D02*
X4851545Y-10616878D01*
X4851545Y-10616878D02*
X4842021Y-10635925D01*
X4842021Y-10635925D02*
X4832497Y-10645449D01*
X4832497Y-10645449D02*
X4813449Y-10654973D01*
X4813449Y-10654973D02*
X4765830Y-10654973D01*
X4765830Y-10654973D02*
X4746783Y-10645449D01*
X4746783Y-10645449D02*
X4737259Y-10635925D01*
X4918211Y-10454973D02*
X5051545Y-10454973D01*
X5051545Y-10454973D02*
X4965830Y-10654973D01*
X5118211Y-10454973D02*
X5118211Y-10493068D01*
X5194402Y-10454973D02*
X5194402Y-10493068D01*
X5457259Y-10731163D02*
X5447735Y-10721640D01*
X5447735Y-10721640D02*
X5428687Y-10693068D01*
X5428687Y-10693068D02*
X5419164Y-10674021D01*
X5419164Y-10674021D02*
X5409640Y-10645449D01*
X5409640Y-10645449D02*
X5400116Y-10597830D01*
X5400116Y-10597830D02*
X5400116Y-10559735D01*
X5400116Y-10559735D02*
X5409640Y-10512116D01*
X5409640Y-10512116D02*
X5419164Y-10483544D01*
X5419164Y-10483544D02*
X5428687Y-10464497D01*
X5428687Y-10464497D02*
X5447735Y-10435925D01*
X5447735Y-10435925D02*
X5457259Y-10426402D01*
X5638211Y-10654973D02*
X5523926Y-10654973D01*
X5581068Y-10654973D02*
X5581068Y-10454973D01*
X5581068Y-10454973D02*
X5562021Y-10483544D01*
X5562021Y-10483544D02*
X5542973Y-10502592D01*
X5542973Y-10502592D02*
X5523926Y-10512116D01*
X5714402Y-10474021D02*
X5723925Y-10464497D01*
X5723925Y-10464497D02*
X5742973Y-10454973D01*
X5742973Y-10454973D02*
X5790592Y-10454973D01*
X5790592Y-10454973D02*
X5809640Y-10464497D01*
X5809640Y-10464497D02*
X5819164Y-10474021D01*
X5819164Y-10474021D02*
X5828687Y-10493068D01*
X5828687Y-10493068D02*
X5828687Y-10512116D01*
X5828687Y-10512116D02*
X5819164Y-10540687D01*
X5819164Y-10540687D02*
X5704878Y-10654973D01*
X5704878Y-10654973D02*
X5828687Y-10654973D01*
X6034402Y-10654973D02*
X6034402Y-10454973D01*
X6120116Y-10654973D02*
X6120116Y-10550211D01*
X6120116Y-10550211D02*
X6110592Y-10531163D01*
X6110592Y-10531163D02*
X6091545Y-10521640D01*
X6091545Y-10521640D02*
X6062973Y-10521640D01*
X6062973Y-10521640D02*
X6043925Y-10531163D01*
X6043925Y-10531163D02*
X6034402Y-10540687D01*
X6243925Y-10654973D02*
X6224878Y-10645449D01*
X6224878Y-10645449D02*
X6215354Y-10635925D01*
X6215354Y-10635925D02*
X6205830Y-10616878D01*
X6205830Y-10616878D02*
X6205830Y-10559735D01*
X6205830Y-10559735D02*
X6215354Y-10540687D01*
X6215354Y-10540687D02*
X6224878Y-10531163D01*
X6224878Y-10531163D02*
X6243925Y-10521640D01*
X6243925Y-10521640D02*
X6272497Y-10521640D01*
X6272497Y-10521640D02*
X6291545Y-10531163D01*
X6291545Y-10531163D02*
X6301068Y-10540687D01*
X6301068Y-10540687D02*
X6310592Y-10559735D01*
X6310592Y-10559735D02*
X6310592Y-10616878D01*
X6310592Y-10616878D02*
X6301068Y-10635925D01*
X6301068Y-10635925D02*
X6291545Y-10645449D01*
X6291545Y-10645449D02*
X6272497Y-10654973D01*
X6272497Y-10654973D02*
X6243925Y-10654973D01*
X6424878Y-10654973D02*
X6405830Y-10645449D01*
X6405830Y-10645449D02*
X6396306Y-10626402D01*
X6396306Y-10626402D02*
X6396306Y-10454973D01*
X6577259Y-10645449D02*
X6558211Y-10654973D01*
X6558211Y-10654973D02*
X6520116Y-10654973D01*
X6520116Y-10654973D02*
X6501068Y-10645449D01*
X6501068Y-10645449D02*
X6491545Y-10626402D01*
X6491545Y-10626402D02*
X6491545Y-10550211D01*
X6491545Y-10550211D02*
X6501068Y-10531163D01*
X6501068Y-10531163D02*
X6520116Y-10521640D01*
X6520116Y-10521640D02*
X6558211Y-10521640D01*
X6558211Y-10521640D02*
X6577259Y-10531163D01*
X6577259Y-10531163D02*
X6586783Y-10550211D01*
X6586783Y-10550211D02*
X6586783Y-10569259D01*
X6586783Y-10569259D02*
X6491545Y-10588306D01*
X6662973Y-10645449D02*
X6682021Y-10654973D01*
X6682021Y-10654973D02*
X6720116Y-10654973D01*
X6720116Y-10654973D02*
X6739164Y-10645449D01*
X6739164Y-10645449D02*
X6748687Y-10626402D01*
X6748687Y-10626402D02*
X6748687Y-10616878D01*
X6748687Y-10616878D02*
X6739164Y-10597830D01*
X6739164Y-10597830D02*
X6720116Y-10588306D01*
X6720116Y-10588306D02*
X6691545Y-10588306D01*
X6691545Y-10588306D02*
X6672497Y-10578783D01*
X6672497Y-10578783D02*
X6662973Y-10559735D01*
X6662973Y-10559735D02*
X6662973Y-10550211D01*
X6662973Y-10550211D02*
X6672497Y-10531163D01*
X6672497Y-10531163D02*
X6691545Y-10521640D01*
X6691545Y-10521640D02*
X6720116Y-10521640D01*
X6720116Y-10521640D02*
X6739164Y-10531163D01*
X6815354Y-10731163D02*
X6824878Y-10721640D01*
X6824878Y-10721640D02*
X6843926Y-10693068D01*
X6843926Y-10693068D02*
X6853449Y-10674021D01*
X6853449Y-10674021D02*
X6862973Y-10645449D01*
X6862973Y-10645449D02*
X6872497Y-10597830D01*
X6872497Y-10597830D02*
X6872497Y-10559735D01*
X6872497Y-10559735D02*
X6862973Y-10512116D01*
X6862973Y-10512116D02*
X6853449Y-10483544D01*
X6853449Y-10483544D02*
X6843926Y-10464497D01*
X6843926Y-10464497D02*
X6824878Y-10435925D01*
X6824878Y-10435925D02*
X6815354Y-10426402D01*
D15*
X1942497Y-10820497D02*
X1992497Y-10870497D01*
X1992497Y-10820497D02*
X1942497Y-10870497D01*
X1992497Y-10845497D02*
G75*
G03*
X1992497Y-10845497I-25000J0D01*
G01*
D11*
X2278211Y-10718973D02*
X2297259Y-10718973D01*
X2297259Y-10718973D02*
X2316306Y-10728497D01*
X2316306Y-10728497D02*
X2325830Y-10738021D01*
X2325830Y-10738021D02*
X2335354Y-10757068D01*
X2335354Y-10757068D02*
X2344878Y-10795163D01*
X2344878Y-10795163D02*
X2344878Y-10842783D01*
X2344878Y-10842783D02*
X2335354Y-10880878D01*
X2335354Y-10880878D02*
X2325830Y-10899925D01*
X2325830Y-10899925D02*
X2316306Y-10909449D01*
X2316306Y-10909449D02*
X2297259Y-10918973D01*
X2297259Y-10918973D02*
X2278211Y-10918973D01*
X2278211Y-10918973D02*
X2259163Y-10909449D01*
X2259163Y-10909449D02*
X2249640Y-10899925D01*
X2249640Y-10899925D02*
X2240116Y-10880878D01*
X2240116Y-10880878D02*
X2230592Y-10842783D01*
X2230592Y-10842783D02*
X2230592Y-10795163D01*
X2230592Y-10795163D02*
X2240116Y-10757068D01*
X2240116Y-10757068D02*
X2249640Y-10738021D01*
X2249640Y-10738021D02*
X2259163Y-10728497D01*
X2259163Y-10728497D02*
X2278211Y-10718973D01*
X2430592Y-10899925D02*
X2440116Y-10909449D01*
X2440116Y-10909449D02*
X2430592Y-10918973D01*
X2430592Y-10918973D02*
X2421068Y-10909449D01*
X2421068Y-10909449D02*
X2430592Y-10899925D01*
X2430592Y-10899925D02*
X2430592Y-10918973D01*
X2621068Y-10718973D02*
X2525830Y-10718973D01*
X2525830Y-10718973D02*
X2516306Y-10814211D01*
X2516306Y-10814211D02*
X2525830Y-10804687D01*
X2525830Y-10804687D02*
X2544878Y-10795163D01*
X2544878Y-10795163D02*
X2592497Y-10795163D01*
X2592497Y-10795163D02*
X2611544Y-10804687D01*
X2611544Y-10804687D02*
X2621068Y-10814211D01*
X2621068Y-10814211D02*
X2630592Y-10833259D01*
X2630592Y-10833259D02*
X2630592Y-10880878D01*
X2630592Y-10880878D02*
X2621068Y-10899925D01*
X2621068Y-10899925D02*
X2611544Y-10909449D01*
X2611544Y-10909449D02*
X2592497Y-10918973D01*
X2592497Y-10918973D02*
X2544878Y-10918973D01*
X2544878Y-10918973D02*
X2525830Y-10909449D01*
X2525830Y-10909449D02*
X2516306Y-10899925D01*
X2754402Y-10718973D02*
X2773449Y-10718973D01*
X2773449Y-10718973D02*
X2792497Y-10728497D01*
X2792497Y-10728497D02*
X2802021Y-10738021D01*
X2802021Y-10738021D02*
X2811544Y-10757068D01*
X2811544Y-10757068D02*
X2821068Y-10795163D01*
X2821068Y-10795163D02*
X2821068Y-10842783D01*
X2821068Y-10842783D02*
X2811544Y-10880878D01*
X2811544Y-10880878D02*
X2802021Y-10899925D01*
X2802021Y-10899925D02*
X2792497Y-10909449D01*
X2792497Y-10909449D02*
X2773449Y-10918973D01*
X2773449Y-10918973D02*
X2754402Y-10918973D01*
X2754402Y-10918973D02*
X2735354Y-10909449D01*
X2735354Y-10909449D02*
X2725830Y-10899925D01*
X2725830Y-10899925D02*
X2716306Y-10880878D01*
X2716306Y-10880878D02*
X2706783Y-10842783D01*
X2706783Y-10842783D02*
X2706783Y-10795163D01*
X2706783Y-10795163D02*
X2716306Y-10757068D01*
X2716306Y-10757068D02*
X2725830Y-10738021D01*
X2725830Y-10738021D02*
X2735354Y-10728497D01*
X2735354Y-10728497D02*
X2754402Y-10718973D01*
X2944878Y-10718973D02*
X2963925Y-10718973D01*
X2963925Y-10718973D02*
X2982973Y-10728497D01*
X2982973Y-10728497D02*
X2992497Y-10738021D01*
X2992497Y-10738021D02*
X3002021Y-10757068D01*
X3002021Y-10757068D02*
X3011544Y-10795163D01*
X3011544Y-10795163D02*
X3011544Y-10842783D01*
X3011544Y-10842783D02*
X3002021Y-10880878D01*
X3002021Y-10880878D02*
X2992497Y-10899925D01*
X2992497Y-10899925D02*
X2982973Y-10909449D01*
X2982973Y-10909449D02*
X2963925Y-10918973D01*
X2963925Y-10918973D02*
X2944878Y-10918973D01*
X2944878Y-10918973D02*
X2925830Y-10909449D01*
X2925830Y-10909449D02*
X2916306Y-10899925D01*
X2916306Y-10899925D02*
X2906782Y-10880878D01*
X2906782Y-10880878D02*
X2897259Y-10842783D01*
X2897259Y-10842783D02*
X2897259Y-10795163D01*
X2897259Y-10795163D02*
X2906782Y-10757068D01*
X2906782Y-10757068D02*
X2916306Y-10738021D01*
X2916306Y-10738021D02*
X2925830Y-10728497D01*
X2925830Y-10728497D02*
X2944878Y-10718973D01*
X3097259Y-10918973D02*
X3097259Y-10785640D01*
X3097259Y-10804687D02*
X3106782Y-10795163D01*
X3106782Y-10795163D02*
X3125830Y-10785640D01*
X3125830Y-10785640D02*
X3154402Y-10785640D01*
X3154402Y-10785640D02*
X3173449Y-10795163D01*
X3173449Y-10795163D02*
X3182973Y-10814211D01*
X3182973Y-10814211D02*
X3182973Y-10918973D01*
X3182973Y-10814211D02*
X3192497Y-10795163D01*
X3192497Y-10795163D02*
X3211544Y-10785640D01*
X3211544Y-10785640D02*
X3240116Y-10785640D01*
X3240116Y-10785640D02*
X3259163Y-10795163D01*
X3259163Y-10795163D02*
X3268687Y-10814211D01*
X3268687Y-10814211D02*
X3268687Y-10918973D01*
X3363925Y-10918973D02*
X3363925Y-10785640D01*
X3363925Y-10804687D02*
X3373449Y-10795163D01*
X3373449Y-10795163D02*
X3392497Y-10785640D01*
X3392497Y-10785640D02*
X3421068Y-10785640D01*
X3421068Y-10785640D02*
X3440116Y-10795163D01*
X3440116Y-10795163D02*
X3449640Y-10814211D01*
X3449640Y-10814211D02*
X3449640Y-10918973D01*
X3449640Y-10814211D02*
X3459163Y-10795163D01*
X3459163Y-10795163D02*
X3478211Y-10785640D01*
X3478211Y-10785640D02*
X3506782Y-10785640D01*
X3506782Y-10785640D02*
X3525830Y-10795163D01*
X3525830Y-10795163D02*
X3535354Y-10814211D01*
X3535354Y-10814211D02*
X3535354Y-10918973D01*
X3893449Y-10709449D02*
X3722021Y-10966592D01*
X4118211Y-10718973D02*
X4137259Y-10718973D01*
X4137259Y-10718973D02*
X4156306Y-10728497D01*
X4156306Y-10728497D02*
X4165830Y-10738021D01*
X4165830Y-10738021D02*
X4175354Y-10757068D01*
X4175354Y-10757068D02*
X4184878Y-10795163D01*
X4184878Y-10795163D02*
X4184878Y-10842783D01*
X4184878Y-10842783D02*
X4175354Y-10880878D01*
X4175354Y-10880878D02*
X4165830Y-10899925D01*
X4165830Y-10899925D02*
X4156306Y-10909449D01*
X4156306Y-10909449D02*
X4137259Y-10918973D01*
X4137259Y-10918973D02*
X4118211Y-10918973D01*
X4118211Y-10918973D02*
X4099163Y-10909449D01*
X4099163Y-10909449D02*
X4089640Y-10899925D01*
X4089640Y-10899925D02*
X4080116Y-10880878D01*
X4080116Y-10880878D02*
X4070592Y-10842783D01*
X4070592Y-10842783D02*
X4070592Y-10795163D01*
X4070592Y-10795163D02*
X4080116Y-10757068D01*
X4080116Y-10757068D02*
X4089640Y-10738021D01*
X4089640Y-10738021D02*
X4099163Y-10728497D01*
X4099163Y-10728497D02*
X4118211Y-10718973D01*
X4270592Y-10899925D02*
X4280116Y-10909449D01*
X4280116Y-10909449D02*
X4270592Y-10918973D01*
X4270592Y-10918973D02*
X4261068Y-10909449D01*
X4261068Y-10909449D02*
X4270592Y-10899925D01*
X4270592Y-10899925D02*
X4270592Y-10918973D01*
X4403925Y-10718973D02*
X4422973Y-10718973D01*
X4422973Y-10718973D02*
X4442021Y-10728497D01*
X4442021Y-10728497D02*
X4451545Y-10738021D01*
X4451545Y-10738021D02*
X4461068Y-10757068D01*
X4461068Y-10757068D02*
X4470592Y-10795163D01*
X4470592Y-10795163D02*
X4470592Y-10842783D01*
X4470592Y-10842783D02*
X4461068Y-10880878D01*
X4461068Y-10880878D02*
X4451545Y-10899925D01*
X4451545Y-10899925D02*
X4442021Y-10909449D01*
X4442021Y-10909449D02*
X4422973Y-10918973D01*
X4422973Y-10918973D02*
X4403925Y-10918973D01*
X4403925Y-10918973D02*
X4384878Y-10909449D01*
X4384878Y-10909449D02*
X4375354Y-10899925D01*
X4375354Y-10899925D02*
X4365830Y-10880878D01*
X4365830Y-10880878D02*
X4356306Y-10842783D01*
X4356306Y-10842783D02*
X4356306Y-10795163D01*
X4356306Y-10795163D02*
X4365830Y-10757068D01*
X4365830Y-10757068D02*
X4375354Y-10738021D01*
X4375354Y-10738021D02*
X4384878Y-10728497D01*
X4384878Y-10728497D02*
X4403925Y-10718973D01*
X4661068Y-10918973D02*
X4546783Y-10918973D01*
X4603925Y-10918973D02*
X4603925Y-10718973D01*
X4603925Y-10718973D02*
X4584878Y-10747544D01*
X4584878Y-10747544D02*
X4565830Y-10766592D01*
X4565830Y-10766592D02*
X4546783Y-10776116D01*
X4756306Y-10918973D02*
X4794402Y-10918973D01*
X4794402Y-10918973D02*
X4813449Y-10909449D01*
X4813449Y-10909449D02*
X4822973Y-10899925D01*
X4822973Y-10899925D02*
X4842021Y-10871354D01*
X4842021Y-10871354D02*
X4851545Y-10833259D01*
X4851545Y-10833259D02*
X4851545Y-10757068D01*
X4851545Y-10757068D02*
X4842021Y-10738021D01*
X4842021Y-10738021D02*
X4832497Y-10728497D01*
X4832497Y-10728497D02*
X4813449Y-10718973D01*
X4813449Y-10718973D02*
X4775354Y-10718973D01*
X4775354Y-10718973D02*
X4756306Y-10728497D01*
X4756306Y-10728497D02*
X4746783Y-10738021D01*
X4746783Y-10738021D02*
X4737259Y-10757068D01*
X4737259Y-10757068D02*
X4737259Y-10804687D01*
X4737259Y-10804687D02*
X4746783Y-10823735D01*
X4746783Y-10823735D02*
X4756306Y-10833259D01*
X4756306Y-10833259D02*
X4775354Y-10842783D01*
X4775354Y-10842783D02*
X4813449Y-10842783D01*
X4813449Y-10842783D02*
X4832497Y-10833259D01*
X4832497Y-10833259D02*
X4842021Y-10823735D01*
X4842021Y-10823735D02*
X4851545Y-10804687D01*
X4918211Y-10718973D02*
X5051545Y-10718973D01*
X5051545Y-10718973D02*
X4965830Y-10918973D01*
X5118211Y-10718973D02*
X5118211Y-10757068D01*
X5194402Y-10718973D02*
X5194402Y-10757068D01*
X5457259Y-10995163D02*
X5447735Y-10985640D01*
X5447735Y-10985640D02*
X5428687Y-10957068D01*
X5428687Y-10957068D02*
X5419164Y-10938021D01*
X5419164Y-10938021D02*
X5409640Y-10909449D01*
X5409640Y-10909449D02*
X5400116Y-10861830D01*
X5400116Y-10861830D02*
X5400116Y-10823735D01*
X5400116Y-10823735D02*
X5409640Y-10776116D01*
X5409640Y-10776116D02*
X5419164Y-10747544D01*
X5419164Y-10747544D02*
X5428687Y-10728497D01*
X5428687Y-10728497D02*
X5447735Y-10699925D01*
X5447735Y-10699925D02*
X5457259Y-10690402D01*
X5571545Y-10718973D02*
X5590592Y-10718973D01*
X5590592Y-10718973D02*
X5609640Y-10728497D01*
X5609640Y-10728497D02*
X5619164Y-10738021D01*
X5619164Y-10738021D02*
X5628687Y-10757068D01*
X5628687Y-10757068D02*
X5638211Y-10795163D01*
X5638211Y-10795163D02*
X5638211Y-10842783D01*
X5638211Y-10842783D02*
X5628687Y-10880878D01*
X5628687Y-10880878D02*
X5619164Y-10899925D01*
X5619164Y-10899925D02*
X5609640Y-10909449D01*
X5609640Y-10909449D02*
X5590592Y-10918973D01*
X5590592Y-10918973D02*
X5571545Y-10918973D01*
X5571545Y-10918973D02*
X5552497Y-10909449D01*
X5552497Y-10909449D02*
X5542973Y-10899925D01*
X5542973Y-10899925D02*
X5533449Y-10880878D01*
X5533449Y-10880878D02*
X5523926Y-10842783D01*
X5523926Y-10842783D02*
X5523926Y-10795163D01*
X5523926Y-10795163D02*
X5533449Y-10757068D01*
X5533449Y-10757068D02*
X5542973Y-10738021D01*
X5542973Y-10738021D02*
X5552497Y-10728497D01*
X5552497Y-10728497D02*
X5571545Y-10718973D01*
X5843925Y-10918973D02*
X5843925Y-10718973D01*
X5929640Y-10918973D02*
X5929640Y-10814211D01*
X5929640Y-10814211D02*
X5920116Y-10795163D01*
X5920116Y-10795163D02*
X5901068Y-10785640D01*
X5901068Y-10785640D02*
X5872497Y-10785640D01*
X5872497Y-10785640D02*
X5853449Y-10795163D01*
X5853449Y-10795163D02*
X5843925Y-10804687D01*
X6053449Y-10918973D02*
X6034402Y-10909449D01*
X6034402Y-10909449D02*
X6024878Y-10899925D01*
X6024878Y-10899925D02*
X6015354Y-10880878D01*
X6015354Y-10880878D02*
X6015354Y-10823735D01*
X6015354Y-10823735D02*
X6024878Y-10804687D01*
X6024878Y-10804687D02*
X6034402Y-10795163D01*
X6034402Y-10795163D02*
X6053449Y-10785640D01*
X6053449Y-10785640D02*
X6082021Y-10785640D01*
X6082021Y-10785640D02*
X6101068Y-10795163D01*
X6101068Y-10795163D02*
X6110592Y-10804687D01*
X6110592Y-10804687D02*
X6120116Y-10823735D01*
X6120116Y-10823735D02*
X6120116Y-10880878D01*
X6120116Y-10880878D02*
X6110592Y-10899925D01*
X6110592Y-10899925D02*
X6101068Y-10909449D01*
X6101068Y-10909449D02*
X6082021Y-10918973D01*
X6082021Y-10918973D02*
X6053449Y-10918973D01*
X6234402Y-10918973D02*
X6215354Y-10909449D01*
X6215354Y-10909449D02*
X6205830Y-10890402D01*
X6205830Y-10890402D02*
X6205830Y-10718973D01*
X6386783Y-10909449D02*
X6367735Y-10918973D01*
X6367735Y-10918973D02*
X6329640Y-10918973D01*
X6329640Y-10918973D02*
X6310592Y-10909449D01*
X6310592Y-10909449D02*
X6301068Y-10890402D01*
X6301068Y-10890402D02*
X6301068Y-10814211D01*
X6301068Y-10814211D02*
X6310592Y-10795163D01*
X6310592Y-10795163D02*
X6329640Y-10785640D01*
X6329640Y-10785640D02*
X6367735Y-10785640D01*
X6367735Y-10785640D02*
X6386783Y-10795163D01*
X6386783Y-10795163D02*
X6396306Y-10814211D01*
X6396306Y-10814211D02*
X6396306Y-10833259D01*
X6396306Y-10833259D02*
X6301068Y-10852306D01*
X6472497Y-10909449D02*
X6491545Y-10918973D01*
X6491545Y-10918973D02*
X6529640Y-10918973D01*
X6529640Y-10918973D02*
X6548687Y-10909449D01*
X6548687Y-10909449D02*
X6558211Y-10890402D01*
X6558211Y-10890402D02*
X6558211Y-10880878D01*
X6558211Y-10880878D02*
X6548687Y-10861830D01*
X6548687Y-10861830D02*
X6529640Y-10852306D01*
X6529640Y-10852306D02*
X6501068Y-10852306D01*
X6501068Y-10852306D02*
X6482021Y-10842783D01*
X6482021Y-10842783D02*
X6472497Y-10823735D01*
X6472497Y-10823735D02*
X6472497Y-10814211D01*
X6472497Y-10814211D02*
X6482021Y-10795163D01*
X6482021Y-10795163D02*
X6501068Y-10785640D01*
X6501068Y-10785640D02*
X6529640Y-10785640D01*
X6529640Y-10785640D02*
X6548687Y-10795163D01*
X6763926Y-10842783D02*
X6916307Y-10842783D01*
X6840116Y-10918973D02*
X6840116Y-10766592D01*
X7217259Y-10785640D02*
X7217259Y-10918973D01*
X7169640Y-10709449D02*
X7122021Y-10852306D01*
X7122021Y-10852306D02*
X7245830Y-10852306D01*
X7432497Y-10909449D02*
X7451545Y-10918973D01*
X7451545Y-10918973D02*
X7489640Y-10918973D01*
X7489640Y-10918973D02*
X7508687Y-10909449D01*
X7508687Y-10909449D02*
X7518211Y-10890402D01*
X7518211Y-10890402D02*
X7518211Y-10880878D01*
X7518211Y-10880878D02*
X7508687Y-10861830D01*
X7508687Y-10861830D02*
X7489640Y-10852306D01*
X7489640Y-10852306D02*
X7461068Y-10852306D01*
X7461068Y-10852306D02*
X7442021Y-10842783D01*
X7442021Y-10842783D02*
X7432497Y-10823735D01*
X7432497Y-10823735D02*
X7432497Y-10814211D01*
X7432497Y-10814211D02*
X7442021Y-10795163D01*
X7442021Y-10795163D02*
X7461068Y-10785640D01*
X7461068Y-10785640D02*
X7489640Y-10785640D01*
X7489640Y-10785640D02*
X7508687Y-10795163D01*
X7632497Y-10918973D02*
X7613449Y-10909449D01*
X7613449Y-10909449D02*
X7603926Y-10890402D01*
X7603926Y-10890402D02*
X7603926Y-10718973D01*
X7737259Y-10918973D02*
X7718211Y-10909449D01*
X7718211Y-10909449D02*
X7708687Y-10899925D01*
X7708687Y-10899925D02*
X7699164Y-10880878D01*
X7699164Y-10880878D02*
X7699164Y-10823735D01*
X7699164Y-10823735D02*
X7708687Y-10804687D01*
X7708687Y-10804687D02*
X7718211Y-10795163D01*
X7718211Y-10795163D02*
X7737259Y-10785640D01*
X7737259Y-10785640D02*
X7765830Y-10785640D01*
X7765830Y-10785640D02*
X7784878Y-10795163D01*
X7784878Y-10795163D02*
X7794402Y-10804687D01*
X7794402Y-10804687D02*
X7803926Y-10823735D01*
X7803926Y-10823735D02*
X7803926Y-10880878D01*
X7803926Y-10880878D02*
X7794402Y-10899925D01*
X7794402Y-10899925D02*
X7784878Y-10909449D01*
X7784878Y-10909449D02*
X7765830Y-10918973D01*
X7765830Y-10918973D02*
X7737259Y-10918973D01*
X7861068Y-10785640D02*
X7937259Y-10785640D01*
X7889640Y-10718973D02*
X7889640Y-10890402D01*
X7889640Y-10890402D02*
X7899164Y-10909449D01*
X7899164Y-10909449D02*
X7918211Y-10918973D01*
X7918211Y-10918973D02*
X7937259Y-10918973D01*
X7994402Y-10909449D02*
X8013449Y-10918973D01*
X8013449Y-10918973D02*
X8051545Y-10918973D01*
X8051545Y-10918973D02*
X8070592Y-10909449D01*
X8070592Y-10909449D02*
X8080116Y-10890402D01*
X8080116Y-10890402D02*
X8080116Y-10880878D01*
X8080116Y-10880878D02*
X8070592Y-10861830D01*
X8070592Y-10861830D02*
X8051545Y-10852306D01*
X8051545Y-10852306D02*
X8022973Y-10852306D01*
X8022973Y-10852306D02*
X8003926Y-10842783D01*
X8003926Y-10842783D02*
X7994402Y-10823735D01*
X7994402Y-10823735D02*
X7994402Y-10814211D01*
X7994402Y-10814211D02*
X8003926Y-10795163D01*
X8003926Y-10795163D02*
X8022973Y-10785640D01*
X8022973Y-10785640D02*
X8051545Y-10785640D01*
X8051545Y-10785640D02*
X8070592Y-10795163D01*
X8146783Y-10995163D02*
X8156307Y-10985640D01*
X8156307Y-10985640D02*
X8175354Y-10957068D01*
X8175354Y-10957068D02*
X8184878Y-10938021D01*
X8184878Y-10938021D02*
X8194402Y-10909449D01*
X8194402Y-10909449D02*
X8203926Y-10861830D01*
X8203926Y-10861830D02*
X8203926Y-10823735D01*
X8203926Y-10823735D02*
X8194402Y-10776116D01*
X8194402Y-10776116D02*
X8184878Y-10747544D01*
X8184878Y-10747544D02*
X8175354Y-10728497D01*
X8175354Y-10728497D02*
X8156307Y-10699925D01*
X8156307Y-10699925D02*
X8146783Y-10690402D01*
D16*
X1912497Y-11069497D02*
X1992497Y-11149497D01*
X1992497Y-11069497D02*
X1912497Y-11149497D01*
X1952497Y-11069497D02*
X1952497Y-11149497D01*
X1912497Y-11109497D02*
X1992497Y-11109497D01*
D11*
X2278211Y-10982973D02*
X2297259Y-10982973D01*
X2297259Y-10982973D02*
X2316306Y-10992497D01*
X2316306Y-10992497D02*
X2325830Y-11002021D01*
X2325830Y-11002021D02*
X2335354Y-11021068D01*
X2335354Y-11021068D02*
X2344878Y-11059163D01*
X2344878Y-11059163D02*
X2344878Y-11106783D01*
X2344878Y-11106783D02*
X2335354Y-11144878D01*
X2335354Y-11144878D02*
X2325830Y-11163925D01*
X2325830Y-11163925D02*
X2316306Y-11173449D01*
X2316306Y-11173449D02*
X2297259Y-11182973D01*
X2297259Y-11182973D02*
X2278211Y-11182973D01*
X2278211Y-11182973D02*
X2259163Y-11173449D01*
X2259163Y-11173449D02*
X2249640Y-11163925D01*
X2249640Y-11163925D02*
X2240116Y-11144878D01*
X2240116Y-11144878D02*
X2230592Y-11106783D01*
X2230592Y-11106783D02*
X2230592Y-11059163D01*
X2230592Y-11059163D02*
X2240116Y-11021068D01*
X2240116Y-11021068D02*
X2249640Y-11002021D01*
X2249640Y-11002021D02*
X2259163Y-10992497D01*
X2259163Y-10992497D02*
X2278211Y-10982973D01*
X2430592Y-11163925D02*
X2440116Y-11173449D01*
X2440116Y-11173449D02*
X2430592Y-11182973D01*
X2430592Y-11182973D02*
X2421068Y-11173449D01*
X2421068Y-11173449D02*
X2430592Y-11163925D01*
X2430592Y-11163925D02*
X2430592Y-11182973D01*
X2554402Y-11068687D02*
X2535354Y-11059163D01*
X2535354Y-11059163D02*
X2525830Y-11049640D01*
X2525830Y-11049640D02*
X2516306Y-11030592D01*
X2516306Y-11030592D02*
X2516306Y-11021068D01*
X2516306Y-11021068D02*
X2525830Y-11002021D01*
X2525830Y-11002021D02*
X2535354Y-10992497D01*
X2535354Y-10992497D02*
X2554402Y-10982973D01*
X2554402Y-10982973D02*
X2592497Y-10982973D01*
X2592497Y-10982973D02*
X2611544Y-10992497D01*
X2611544Y-10992497D02*
X2621068Y-11002021D01*
X2621068Y-11002021D02*
X2630592Y-11021068D01*
X2630592Y-11021068D02*
X2630592Y-11030592D01*
X2630592Y-11030592D02*
X2621068Y-11049640D01*
X2621068Y-11049640D02*
X2611544Y-11059163D01*
X2611544Y-11059163D02*
X2592497Y-11068687D01*
X2592497Y-11068687D02*
X2554402Y-11068687D01*
X2554402Y-11068687D02*
X2535354Y-11078211D01*
X2535354Y-11078211D02*
X2525830Y-11087735D01*
X2525830Y-11087735D02*
X2516306Y-11106783D01*
X2516306Y-11106783D02*
X2516306Y-11144878D01*
X2516306Y-11144878D02*
X2525830Y-11163925D01*
X2525830Y-11163925D02*
X2535354Y-11173449D01*
X2535354Y-11173449D02*
X2554402Y-11182973D01*
X2554402Y-11182973D02*
X2592497Y-11182973D01*
X2592497Y-11182973D02*
X2611544Y-11173449D01*
X2611544Y-11173449D02*
X2621068Y-11163925D01*
X2621068Y-11163925D02*
X2630592Y-11144878D01*
X2630592Y-11144878D02*
X2630592Y-11106783D01*
X2630592Y-11106783D02*
X2621068Y-11087735D01*
X2621068Y-11087735D02*
X2611544Y-11078211D01*
X2611544Y-11078211D02*
X2592497Y-11068687D01*
X2754402Y-10982973D02*
X2773449Y-10982973D01*
X2773449Y-10982973D02*
X2792497Y-10992497D01*
X2792497Y-10992497D02*
X2802021Y-11002021D01*
X2802021Y-11002021D02*
X2811544Y-11021068D01*
X2811544Y-11021068D02*
X2821068Y-11059163D01*
X2821068Y-11059163D02*
X2821068Y-11106783D01*
X2821068Y-11106783D02*
X2811544Y-11144878D01*
X2811544Y-11144878D02*
X2802021Y-11163925D01*
X2802021Y-11163925D02*
X2792497Y-11173449D01*
X2792497Y-11173449D02*
X2773449Y-11182973D01*
X2773449Y-11182973D02*
X2754402Y-11182973D01*
X2754402Y-11182973D02*
X2735354Y-11173449D01*
X2735354Y-11173449D02*
X2725830Y-11163925D01*
X2725830Y-11163925D02*
X2716306Y-11144878D01*
X2716306Y-11144878D02*
X2706783Y-11106783D01*
X2706783Y-11106783D02*
X2706783Y-11059163D01*
X2706783Y-11059163D02*
X2716306Y-11021068D01*
X2716306Y-11021068D02*
X2725830Y-11002021D01*
X2725830Y-11002021D02*
X2735354Y-10992497D01*
X2735354Y-10992497D02*
X2754402Y-10982973D01*
X2944878Y-10982973D02*
X2963925Y-10982973D01*
X2963925Y-10982973D02*
X2982973Y-10992497D01*
X2982973Y-10992497D02*
X2992497Y-11002021D01*
X2992497Y-11002021D02*
X3002021Y-11021068D01*
X3002021Y-11021068D02*
X3011544Y-11059163D01*
X3011544Y-11059163D02*
X3011544Y-11106783D01*
X3011544Y-11106783D02*
X3002021Y-11144878D01*
X3002021Y-11144878D02*
X2992497Y-11163925D01*
X2992497Y-11163925D02*
X2982973Y-11173449D01*
X2982973Y-11173449D02*
X2963925Y-11182973D01*
X2963925Y-11182973D02*
X2944878Y-11182973D01*
X2944878Y-11182973D02*
X2925830Y-11173449D01*
X2925830Y-11173449D02*
X2916306Y-11163925D01*
X2916306Y-11163925D02*
X2906782Y-11144878D01*
X2906782Y-11144878D02*
X2897259Y-11106783D01*
X2897259Y-11106783D02*
X2897259Y-11059163D01*
X2897259Y-11059163D02*
X2906782Y-11021068D01*
X2906782Y-11021068D02*
X2916306Y-11002021D01*
X2916306Y-11002021D02*
X2925830Y-10992497D01*
X2925830Y-10992497D02*
X2944878Y-10982973D01*
X3097259Y-11182973D02*
X3097259Y-11049640D01*
X3097259Y-11068687D02*
X3106782Y-11059163D01*
X3106782Y-11059163D02*
X3125830Y-11049640D01*
X3125830Y-11049640D02*
X3154402Y-11049640D01*
X3154402Y-11049640D02*
X3173449Y-11059163D01*
X3173449Y-11059163D02*
X3182973Y-11078211D01*
X3182973Y-11078211D02*
X3182973Y-11182973D01*
X3182973Y-11078211D02*
X3192497Y-11059163D01*
X3192497Y-11059163D02*
X3211544Y-11049640D01*
X3211544Y-11049640D02*
X3240116Y-11049640D01*
X3240116Y-11049640D02*
X3259163Y-11059163D01*
X3259163Y-11059163D02*
X3268687Y-11078211D01*
X3268687Y-11078211D02*
X3268687Y-11182973D01*
X3363925Y-11182973D02*
X3363925Y-11049640D01*
X3363925Y-11068687D02*
X3373449Y-11059163D01*
X3373449Y-11059163D02*
X3392497Y-11049640D01*
X3392497Y-11049640D02*
X3421068Y-11049640D01*
X3421068Y-11049640D02*
X3440116Y-11059163D01*
X3440116Y-11059163D02*
X3449640Y-11078211D01*
X3449640Y-11078211D02*
X3449640Y-11182973D01*
X3449640Y-11078211D02*
X3459163Y-11059163D01*
X3459163Y-11059163D02*
X3478211Y-11049640D01*
X3478211Y-11049640D02*
X3506782Y-11049640D01*
X3506782Y-11049640D02*
X3525830Y-11059163D01*
X3525830Y-11059163D02*
X3535354Y-11078211D01*
X3535354Y-11078211D02*
X3535354Y-11182973D01*
X3893449Y-10973449D02*
X3722021Y-11230592D01*
X4118211Y-10982973D02*
X4137259Y-10982973D01*
X4137259Y-10982973D02*
X4156306Y-10992497D01*
X4156306Y-10992497D02*
X4165830Y-11002021D01*
X4165830Y-11002021D02*
X4175354Y-11021068D01*
X4175354Y-11021068D02*
X4184878Y-11059163D01*
X4184878Y-11059163D02*
X4184878Y-11106783D01*
X4184878Y-11106783D02*
X4175354Y-11144878D01*
X4175354Y-11144878D02*
X4165830Y-11163925D01*
X4165830Y-11163925D02*
X4156306Y-11173449D01*
X4156306Y-11173449D02*
X4137259Y-11182973D01*
X4137259Y-11182973D02*
X4118211Y-11182973D01*
X4118211Y-11182973D02*
X4099163Y-11173449D01*
X4099163Y-11173449D02*
X4089640Y-11163925D01*
X4089640Y-11163925D02*
X4080116Y-11144878D01*
X4080116Y-11144878D02*
X4070592Y-11106783D01*
X4070592Y-11106783D02*
X4070592Y-11059163D01*
X4070592Y-11059163D02*
X4080116Y-11021068D01*
X4080116Y-11021068D02*
X4089640Y-11002021D01*
X4089640Y-11002021D02*
X4099163Y-10992497D01*
X4099163Y-10992497D02*
X4118211Y-10982973D01*
X4270592Y-11163925D02*
X4280116Y-11173449D01*
X4280116Y-11173449D02*
X4270592Y-11182973D01*
X4270592Y-11182973D02*
X4261068Y-11173449D01*
X4261068Y-11173449D02*
X4270592Y-11163925D01*
X4270592Y-11163925D02*
X4270592Y-11182973D01*
X4403925Y-10982973D02*
X4422973Y-10982973D01*
X4422973Y-10982973D02*
X4442021Y-10992497D01*
X4442021Y-10992497D02*
X4451545Y-11002021D01*
X4451545Y-11002021D02*
X4461068Y-11021068D01*
X4461068Y-11021068D02*
X4470592Y-11059163D01*
X4470592Y-11059163D02*
X4470592Y-11106783D01*
X4470592Y-11106783D02*
X4461068Y-11144878D01*
X4461068Y-11144878D02*
X4451545Y-11163925D01*
X4451545Y-11163925D02*
X4442021Y-11173449D01*
X4442021Y-11173449D02*
X4422973Y-11182973D01*
X4422973Y-11182973D02*
X4403925Y-11182973D01*
X4403925Y-11182973D02*
X4384878Y-11173449D01*
X4384878Y-11173449D02*
X4375354Y-11163925D01*
X4375354Y-11163925D02*
X4365830Y-11144878D01*
X4365830Y-11144878D02*
X4356306Y-11106783D01*
X4356306Y-11106783D02*
X4356306Y-11059163D01*
X4356306Y-11059163D02*
X4365830Y-11021068D01*
X4365830Y-11021068D02*
X4375354Y-11002021D01*
X4375354Y-11002021D02*
X4384878Y-10992497D01*
X4384878Y-10992497D02*
X4403925Y-10982973D01*
X4537259Y-10982973D02*
X4661068Y-10982973D01*
X4661068Y-10982973D02*
X4594402Y-11059163D01*
X4594402Y-11059163D02*
X4622973Y-11059163D01*
X4622973Y-11059163D02*
X4642021Y-11068687D01*
X4642021Y-11068687D02*
X4651545Y-11078211D01*
X4651545Y-11078211D02*
X4661068Y-11097259D01*
X4661068Y-11097259D02*
X4661068Y-11144878D01*
X4661068Y-11144878D02*
X4651545Y-11163925D01*
X4651545Y-11163925D02*
X4642021Y-11173449D01*
X4642021Y-11173449D02*
X4622973Y-11182973D01*
X4622973Y-11182973D02*
X4565830Y-11182973D01*
X4565830Y-11182973D02*
X4546783Y-11173449D01*
X4546783Y-11173449D02*
X4537259Y-11163925D01*
X4851545Y-11182973D02*
X4737259Y-11182973D01*
X4794402Y-11182973D02*
X4794402Y-10982973D01*
X4794402Y-10982973D02*
X4775354Y-11011544D01*
X4775354Y-11011544D02*
X4756306Y-11030592D01*
X4756306Y-11030592D02*
X4737259Y-11040116D01*
X5032497Y-10982973D02*
X4937259Y-10982973D01*
X4937259Y-10982973D02*
X4927735Y-11078211D01*
X4927735Y-11078211D02*
X4937259Y-11068687D01*
X4937259Y-11068687D02*
X4956306Y-11059163D01*
X4956306Y-11059163D02*
X5003926Y-11059163D01*
X5003926Y-11059163D02*
X5022973Y-11068687D01*
X5022973Y-11068687D02*
X5032497Y-11078211D01*
X5032497Y-11078211D02*
X5042021Y-11097259D01*
X5042021Y-11097259D02*
X5042021Y-11144878D01*
X5042021Y-11144878D02*
X5032497Y-11163925D01*
X5032497Y-11163925D02*
X5022973Y-11173449D01*
X5022973Y-11173449D02*
X5003926Y-11182973D01*
X5003926Y-11182973D02*
X4956306Y-11182973D01*
X4956306Y-11182973D02*
X4937259Y-11173449D01*
X4937259Y-11173449D02*
X4927735Y-11163925D01*
X5118211Y-10982973D02*
X5118211Y-11021068D01*
X5194402Y-10982973D02*
X5194402Y-11021068D01*
X5457259Y-11259163D02*
X5447735Y-11249640D01*
X5447735Y-11249640D02*
X5428687Y-11221068D01*
X5428687Y-11221068D02*
X5419164Y-11202021D01*
X5419164Y-11202021D02*
X5409640Y-11173449D01*
X5409640Y-11173449D02*
X5400116Y-11125830D01*
X5400116Y-11125830D02*
X5400116Y-11087735D01*
X5400116Y-11087735D02*
X5409640Y-11040116D01*
X5409640Y-11040116D02*
X5419164Y-11011544D01*
X5419164Y-11011544D02*
X5428687Y-10992497D01*
X5428687Y-10992497D02*
X5447735Y-10963925D01*
X5447735Y-10963925D02*
X5457259Y-10954402D01*
X5619164Y-10982973D02*
X5581068Y-10982973D01*
X5581068Y-10982973D02*
X5562021Y-10992497D01*
X5562021Y-10992497D02*
X5552497Y-11002021D01*
X5552497Y-11002021D02*
X5533449Y-11030592D01*
X5533449Y-11030592D02*
X5523926Y-11068687D01*
X5523926Y-11068687D02*
X5523926Y-11144878D01*
X5523926Y-11144878D02*
X5533449Y-11163925D01*
X5533449Y-11163925D02*
X5542973Y-11173449D01*
X5542973Y-11173449D02*
X5562021Y-11182973D01*
X5562021Y-11182973D02*
X5600116Y-11182973D01*
X5600116Y-11182973D02*
X5619164Y-11173449D01*
X5619164Y-11173449D02*
X5628687Y-11163925D01*
X5628687Y-11163925D02*
X5638211Y-11144878D01*
X5638211Y-11144878D02*
X5638211Y-11097259D01*
X5638211Y-11097259D02*
X5628687Y-11078211D01*
X5628687Y-11078211D02*
X5619164Y-11068687D01*
X5619164Y-11068687D02*
X5600116Y-11059163D01*
X5600116Y-11059163D02*
X5562021Y-11059163D01*
X5562021Y-11059163D02*
X5542973Y-11068687D01*
X5542973Y-11068687D02*
X5533449Y-11078211D01*
X5533449Y-11078211D02*
X5523926Y-11097259D01*
X5843925Y-11182973D02*
X5843925Y-10982973D01*
X5929640Y-11182973D02*
X5929640Y-11078211D01*
X5929640Y-11078211D02*
X5920116Y-11059163D01*
X5920116Y-11059163D02*
X5901068Y-11049640D01*
X5901068Y-11049640D02*
X5872497Y-11049640D01*
X5872497Y-11049640D02*
X5853449Y-11059163D01*
X5853449Y-11059163D02*
X5843925Y-11068687D01*
X6053449Y-11182973D02*
X6034402Y-11173449D01*
X6034402Y-11173449D02*
X6024878Y-11163925D01*
X6024878Y-11163925D02*
X6015354Y-11144878D01*
X6015354Y-11144878D02*
X6015354Y-11087735D01*
X6015354Y-11087735D02*
X6024878Y-11068687D01*
X6024878Y-11068687D02*
X6034402Y-11059163D01*
X6034402Y-11059163D02*
X6053449Y-11049640D01*
X6053449Y-11049640D02*
X6082021Y-11049640D01*
X6082021Y-11049640D02*
X6101068Y-11059163D01*
X6101068Y-11059163D02*
X6110592Y-11068687D01*
X6110592Y-11068687D02*
X6120116Y-11087735D01*
X6120116Y-11087735D02*
X6120116Y-11144878D01*
X6120116Y-11144878D02*
X6110592Y-11163925D01*
X6110592Y-11163925D02*
X6101068Y-11173449D01*
X6101068Y-11173449D02*
X6082021Y-11182973D01*
X6082021Y-11182973D02*
X6053449Y-11182973D01*
X6234402Y-11182973D02*
X6215354Y-11173449D01*
X6215354Y-11173449D02*
X6205830Y-11154402D01*
X6205830Y-11154402D02*
X6205830Y-10982973D01*
X6386783Y-11173449D02*
X6367735Y-11182973D01*
X6367735Y-11182973D02*
X6329640Y-11182973D01*
X6329640Y-11182973D02*
X6310592Y-11173449D01*
X6310592Y-11173449D02*
X6301068Y-11154402D01*
X6301068Y-11154402D02*
X6301068Y-11078211D01*
X6301068Y-11078211D02*
X6310592Y-11059163D01*
X6310592Y-11059163D02*
X6329640Y-11049640D01*
X6329640Y-11049640D02*
X6367735Y-11049640D01*
X6367735Y-11049640D02*
X6386783Y-11059163D01*
X6386783Y-11059163D02*
X6396306Y-11078211D01*
X6396306Y-11078211D02*
X6396306Y-11097259D01*
X6396306Y-11097259D02*
X6301068Y-11116306D01*
X6472497Y-11173449D02*
X6491545Y-11182973D01*
X6491545Y-11182973D02*
X6529640Y-11182973D01*
X6529640Y-11182973D02*
X6548687Y-11173449D01*
X6548687Y-11173449D02*
X6558211Y-11154402D01*
X6558211Y-11154402D02*
X6558211Y-11144878D01*
X6558211Y-11144878D02*
X6548687Y-11125830D01*
X6548687Y-11125830D02*
X6529640Y-11116306D01*
X6529640Y-11116306D02*
X6501068Y-11116306D01*
X6501068Y-11116306D02*
X6482021Y-11106783D01*
X6482021Y-11106783D02*
X6472497Y-11087735D01*
X6472497Y-11087735D02*
X6472497Y-11078211D01*
X6472497Y-11078211D02*
X6482021Y-11059163D01*
X6482021Y-11059163D02*
X6501068Y-11049640D01*
X6501068Y-11049640D02*
X6529640Y-11049640D01*
X6529640Y-11049640D02*
X6548687Y-11059163D01*
X6624878Y-11259163D02*
X6634402Y-11249640D01*
X6634402Y-11249640D02*
X6653449Y-11221068D01*
X6653449Y-11221068D02*
X6662973Y-11202021D01*
X6662973Y-11202021D02*
X6672497Y-11173449D01*
X6672497Y-11173449D02*
X6682021Y-11125830D01*
X6682021Y-11125830D02*
X6682021Y-11087735D01*
X6682021Y-11087735D02*
X6672497Y-11040116D01*
X6672497Y-11040116D02*
X6662973Y-11011544D01*
X6662973Y-11011544D02*
X6653449Y-10992497D01*
X6653449Y-10992497D02*
X6634402Y-10963925D01*
X6634402Y-10963925D02*
X6624878Y-10954402D01*
D10*
X1892497Y-11323497D02*
X1992497Y-11423497D01*
X1992497Y-11323497D02*
X1892497Y-11423497D01*
X1977852Y-11408852D02*
X1977852Y-11338141D01*
X1907141Y-11338141D01*
X1907141Y-11408852D01*
X1977852Y-11408852D01*
D11*
X2344878Y-11446973D02*
X2230592Y-11446973D01*
X2287735Y-11446973D02*
X2287735Y-11246973D01*
X2287735Y-11246973D02*
X2268687Y-11275544D01*
X2268687Y-11275544D02*
X2249640Y-11294592D01*
X2249640Y-11294592D02*
X2230592Y-11304116D01*
X2430592Y-11427925D02*
X2440116Y-11437449D01*
X2440116Y-11437449D02*
X2430592Y-11446973D01*
X2430592Y-11446973D02*
X2421068Y-11437449D01*
X2421068Y-11437449D02*
X2430592Y-11427925D01*
X2430592Y-11427925D02*
X2430592Y-11446973D01*
X2563925Y-11246973D02*
X2582973Y-11246973D01*
X2582973Y-11246973D02*
X2602021Y-11256497D01*
X2602021Y-11256497D02*
X2611544Y-11266021D01*
X2611544Y-11266021D02*
X2621068Y-11285068D01*
X2621068Y-11285068D02*
X2630592Y-11323163D01*
X2630592Y-11323163D02*
X2630592Y-11370782D01*
X2630592Y-11370782D02*
X2621068Y-11408878D01*
X2621068Y-11408878D02*
X2611544Y-11427925D01*
X2611544Y-11427925D02*
X2602021Y-11437449D01*
X2602021Y-11437449D02*
X2582973Y-11446973D01*
X2582973Y-11446973D02*
X2563925Y-11446973D01*
X2563925Y-11446973D02*
X2544878Y-11437449D01*
X2544878Y-11437449D02*
X2535354Y-11427925D01*
X2535354Y-11427925D02*
X2525830Y-11408878D01*
X2525830Y-11408878D02*
X2516306Y-11370782D01*
X2516306Y-11370782D02*
X2516306Y-11323163D01*
X2516306Y-11323163D02*
X2525830Y-11285068D01*
X2525830Y-11285068D02*
X2535354Y-11266021D01*
X2535354Y-11266021D02*
X2544878Y-11256497D01*
X2544878Y-11256497D02*
X2563925Y-11246973D01*
X2754402Y-11246973D02*
X2773449Y-11246973D01*
X2773449Y-11246973D02*
X2792497Y-11256497D01*
X2792497Y-11256497D02*
X2802021Y-11266021D01*
X2802021Y-11266021D02*
X2811544Y-11285068D01*
X2811544Y-11285068D02*
X2821068Y-11323163D01*
X2821068Y-11323163D02*
X2821068Y-11370782D01*
X2821068Y-11370782D02*
X2811544Y-11408878D01*
X2811544Y-11408878D02*
X2802021Y-11427925D01*
X2802021Y-11427925D02*
X2792497Y-11437449D01*
X2792497Y-11437449D02*
X2773449Y-11446973D01*
X2773449Y-11446973D02*
X2754402Y-11446973D01*
X2754402Y-11446973D02*
X2735354Y-11437449D01*
X2735354Y-11437449D02*
X2725830Y-11427925D01*
X2725830Y-11427925D02*
X2716306Y-11408878D01*
X2716306Y-11408878D02*
X2706783Y-11370782D01*
X2706783Y-11370782D02*
X2706783Y-11323163D01*
X2706783Y-11323163D02*
X2716306Y-11285068D01*
X2716306Y-11285068D02*
X2725830Y-11266021D01*
X2725830Y-11266021D02*
X2735354Y-11256497D01*
X2735354Y-11256497D02*
X2754402Y-11246973D01*
X2944878Y-11246973D02*
X2963925Y-11246973D01*
X2963925Y-11246973D02*
X2982973Y-11256497D01*
X2982973Y-11256497D02*
X2992497Y-11266021D01*
X2992497Y-11266021D02*
X3002021Y-11285068D01*
X3002021Y-11285068D02*
X3011544Y-11323163D01*
X3011544Y-11323163D02*
X3011544Y-11370782D01*
X3011544Y-11370782D02*
X3002021Y-11408878D01*
X3002021Y-11408878D02*
X2992497Y-11427925D01*
X2992497Y-11427925D02*
X2982973Y-11437449D01*
X2982973Y-11437449D02*
X2963925Y-11446973D01*
X2963925Y-11446973D02*
X2944878Y-11446973D01*
X2944878Y-11446973D02*
X2925830Y-11437449D01*
X2925830Y-11437449D02*
X2916306Y-11427925D01*
X2916306Y-11427925D02*
X2906782Y-11408878D01*
X2906782Y-11408878D02*
X2897259Y-11370782D01*
X2897259Y-11370782D02*
X2897259Y-11323163D01*
X2897259Y-11323163D02*
X2906782Y-11285068D01*
X2906782Y-11285068D02*
X2916306Y-11266021D01*
X2916306Y-11266021D02*
X2925830Y-11256497D01*
X2925830Y-11256497D02*
X2944878Y-11246973D01*
X3097259Y-11446973D02*
X3097259Y-11313640D01*
X3097259Y-11332687D02*
X3106782Y-11323163D01*
X3106782Y-11323163D02*
X3125830Y-11313640D01*
X3125830Y-11313640D02*
X3154402Y-11313640D01*
X3154402Y-11313640D02*
X3173449Y-11323163D01*
X3173449Y-11323163D02*
X3182973Y-11342211D01*
X3182973Y-11342211D02*
X3182973Y-11446973D01*
X3182973Y-11342211D02*
X3192497Y-11323163D01*
X3192497Y-11323163D02*
X3211544Y-11313640D01*
X3211544Y-11313640D02*
X3240116Y-11313640D01*
X3240116Y-11313640D02*
X3259163Y-11323163D01*
X3259163Y-11323163D02*
X3268687Y-11342211D01*
X3268687Y-11342211D02*
X3268687Y-11446973D01*
X3363925Y-11446973D02*
X3363925Y-11313640D01*
X3363925Y-11332687D02*
X3373449Y-11323163D01*
X3373449Y-11323163D02*
X3392497Y-11313640D01*
X3392497Y-11313640D02*
X3421068Y-11313640D01*
X3421068Y-11313640D02*
X3440116Y-11323163D01*
X3440116Y-11323163D02*
X3449640Y-11342211D01*
X3449640Y-11342211D02*
X3449640Y-11446973D01*
X3449640Y-11342211D02*
X3459163Y-11323163D01*
X3459163Y-11323163D02*
X3478211Y-11313640D01*
X3478211Y-11313640D02*
X3506782Y-11313640D01*
X3506782Y-11313640D02*
X3525830Y-11323163D01*
X3525830Y-11323163D02*
X3535354Y-11342211D01*
X3535354Y-11342211D02*
X3535354Y-11446973D01*
X3893449Y-11237449D02*
X3722021Y-11494592D01*
X4118211Y-11246973D02*
X4137259Y-11246973D01*
X4137259Y-11246973D02*
X4156306Y-11256497D01*
X4156306Y-11256497D02*
X4165830Y-11266021D01*
X4165830Y-11266021D02*
X4175354Y-11285068D01*
X4175354Y-11285068D02*
X4184878Y-11323163D01*
X4184878Y-11323163D02*
X4184878Y-11370782D01*
X4184878Y-11370782D02*
X4175354Y-11408878D01*
X4175354Y-11408878D02*
X4165830Y-11427925D01*
X4165830Y-11427925D02*
X4156306Y-11437449D01*
X4156306Y-11437449D02*
X4137259Y-11446973D01*
X4137259Y-11446973D02*
X4118211Y-11446973D01*
X4118211Y-11446973D02*
X4099163Y-11437449D01*
X4099163Y-11437449D02*
X4089640Y-11427925D01*
X4089640Y-11427925D02*
X4080116Y-11408878D01*
X4080116Y-11408878D02*
X4070592Y-11370782D01*
X4070592Y-11370782D02*
X4070592Y-11323163D01*
X4070592Y-11323163D02*
X4080116Y-11285068D01*
X4080116Y-11285068D02*
X4089640Y-11266021D01*
X4089640Y-11266021D02*
X4099163Y-11256497D01*
X4099163Y-11256497D02*
X4118211Y-11246973D01*
X4270592Y-11427925D02*
X4280116Y-11437449D01*
X4280116Y-11437449D02*
X4270592Y-11446973D01*
X4270592Y-11446973D02*
X4261068Y-11437449D01*
X4261068Y-11437449D02*
X4270592Y-11427925D01*
X4270592Y-11427925D02*
X4270592Y-11446973D01*
X4403925Y-11246973D02*
X4422973Y-11246973D01*
X4422973Y-11246973D02*
X4442021Y-11256497D01*
X4442021Y-11256497D02*
X4451545Y-11266021D01*
X4451545Y-11266021D02*
X4461068Y-11285068D01*
X4461068Y-11285068D02*
X4470592Y-11323163D01*
X4470592Y-11323163D02*
X4470592Y-11370782D01*
X4470592Y-11370782D02*
X4461068Y-11408878D01*
X4461068Y-11408878D02*
X4451545Y-11427925D01*
X4451545Y-11427925D02*
X4442021Y-11437449D01*
X4442021Y-11437449D02*
X4422973Y-11446973D01*
X4422973Y-11446973D02*
X4403925Y-11446973D01*
X4403925Y-11446973D02*
X4384878Y-11437449D01*
X4384878Y-11437449D02*
X4375354Y-11427925D01*
X4375354Y-11427925D02*
X4365830Y-11408878D01*
X4365830Y-11408878D02*
X4356306Y-11370782D01*
X4356306Y-11370782D02*
X4356306Y-11323163D01*
X4356306Y-11323163D02*
X4365830Y-11285068D01*
X4365830Y-11285068D02*
X4375354Y-11266021D01*
X4375354Y-11266021D02*
X4384878Y-11256497D01*
X4384878Y-11256497D02*
X4403925Y-11246973D01*
X4537259Y-11246973D02*
X4661068Y-11246973D01*
X4661068Y-11246973D02*
X4594402Y-11323163D01*
X4594402Y-11323163D02*
X4622973Y-11323163D01*
X4622973Y-11323163D02*
X4642021Y-11332687D01*
X4642021Y-11332687D02*
X4651545Y-11342211D01*
X4651545Y-11342211D02*
X4661068Y-11361259D01*
X4661068Y-11361259D02*
X4661068Y-11408878D01*
X4661068Y-11408878D02*
X4651545Y-11427925D01*
X4651545Y-11427925D02*
X4642021Y-11437449D01*
X4642021Y-11437449D02*
X4622973Y-11446973D01*
X4622973Y-11446973D02*
X4565830Y-11446973D01*
X4565830Y-11446973D02*
X4546783Y-11437449D01*
X4546783Y-11437449D02*
X4537259Y-11427925D01*
X4756306Y-11446973D02*
X4794402Y-11446973D01*
X4794402Y-11446973D02*
X4813449Y-11437449D01*
X4813449Y-11437449D02*
X4822973Y-11427925D01*
X4822973Y-11427925D02*
X4842021Y-11399354D01*
X4842021Y-11399354D02*
X4851545Y-11361259D01*
X4851545Y-11361259D02*
X4851545Y-11285068D01*
X4851545Y-11285068D02*
X4842021Y-11266021D01*
X4842021Y-11266021D02*
X4832497Y-11256497D01*
X4832497Y-11256497D02*
X4813449Y-11246973D01*
X4813449Y-11246973D02*
X4775354Y-11246973D01*
X4775354Y-11246973D02*
X4756306Y-11256497D01*
X4756306Y-11256497D02*
X4746783Y-11266021D01*
X4746783Y-11266021D02*
X4737259Y-11285068D01*
X4737259Y-11285068D02*
X4737259Y-11332687D01*
X4737259Y-11332687D02*
X4746783Y-11351735D01*
X4746783Y-11351735D02*
X4756306Y-11361259D01*
X4756306Y-11361259D02*
X4775354Y-11370782D01*
X4775354Y-11370782D02*
X4813449Y-11370782D01*
X4813449Y-11370782D02*
X4832497Y-11361259D01*
X4832497Y-11361259D02*
X4842021Y-11351735D01*
X4842021Y-11351735D02*
X4851545Y-11332687D01*
X5022973Y-11313640D02*
X5022973Y-11446973D01*
X4975354Y-11237449D02*
X4927735Y-11380306D01*
X4927735Y-11380306D02*
X5051545Y-11380306D01*
X5118211Y-11246973D02*
X5118211Y-11285068D01*
X5194402Y-11246973D02*
X5194402Y-11285068D01*
X5457259Y-11523163D02*
X5447735Y-11513640D01*
X5447735Y-11513640D02*
X5428687Y-11485068D01*
X5428687Y-11485068D02*
X5419164Y-11466021D01*
X5419164Y-11466021D02*
X5409640Y-11437449D01*
X5409640Y-11437449D02*
X5400116Y-11389830D01*
X5400116Y-11389830D02*
X5400116Y-11351735D01*
X5400116Y-11351735D02*
X5409640Y-11304116D01*
X5409640Y-11304116D02*
X5419164Y-11275544D01*
X5419164Y-11275544D02*
X5428687Y-11256497D01*
X5428687Y-11256497D02*
X5447735Y-11227925D01*
X5447735Y-11227925D02*
X5457259Y-11218401D01*
X5514402Y-11246973D02*
X5638211Y-11246973D01*
X5638211Y-11246973D02*
X5571545Y-11323163D01*
X5571545Y-11323163D02*
X5600116Y-11323163D01*
X5600116Y-11323163D02*
X5619164Y-11332687D01*
X5619164Y-11332687D02*
X5628687Y-11342211D01*
X5628687Y-11342211D02*
X5638211Y-11361259D01*
X5638211Y-11361259D02*
X5638211Y-11408878D01*
X5638211Y-11408878D02*
X5628687Y-11427925D01*
X5628687Y-11427925D02*
X5619164Y-11437449D01*
X5619164Y-11437449D02*
X5600116Y-11446973D01*
X5600116Y-11446973D02*
X5542973Y-11446973D01*
X5542973Y-11446973D02*
X5523926Y-11437449D01*
X5523926Y-11437449D02*
X5514402Y-11427925D01*
X5819164Y-11246973D02*
X5723925Y-11246973D01*
X5723925Y-11246973D02*
X5714402Y-11342211D01*
X5714402Y-11342211D02*
X5723925Y-11332687D01*
X5723925Y-11332687D02*
X5742973Y-11323163D01*
X5742973Y-11323163D02*
X5790592Y-11323163D01*
X5790592Y-11323163D02*
X5809640Y-11332687D01*
X5809640Y-11332687D02*
X5819164Y-11342211D01*
X5819164Y-11342211D02*
X5828687Y-11361259D01*
X5828687Y-11361259D02*
X5828687Y-11408878D01*
X5828687Y-11408878D02*
X5819164Y-11427925D01*
X5819164Y-11427925D02*
X5809640Y-11437449D01*
X5809640Y-11437449D02*
X5790592Y-11446973D01*
X5790592Y-11446973D02*
X5742973Y-11446973D01*
X5742973Y-11446973D02*
X5723925Y-11437449D01*
X5723925Y-11437449D02*
X5714402Y-11427925D01*
X6034402Y-11446973D02*
X6034402Y-11246973D01*
X6120116Y-11446973D02*
X6120116Y-11342211D01*
X6120116Y-11342211D02*
X6110592Y-11323163D01*
X6110592Y-11323163D02*
X6091545Y-11313640D01*
X6091545Y-11313640D02*
X6062973Y-11313640D01*
X6062973Y-11313640D02*
X6043925Y-11323163D01*
X6043925Y-11323163D02*
X6034402Y-11332687D01*
X6243925Y-11446973D02*
X6224878Y-11437449D01*
X6224878Y-11437449D02*
X6215354Y-11427925D01*
X6215354Y-11427925D02*
X6205830Y-11408878D01*
X6205830Y-11408878D02*
X6205830Y-11351735D01*
X6205830Y-11351735D02*
X6215354Y-11332687D01*
X6215354Y-11332687D02*
X6224878Y-11323163D01*
X6224878Y-11323163D02*
X6243925Y-11313640D01*
X6243925Y-11313640D02*
X6272497Y-11313640D01*
X6272497Y-11313640D02*
X6291545Y-11323163D01*
X6291545Y-11323163D02*
X6301068Y-11332687D01*
X6301068Y-11332687D02*
X6310592Y-11351735D01*
X6310592Y-11351735D02*
X6310592Y-11408878D01*
X6310592Y-11408878D02*
X6301068Y-11427925D01*
X6301068Y-11427925D02*
X6291545Y-11437449D01*
X6291545Y-11437449D02*
X6272497Y-11446973D01*
X6272497Y-11446973D02*
X6243925Y-11446973D01*
X6424878Y-11446973D02*
X6405830Y-11437449D01*
X6405830Y-11437449D02*
X6396306Y-11418401D01*
X6396306Y-11418401D02*
X6396306Y-11246973D01*
X6577259Y-11437449D02*
X6558211Y-11446973D01*
X6558211Y-11446973D02*
X6520116Y-11446973D01*
X6520116Y-11446973D02*
X6501068Y-11437449D01*
X6501068Y-11437449D02*
X6491545Y-11418401D01*
X6491545Y-11418401D02*
X6491545Y-11342211D01*
X6491545Y-11342211D02*
X6501068Y-11323163D01*
X6501068Y-11323163D02*
X6520116Y-11313640D01*
X6520116Y-11313640D02*
X6558211Y-11313640D01*
X6558211Y-11313640D02*
X6577259Y-11323163D01*
X6577259Y-11323163D02*
X6586783Y-11342211D01*
X6586783Y-11342211D02*
X6586783Y-11361259D01*
X6586783Y-11361259D02*
X6491545Y-11380306D01*
X6662973Y-11437449D02*
X6682021Y-11446973D01*
X6682021Y-11446973D02*
X6720116Y-11446973D01*
X6720116Y-11446973D02*
X6739164Y-11437449D01*
X6739164Y-11437449D02*
X6748687Y-11418401D01*
X6748687Y-11418401D02*
X6748687Y-11408878D01*
X6748687Y-11408878D02*
X6739164Y-11389830D01*
X6739164Y-11389830D02*
X6720116Y-11380306D01*
X6720116Y-11380306D02*
X6691545Y-11380306D01*
X6691545Y-11380306D02*
X6672497Y-11370782D01*
X6672497Y-11370782D02*
X6662973Y-11351735D01*
X6662973Y-11351735D02*
X6662973Y-11342211D01*
X6662973Y-11342211D02*
X6672497Y-11323163D01*
X6672497Y-11323163D02*
X6691545Y-11313640D01*
X6691545Y-11313640D02*
X6720116Y-11313640D01*
X6720116Y-11313640D02*
X6739164Y-11323163D01*
X6815354Y-11523163D02*
X6824878Y-11513640D01*
X6824878Y-11513640D02*
X6843926Y-11485068D01*
X6843926Y-11485068D02*
X6853449Y-11466021D01*
X6853449Y-11466021D02*
X6862973Y-11437449D01*
X6862973Y-11437449D02*
X6872497Y-11389830D01*
X6872497Y-11389830D02*
X6872497Y-11351735D01*
X6872497Y-11351735D02*
X6862973Y-11304116D01*
X6862973Y-11304116D02*
X6853449Y-11275544D01*
X6853449Y-11275544D02*
X6843926Y-11256497D01*
X6843926Y-11256497D02*
X6824878Y-11227925D01*
X6824878Y-11227925D02*
X6815354Y-11218401D01*
X1792497Y-11537497D02*
X1992497Y-11737497D01*
X1992497Y-11537497D02*
X1792497Y-11737497D01*
X1892497Y-11737497D02*
X1992497Y-11637497D01*
X1892497Y-11537497D01*
X1792497Y-11637497D01*
X1892497Y-11737497D01*
X2230592Y-11530021D02*
X2240116Y-11520497D01*
X2240116Y-11520497D02*
X2259163Y-11510973D01*
X2259163Y-11510973D02*
X2306783Y-11510973D01*
X2306783Y-11510973D02*
X2325830Y-11520497D01*
X2325830Y-11520497D02*
X2335354Y-11530021D01*
X2335354Y-11530021D02*
X2344878Y-11549068D01*
X2344878Y-11549068D02*
X2344878Y-11568116D01*
X2344878Y-11568116D02*
X2335354Y-11596687D01*
X2335354Y-11596687D02*
X2221068Y-11710973D01*
X2221068Y-11710973D02*
X2344878Y-11710973D01*
X2430592Y-11691925D02*
X2440116Y-11701449D01*
X2440116Y-11701449D02*
X2430592Y-11710973D01*
X2430592Y-11710973D02*
X2421068Y-11701449D01*
X2421068Y-11701449D02*
X2430592Y-11691925D01*
X2430592Y-11691925D02*
X2430592Y-11710973D01*
X2516306Y-11530021D02*
X2525830Y-11520497D01*
X2525830Y-11520497D02*
X2544878Y-11510973D01*
X2544878Y-11510973D02*
X2592497Y-11510973D01*
X2592497Y-11510973D02*
X2611544Y-11520497D01*
X2611544Y-11520497D02*
X2621068Y-11530021D01*
X2621068Y-11530021D02*
X2630592Y-11549068D01*
X2630592Y-11549068D02*
X2630592Y-11568116D01*
X2630592Y-11568116D02*
X2621068Y-11596687D01*
X2621068Y-11596687D02*
X2506783Y-11710973D01*
X2506783Y-11710973D02*
X2630592Y-11710973D01*
X2754402Y-11510973D02*
X2773449Y-11510973D01*
X2773449Y-11510973D02*
X2792497Y-11520497D01*
X2792497Y-11520497D02*
X2802021Y-11530021D01*
X2802021Y-11530021D02*
X2811544Y-11549068D01*
X2811544Y-11549068D02*
X2821068Y-11587163D01*
X2821068Y-11587163D02*
X2821068Y-11634782D01*
X2821068Y-11634782D02*
X2811544Y-11672878D01*
X2811544Y-11672878D02*
X2802021Y-11691925D01*
X2802021Y-11691925D02*
X2792497Y-11701449D01*
X2792497Y-11701449D02*
X2773449Y-11710973D01*
X2773449Y-11710973D02*
X2754402Y-11710973D01*
X2754402Y-11710973D02*
X2735354Y-11701449D01*
X2735354Y-11701449D02*
X2725830Y-11691925D01*
X2725830Y-11691925D02*
X2716306Y-11672878D01*
X2716306Y-11672878D02*
X2706783Y-11634782D01*
X2706783Y-11634782D02*
X2706783Y-11587163D01*
X2706783Y-11587163D02*
X2716306Y-11549068D01*
X2716306Y-11549068D02*
X2725830Y-11530021D01*
X2725830Y-11530021D02*
X2735354Y-11520497D01*
X2735354Y-11520497D02*
X2754402Y-11510973D01*
X2944878Y-11510973D02*
X2963925Y-11510973D01*
X2963925Y-11510973D02*
X2982973Y-11520497D01*
X2982973Y-11520497D02*
X2992497Y-11530021D01*
X2992497Y-11530021D02*
X3002021Y-11549068D01*
X3002021Y-11549068D02*
X3011544Y-11587163D01*
X3011544Y-11587163D02*
X3011544Y-11634782D01*
X3011544Y-11634782D02*
X3002021Y-11672878D01*
X3002021Y-11672878D02*
X2992497Y-11691925D01*
X2992497Y-11691925D02*
X2982973Y-11701449D01*
X2982973Y-11701449D02*
X2963925Y-11710973D01*
X2963925Y-11710973D02*
X2944878Y-11710973D01*
X2944878Y-11710973D02*
X2925830Y-11701449D01*
X2925830Y-11701449D02*
X2916306Y-11691925D01*
X2916306Y-11691925D02*
X2906782Y-11672878D01*
X2906782Y-11672878D02*
X2897259Y-11634782D01*
X2897259Y-11634782D02*
X2897259Y-11587163D01*
X2897259Y-11587163D02*
X2906782Y-11549068D01*
X2906782Y-11549068D02*
X2916306Y-11530021D01*
X2916306Y-11530021D02*
X2925830Y-11520497D01*
X2925830Y-11520497D02*
X2944878Y-11510973D01*
X3097259Y-11710973D02*
X3097259Y-11577640D01*
X3097259Y-11596687D02*
X3106782Y-11587163D01*
X3106782Y-11587163D02*
X3125830Y-11577640D01*
X3125830Y-11577640D02*
X3154402Y-11577640D01*
X3154402Y-11577640D02*
X3173449Y-11587163D01*
X3173449Y-11587163D02*
X3182973Y-11606211D01*
X3182973Y-11606211D02*
X3182973Y-11710973D01*
X3182973Y-11606211D02*
X3192497Y-11587163D01*
X3192497Y-11587163D02*
X3211544Y-11577640D01*
X3211544Y-11577640D02*
X3240116Y-11577640D01*
X3240116Y-11577640D02*
X3259163Y-11587163D01*
X3259163Y-11587163D02*
X3268687Y-11606211D01*
X3268687Y-11606211D02*
X3268687Y-11710973D01*
X3363925Y-11710973D02*
X3363925Y-11577640D01*
X3363925Y-11596687D02*
X3373449Y-11587163D01*
X3373449Y-11587163D02*
X3392497Y-11577640D01*
X3392497Y-11577640D02*
X3421068Y-11577640D01*
X3421068Y-11577640D02*
X3440116Y-11587163D01*
X3440116Y-11587163D02*
X3449640Y-11606211D01*
X3449640Y-11606211D02*
X3449640Y-11710973D01*
X3449640Y-11606211D02*
X3459163Y-11587163D01*
X3459163Y-11587163D02*
X3478211Y-11577640D01*
X3478211Y-11577640D02*
X3506782Y-11577640D01*
X3506782Y-11577640D02*
X3525830Y-11587163D01*
X3525830Y-11587163D02*
X3535354Y-11606211D01*
X3535354Y-11606211D02*
X3535354Y-11710973D01*
X3893449Y-11501449D02*
X3722021Y-11758592D01*
X4118211Y-11510973D02*
X4137259Y-11510973D01*
X4137259Y-11510973D02*
X4156306Y-11520497D01*
X4156306Y-11520497D02*
X4165830Y-11530021D01*
X4165830Y-11530021D02*
X4175354Y-11549068D01*
X4175354Y-11549068D02*
X4184878Y-11587163D01*
X4184878Y-11587163D02*
X4184878Y-11634782D01*
X4184878Y-11634782D02*
X4175354Y-11672878D01*
X4175354Y-11672878D02*
X4165830Y-11691925D01*
X4165830Y-11691925D02*
X4156306Y-11701449D01*
X4156306Y-11701449D02*
X4137259Y-11710973D01*
X4137259Y-11710973D02*
X4118211Y-11710973D01*
X4118211Y-11710973D02*
X4099163Y-11701449D01*
X4099163Y-11701449D02*
X4089640Y-11691925D01*
X4089640Y-11691925D02*
X4080116Y-11672878D01*
X4080116Y-11672878D02*
X4070592Y-11634782D01*
X4070592Y-11634782D02*
X4070592Y-11587163D01*
X4070592Y-11587163D02*
X4080116Y-11549068D01*
X4080116Y-11549068D02*
X4089640Y-11530021D01*
X4089640Y-11530021D02*
X4099163Y-11520497D01*
X4099163Y-11520497D02*
X4118211Y-11510973D01*
X4270592Y-11691925D02*
X4280116Y-11701449D01*
X4280116Y-11701449D02*
X4270592Y-11710973D01*
X4270592Y-11710973D02*
X4261068Y-11701449D01*
X4261068Y-11701449D02*
X4270592Y-11691925D01*
X4270592Y-11691925D02*
X4270592Y-11710973D01*
X4403925Y-11510973D02*
X4422973Y-11510973D01*
X4422973Y-11510973D02*
X4442021Y-11520497D01*
X4442021Y-11520497D02*
X4451545Y-11530021D01*
X4451545Y-11530021D02*
X4461068Y-11549068D01*
X4461068Y-11549068D02*
X4470592Y-11587163D01*
X4470592Y-11587163D02*
X4470592Y-11634782D01*
X4470592Y-11634782D02*
X4461068Y-11672878D01*
X4461068Y-11672878D02*
X4451545Y-11691925D01*
X4451545Y-11691925D02*
X4442021Y-11701449D01*
X4442021Y-11701449D02*
X4422973Y-11710973D01*
X4422973Y-11710973D02*
X4403925Y-11710973D01*
X4403925Y-11710973D02*
X4384878Y-11701449D01*
X4384878Y-11701449D02*
X4375354Y-11691925D01*
X4375354Y-11691925D02*
X4365830Y-11672878D01*
X4365830Y-11672878D02*
X4356306Y-11634782D01*
X4356306Y-11634782D02*
X4356306Y-11587163D01*
X4356306Y-11587163D02*
X4365830Y-11549068D01*
X4365830Y-11549068D02*
X4375354Y-11530021D01*
X4375354Y-11530021D02*
X4384878Y-11520497D01*
X4384878Y-11520497D02*
X4403925Y-11510973D01*
X4584878Y-11596687D02*
X4565830Y-11587163D01*
X4565830Y-11587163D02*
X4556306Y-11577640D01*
X4556306Y-11577640D02*
X4546783Y-11558592D01*
X4546783Y-11558592D02*
X4546783Y-11549068D01*
X4546783Y-11549068D02*
X4556306Y-11530021D01*
X4556306Y-11530021D02*
X4565830Y-11520497D01*
X4565830Y-11520497D02*
X4584878Y-11510973D01*
X4584878Y-11510973D02*
X4622973Y-11510973D01*
X4622973Y-11510973D02*
X4642021Y-11520497D01*
X4642021Y-11520497D02*
X4651545Y-11530021D01*
X4651545Y-11530021D02*
X4661068Y-11549068D01*
X4661068Y-11549068D02*
X4661068Y-11558592D01*
X4661068Y-11558592D02*
X4651545Y-11577640D01*
X4651545Y-11577640D02*
X4642021Y-11587163D01*
X4642021Y-11587163D02*
X4622973Y-11596687D01*
X4622973Y-11596687D02*
X4584878Y-11596687D01*
X4584878Y-11596687D02*
X4565830Y-11606211D01*
X4565830Y-11606211D02*
X4556306Y-11615735D01*
X4556306Y-11615735D02*
X4546783Y-11634782D01*
X4546783Y-11634782D02*
X4546783Y-11672878D01*
X4546783Y-11672878D02*
X4556306Y-11691925D01*
X4556306Y-11691925D02*
X4565830Y-11701449D01*
X4565830Y-11701449D02*
X4584878Y-11710973D01*
X4584878Y-11710973D02*
X4622973Y-11710973D01*
X4622973Y-11710973D02*
X4642021Y-11701449D01*
X4642021Y-11701449D02*
X4651545Y-11691925D01*
X4651545Y-11691925D02*
X4661068Y-11672878D01*
X4661068Y-11672878D02*
X4661068Y-11634782D01*
X4661068Y-11634782D02*
X4651545Y-11615735D01*
X4651545Y-11615735D02*
X4642021Y-11606211D01*
X4642021Y-11606211D02*
X4622973Y-11596687D01*
X4832497Y-11510973D02*
X4794402Y-11510973D01*
X4794402Y-11510973D02*
X4775354Y-11520497D01*
X4775354Y-11520497D02*
X4765830Y-11530021D01*
X4765830Y-11530021D02*
X4746783Y-11558592D01*
X4746783Y-11558592D02*
X4737259Y-11596687D01*
X4737259Y-11596687D02*
X4737259Y-11672878D01*
X4737259Y-11672878D02*
X4746783Y-11691925D01*
X4746783Y-11691925D02*
X4756306Y-11701449D01*
X4756306Y-11701449D02*
X4775354Y-11710973D01*
X4775354Y-11710973D02*
X4813449Y-11710973D01*
X4813449Y-11710973D02*
X4832497Y-11701449D01*
X4832497Y-11701449D02*
X4842021Y-11691925D01*
X4842021Y-11691925D02*
X4851545Y-11672878D01*
X4851545Y-11672878D02*
X4851545Y-11625259D01*
X4851545Y-11625259D02*
X4842021Y-11606211D01*
X4842021Y-11606211D02*
X4832497Y-11596687D01*
X4832497Y-11596687D02*
X4813449Y-11587163D01*
X4813449Y-11587163D02*
X4775354Y-11587163D01*
X4775354Y-11587163D02*
X4756306Y-11596687D01*
X4756306Y-11596687D02*
X4746783Y-11606211D01*
X4746783Y-11606211D02*
X4737259Y-11625259D01*
X5022973Y-11510973D02*
X4984878Y-11510973D01*
X4984878Y-11510973D02*
X4965830Y-11520497D01*
X4965830Y-11520497D02*
X4956306Y-11530021D01*
X4956306Y-11530021D02*
X4937259Y-11558592D01*
X4937259Y-11558592D02*
X4927735Y-11596687D01*
X4927735Y-11596687D02*
X4927735Y-11672878D01*
X4927735Y-11672878D02*
X4937259Y-11691925D01*
X4937259Y-11691925D02*
X4946783Y-11701449D01*
X4946783Y-11701449D02*
X4965830Y-11710973D01*
X4965830Y-11710973D02*
X5003926Y-11710973D01*
X5003926Y-11710973D02*
X5022973Y-11701449D01*
X5022973Y-11701449D02*
X5032497Y-11691925D01*
X5032497Y-11691925D02*
X5042021Y-11672878D01*
X5042021Y-11672878D02*
X5042021Y-11625259D01*
X5042021Y-11625259D02*
X5032497Y-11606211D01*
X5032497Y-11606211D02*
X5022973Y-11596687D01*
X5022973Y-11596687D02*
X5003926Y-11587163D01*
X5003926Y-11587163D02*
X4965830Y-11587163D01*
X4965830Y-11587163D02*
X4946783Y-11596687D01*
X4946783Y-11596687D02*
X4937259Y-11606211D01*
X4937259Y-11606211D02*
X4927735Y-11625259D01*
X5118211Y-11510973D02*
X5118211Y-11549068D01*
X5194402Y-11510973D02*
X5194402Y-11549068D01*
X5457259Y-11787163D02*
X5447735Y-11777640D01*
X5447735Y-11777640D02*
X5428687Y-11749068D01*
X5428687Y-11749068D02*
X5419164Y-11730021D01*
X5419164Y-11730021D02*
X5409640Y-11701449D01*
X5409640Y-11701449D02*
X5400116Y-11653830D01*
X5400116Y-11653830D02*
X5400116Y-11615735D01*
X5400116Y-11615735D02*
X5409640Y-11568116D01*
X5409640Y-11568116D02*
X5419164Y-11539544D01*
X5419164Y-11539544D02*
X5428687Y-11520497D01*
X5428687Y-11520497D02*
X5447735Y-11491925D01*
X5447735Y-11491925D02*
X5457259Y-11482401D01*
X5638211Y-11710973D02*
X5523926Y-11710973D01*
X5581068Y-11710973D02*
X5581068Y-11510973D01*
X5581068Y-11510973D02*
X5562021Y-11539544D01*
X5562021Y-11539544D02*
X5542973Y-11558592D01*
X5542973Y-11558592D02*
X5523926Y-11568116D01*
X5843925Y-11710973D02*
X5843925Y-11510973D01*
X5929640Y-11710973D02*
X5929640Y-11606211D01*
X5929640Y-11606211D02*
X5920116Y-11587163D01*
X5920116Y-11587163D02*
X5901068Y-11577640D01*
X5901068Y-11577640D02*
X5872497Y-11577640D01*
X5872497Y-11577640D02*
X5853449Y-11587163D01*
X5853449Y-11587163D02*
X5843925Y-11596687D01*
X6053449Y-11710973D02*
X6034402Y-11701449D01*
X6034402Y-11701449D02*
X6024878Y-11691925D01*
X6024878Y-11691925D02*
X6015354Y-11672878D01*
X6015354Y-11672878D02*
X6015354Y-11615735D01*
X6015354Y-11615735D02*
X6024878Y-11596687D01*
X6024878Y-11596687D02*
X6034402Y-11587163D01*
X6034402Y-11587163D02*
X6053449Y-11577640D01*
X6053449Y-11577640D02*
X6082021Y-11577640D01*
X6082021Y-11577640D02*
X6101068Y-11587163D01*
X6101068Y-11587163D02*
X6110592Y-11596687D01*
X6110592Y-11596687D02*
X6120116Y-11615735D01*
X6120116Y-11615735D02*
X6120116Y-11672878D01*
X6120116Y-11672878D02*
X6110592Y-11691925D01*
X6110592Y-11691925D02*
X6101068Y-11701449D01*
X6101068Y-11701449D02*
X6082021Y-11710973D01*
X6082021Y-11710973D02*
X6053449Y-11710973D01*
X6234402Y-11710973D02*
X6215354Y-11701449D01*
X6215354Y-11701449D02*
X6205830Y-11682401D01*
X6205830Y-11682401D02*
X6205830Y-11510973D01*
X6386783Y-11701449D02*
X6367735Y-11710973D01*
X6367735Y-11710973D02*
X6329640Y-11710973D01*
X6329640Y-11710973D02*
X6310592Y-11701449D01*
X6310592Y-11701449D02*
X6301068Y-11682401D01*
X6301068Y-11682401D02*
X6301068Y-11606211D01*
X6301068Y-11606211D02*
X6310592Y-11587163D01*
X6310592Y-11587163D02*
X6329640Y-11577640D01*
X6329640Y-11577640D02*
X6367735Y-11577640D01*
X6367735Y-11577640D02*
X6386783Y-11587163D01*
X6386783Y-11587163D02*
X6396306Y-11606211D01*
X6396306Y-11606211D02*
X6396306Y-11625259D01*
X6396306Y-11625259D02*
X6301068Y-11644306D01*
X6462973Y-11787163D02*
X6472497Y-11777640D01*
X6472497Y-11777640D02*
X6491545Y-11749068D01*
X6491545Y-11749068D02*
X6501068Y-11730021D01*
X6501068Y-11730021D02*
X6510592Y-11701449D01*
X6510592Y-11701449D02*
X6520116Y-11653830D01*
X6520116Y-11653830D02*
X6520116Y-11615735D01*
X6520116Y-11615735D02*
X6510592Y-11568116D01*
X6510592Y-11568116D02*
X6501068Y-11539544D01*
X6501068Y-11539544D02*
X6491545Y-11520497D01*
X6491545Y-11520497D02*
X6472497Y-11491925D01*
X6472497Y-11491925D02*
X6462973Y-11482401D01*
M02*
