%TF.GenerationSoftware,KiCad,Pcbnew,(7.0.0)*%
%TF.CreationDate,2023-03-20T16:27:41-06:00*%
%TF.ProjectId,OpenRectangleBreakout,4f70656e-5265-4637-9461-6e676c654272,rev?*%
%TF.SameCoordinates,Original*%
%TF.FileFunction,Paste,Top*%
%TF.FilePolarity,Positive*%
%FSLAX46Y46*%
G04 Gerber Fmt 4.6, Leading zero omitted, Abs format (unit mm)*
G04 Created by KiCad (PCBNEW (7.0.0)) date 2023-03-20 16:27:41*
%MOMM*%
%LPD*%
G01*
G04 APERTURE LIST*
G04 Aperture macros list*
%AMRoundRect*
0 Rectangle with rounded corners*
0 $1 Rounding radius*
0 $2 $3 $4 $5 $6 $7 $8 $9 X,Y pos of 4 corners*
0 Add a 4 corners polygon primitive as box body*
4,1,4,$2,$3,$4,$5,$6,$7,$8,$9,$2,$3,0*
0 Add four circle primitives for the rounded corners*
1,1,$1+$1,$2,$3*
1,1,$1+$1,$4,$5*
1,1,$1+$1,$6,$7*
1,1,$1+$1,$8,$9*
0 Add four rect primitives between the rounded corners*
20,1,$1+$1,$2,$3,$4,$5,0*
20,1,$1+$1,$4,$5,$6,$7,0*
20,1,$1+$1,$6,$7,$8,$9,0*
20,1,$1+$1,$8,$9,$2,$3,0*%
G04 Aperture macros list end*
%ADD10RoundRect,0.135000X0.185000X-0.135000X0.185000X0.135000X-0.185000X0.135000X-0.185000X-0.135000X0*%
%ADD11RoundRect,0.140000X-0.170000X0.140000X-0.170000X-0.140000X0.170000X-0.140000X0.170000X0.140000X0*%
%ADD12RoundRect,0.140000X0.140000X0.170000X-0.140000X0.170000X-0.140000X-0.170000X0.140000X-0.170000X0*%
%ADD13R,0.300000X0.900000*%
%ADD14RoundRect,0.225000X0.375000X-0.225000X0.375000X0.225000X-0.375000X0.225000X-0.375000X-0.225000X0*%
%ADD15RoundRect,0.140000X-0.140000X-0.170000X0.140000X-0.170000X0.140000X0.170000X-0.140000X0.170000X0*%
%ADD16RoundRect,0.200000X-0.275000X0.200000X-0.275000X-0.200000X0.275000X-0.200000X0.275000X0.200000X0*%
%ADD17RoundRect,0.150000X0.587500X0.150000X-0.587500X0.150000X-0.587500X-0.150000X0.587500X-0.150000X0*%
%ADD18R,1.400000X1.200000*%
%ADD19R,1.100000X1.800000*%
%ADD20RoundRect,0.140000X0.170000X-0.140000X0.170000X0.140000X-0.170000X0.140000X-0.170000X-0.140000X0*%
%ADD21RoundRect,0.135000X-0.185000X0.135000X-0.185000X-0.135000X0.185000X-0.135000X0.185000X0.135000X0*%
%ADD22RoundRect,0.250000X-0.292217X-0.292217X0.292217X-0.292217X0.292217X0.292217X-0.292217X0.292217X0*%
%ADD23RoundRect,0.050000X-0.387500X-0.050000X0.387500X-0.050000X0.387500X0.050000X-0.387500X0.050000X0*%
%ADD24RoundRect,0.050000X-0.050000X-0.387500X0.050000X-0.387500X0.050000X0.387500X-0.050000X0.387500X0*%
%ADD25RoundRect,0.243750X0.243750X0.456250X-0.243750X0.456250X-0.243750X-0.456250X0.243750X-0.456250X0*%
%ADD26RoundRect,0.150000X-0.150000X0.512500X-0.150000X-0.512500X0.150000X-0.512500X0.150000X0.512500X0*%
%ADD27RoundRect,0.135000X0.135000X0.185000X-0.135000X0.185000X-0.135000X-0.185000X0.135000X-0.185000X0*%
%ADD28RoundRect,0.135000X-0.135000X-0.185000X0.135000X-0.185000X0.135000X0.185000X-0.135000X0.185000X0*%
%ADD29RoundRect,0.150000X-0.650000X-0.150000X0.650000X-0.150000X0.650000X0.150000X-0.650000X0.150000X0*%
%ADD30RoundRect,0.200000X0.275000X-0.200000X0.275000X0.200000X-0.275000X0.200000X-0.275000X-0.200000X0*%
%ADD31RoundRect,0.250000X-0.375000X-0.625000X0.375000X-0.625000X0.375000X0.625000X-0.375000X0.625000X0*%
%ADD32RoundRect,0.140000X-0.219203X-0.021213X-0.021213X-0.219203X0.219203X0.021213X0.021213X0.219203X0*%
G04 APERTURE END LIST*
D10*
%TO.C,R6*%
X56966468Y-58604807D03*
X56966468Y-57584807D03*
%TD*%
D11*
%TO.C,C7*%
X39261468Y-74318825D03*
X39261468Y-75278825D03*
%TD*%
D12*
%TO.C,C9*%
X52796468Y-53914807D03*
X51836468Y-53914807D03*
%TD*%
D13*
%TO.C,J1*%
X47724967Y-36559806D03*
X47224967Y-36559806D03*
X46724967Y-36559806D03*
X46224967Y-36559806D03*
X45724967Y-36559806D03*
X45224967Y-36559806D03*
X44724967Y-36559806D03*
X44224967Y-36559806D03*
X43724967Y-36559806D03*
X43224967Y-36559806D03*
X42724967Y-36559806D03*
X42224967Y-36559806D03*
%TD*%
D10*
%TO.C,R11*%
X43833468Y-71483057D03*
X43833468Y-70463057D03*
%TD*%
D11*
%TO.C,C6*%
X47389468Y-70493057D03*
X47389468Y-71453057D03*
%TD*%
D14*
%TO.C,D2*%
X55226468Y-47619807D03*
X55226468Y-44319807D03*
%TD*%
D15*
%TO.C,C16*%
X50973468Y-58400057D03*
X51933468Y-58400057D03*
%TD*%
%TO.C,C3*%
X35765000Y-44850000D03*
X36725000Y-44850000D03*
%TD*%
D16*
%TO.C,R8*%
X45406468Y-50804807D03*
X45406468Y-52454807D03*
%TD*%
D17*
%TO.C,U1*%
X50686468Y-50259807D03*
X50686468Y-48359807D03*
X48811468Y-49309807D03*
%TD*%
D18*
%TO.C,Y1*%
X43790467Y-73679056D03*
X41590467Y-73679056D03*
X41590467Y-75379056D03*
X43790467Y-75379056D03*
%TD*%
D19*
%TO.C,SW1*%
X33360378Y-32158717D03*
X33360378Y-38358717D03*
X29660378Y-32158717D03*
X29660378Y-38358717D03*
%TD*%
D20*
%TO.C,C8*%
X45964218Y-75024825D03*
X45964218Y-74064825D03*
%TD*%
D11*
%TO.C,C14*%
X45865468Y-70493057D03*
X45865468Y-71453057D03*
%TD*%
D21*
%TO.C,R10*%
X27020379Y-42413718D03*
X27020379Y-43433718D03*
%TD*%
D22*
%TO.C,U3*%
X44338968Y-62747307D03*
X44338968Y-64022307D03*
X45613968Y-62747307D03*
X45613968Y-64022307D03*
D23*
X41538968Y-60784807D03*
X41538968Y-61184807D03*
X41538968Y-61584807D03*
X41538968Y-61984807D03*
X41538968Y-62384807D03*
X41538968Y-62784807D03*
X41538968Y-63184807D03*
X41538968Y-63584807D03*
X41538968Y-63984807D03*
X41538968Y-64384807D03*
X41538968Y-64784807D03*
X41538968Y-65184807D03*
X41538968Y-65584807D03*
X41538968Y-65984807D03*
D24*
X42376468Y-66822307D03*
X42776468Y-66822307D03*
X43176468Y-66822307D03*
X43576468Y-66822307D03*
X43976468Y-66822307D03*
X44376468Y-66822307D03*
X44776468Y-66822307D03*
X45176468Y-66822307D03*
X45576468Y-66822307D03*
X45976468Y-66822307D03*
X46376468Y-66822307D03*
X46776468Y-66822307D03*
X47176468Y-66822307D03*
X47576468Y-66822307D03*
D23*
X48413968Y-65984807D03*
X48413968Y-65584807D03*
X48413968Y-65184807D03*
X48413968Y-64784807D03*
X48413968Y-64384807D03*
X48413968Y-63984807D03*
X48413968Y-63584807D03*
X48413968Y-63184807D03*
X48413968Y-62784807D03*
X48413968Y-62384807D03*
X48413968Y-61984807D03*
X48413968Y-61584807D03*
X48413968Y-61184807D03*
X48413968Y-60784807D03*
D24*
X47576468Y-59947307D03*
X47176468Y-59947307D03*
X46776468Y-59947307D03*
X46376468Y-59947307D03*
X45976468Y-59947307D03*
X45576468Y-59947307D03*
X45176468Y-59947307D03*
X44776468Y-59947307D03*
X44376468Y-59947307D03*
X43976468Y-59947307D03*
X43576468Y-59947307D03*
X43176468Y-59947307D03*
X42776468Y-59947307D03*
X42376468Y-59947307D03*
%TD*%
D25*
%TO.C,D3*%
X58291468Y-61989807D03*
X56416468Y-61989807D03*
%TD*%
D26*
%TO.C,U2*%
X45926468Y-44702307D03*
X44976468Y-44702307D03*
X44026468Y-44702307D03*
X44026468Y-46977307D03*
X44976468Y-46977307D03*
X45926468Y-46977307D03*
%TD*%
D27*
%TO.C,R7*%
X51406468Y-70419807D03*
X50386468Y-70419807D03*
%TD*%
D20*
%TO.C,C4*%
X47742218Y-57625825D03*
X47742218Y-56665825D03*
%TD*%
%TO.C,C10*%
X44976468Y-55832057D03*
X44976468Y-54872057D03*
%TD*%
D16*
%TO.C,R9*%
X46936468Y-50804807D03*
X46936468Y-52454807D03*
%TD*%
D15*
%TO.C,C17*%
X50973468Y-59924057D03*
X51933468Y-59924057D03*
%TD*%
D28*
%TO.C,R2*%
X40790000Y-39980000D03*
X41810000Y-39980000D03*
%TD*%
D15*
%TO.C,C1*%
X51836468Y-55114807D03*
X52796468Y-55114807D03*
%TD*%
D21*
%TO.C,R5*%
X55426468Y-57584807D03*
X55426468Y-58604807D03*
%TD*%
D29*
%TO.C,U4*%
X27020379Y-44848718D03*
X27020379Y-46118718D03*
X27020379Y-47388718D03*
X27020379Y-48658718D03*
X34220379Y-48658718D03*
X34220379Y-47388718D03*
X34220379Y-46118718D03*
X34220379Y-44848718D03*
%TD*%
D14*
%TO.C,D1*%
X52846468Y-52549807D03*
X52846468Y-49249807D03*
%TD*%
D20*
%TO.C,C12*%
X48758218Y-57625825D03*
X48758218Y-56665825D03*
%TD*%
%TO.C,C5*%
X43452468Y-55832057D03*
X43452468Y-54872057D03*
%TD*%
D12*
%TO.C,C15*%
X39220000Y-64640000D03*
X38260000Y-64640000D03*
%TD*%
D21*
%TO.C,R3*%
X46140000Y-39430000D03*
X46140000Y-40450000D03*
%TD*%
D30*
%TO.C,R1*%
X22970000Y-36575000D03*
X22970000Y-34925000D03*
%TD*%
D31*
%TO.C,F1*%
X48706468Y-43949807D03*
X51506468Y-43949807D03*
%TD*%
D28*
%TO.C,R4*%
X54216468Y-61999807D03*
X55236468Y-61999807D03*
%TD*%
D32*
%TO.C,C11*%
X51943057Y-65966289D03*
X52621879Y-66645111D03*
%TD*%
D12*
%TO.C,C2*%
X49776468Y-47069807D03*
X48816468Y-47069807D03*
%TD*%
D20*
%TO.C,C13*%
X39741218Y-60165825D03*
X39741218Y-59205825D03*
%TD*%
M02*
